G04 #@! TF.GenerationSoftware,KiCad,Pcbnew,6.0.11+dfsg-1*
G04 #@! TF.CreationDate,2025-03-20T11:06:45-04:00*
G04 #@! TF.ProjectId,foc-board,666f632d-626f-4617-9264-2e6b69636164,rev?*
G04 #@! TF.SameCoordinates,Original*
G04 #@! TF.FileFunction,Soldermask,Bot*
G04 #@! TF.FilePolarity,Negative*
%FSLAX46Y46*%
G04 Gerber Fmt 4.6, Leading zero omitted, Abs format (unit mm)*
G04 Created by KiCad (PCBNEW 6.0.11+dfsg-1) date 2025-03-20 11:06:45*
%MOMM*%
%LPD*%
G01*
G04 APERTURE LIST*
G04 Aperture macros list*
%AMRoundRect*
0 Rectangle with rounded corners*
0 $1 Rounding radius*
0 $2 $3 $4 $5 $6 $7 $8 $9 X,Y pos of 4 corners*
0 Add a 4 corners polygon primitive as box body*
4,1,4,$2,$3,$4,$5,$6,$7,$8,$9,$2,$3,0*
0 Add four circle primitives for the rounded corners*
1,1,$1+$1,$2,$3*
1,1,$1+$1,$4,$5*
1,1,$1+$1,$6,$7*
1,1,$1+$1,$8,$9*
0 Add four rect primitives between the rounded corners*
20,1,$1+$1,$2,$3,$4,$5,0*
20,1,$1+$1,$4,$5,$6,$7,0*
20,1,$1+$1,$6,$7,$8,$9,0*
20,1,$1+$1,$8,$9,$2,$3,0*%
G04 Aperture macros list end*
%ADD10RoundRect,0.100000X-0.850000X-0.850000X0.850000X-0.850000X0.850000X0.850000X-0.850000X0.850000X0*%
%ADD11C,3.400000*%
%ADD12RoundRect,0.100000X1.200000X1.200000X-1.200000X1.200000X-1.200000X-1.200000X1.200000X-1.200000X0*%
%ADD13C,2.600000*%
%ADD14RoundRect,0.100000X0.425000X-0.425000X0.425000X0.425000X-0.425000X0.425000X-0.425000X-0.425000X0*%
%ADD15O,1.050000X1.050000*%
%ADD16RoundRect,0.100000X-0.425000X-0.425000X0.425000X-0.425000X0.425000X0.425000X-0.425000X0.425000X0*%
%ADD17RoundRect,0.350000X0.750000X-0.600000X0.750000X0.600000X-0.750000X0.600000X-0.750000X-0.600000X0*%
%ADD18O,2.200000X1.900000*%
%ADD19RoundRect,0.100000X0.550000X-0.550000X0.550000X0.550000X-0.550000X0.550000X-0.550000X-0.550000X0*%
%ADD20C,1.300000*%
%ADD21O,2.600000X1.300000*%
%ADD22RoundRect,1.600000X-1.500000X1.500000X-1.500000X-1.500000X1.500000X-1.500000X1.500000X1.500000X0*%
%ADD23C,6.200000*%
%ADD24RoundRect,0.100000X0.850000X0.850000X-0.850000X0.850000X-0.850000X-0.850000X0.850000X-0.850000X0*%
%ADD25O,1.900000X1.900000*%
%ADD26RoundRect,0.100000X-0.350000X0.300000X-0.350000X-0.300000X0.350000X-0.300000X0.350000X0.300000X0*%
%ADD27RoundRect,0.100000X0.350000X-0.300000X0.350000X0.300000X-0.350000X0.300000X-0.350000X-0.300000X0*%
%ADD28RoundRect,0.250000X-0.150000X0.825000X-0.150000X-0.825000X0.150000X-0.825000X0.150000X0.825000X0*%
%ADD29RoundRect,0.350000X-0.350000X-0.450000X0.350000X-0.450000X0.350000X0.450000X-0.350000X0.450000X0*%
%ADD30RoundRect,0.100000X1.150000X-1.250000X1.150000X1.250000X-1.150000X1.250000X-1.150000X-1.250000X0*%
%ADD31RoundRect,0.100000X0.300000X0.350000X-0.300000X0.350000X-0.300000X-0.350000X0.300000X-0.350000X0*%
%ADD32RoundRect,0.350000X-0.475000X0.250000X-0.475000X-0.250000X0.475000X-0.250000X0.475000X0.250000X0*%
%ADD33RoundRect,0.200000X-0.637500X-0.100000X0.637500X-0.100000X0.637500X0.100000X-0.637500X0.100000X0*%
%ADD34RoundRect,0.350000X0.475000X-0.250000X0.475000X0.250000X-0.475000X0.250000X-0.475000X-0.250000X0*%
%ADD35RoundRect,0.350000X0.450000X-0.350000X0.450000X0.350000X-0.450000X0.350000X-0.450000X-0.350000X0*%
%ADD36RoundRect,0.350000X0.350000X0.450000X-0.350000X0.450000X-0.350000X-0.450000X0.350000X-0.450000X0*%
G04 APERTURE END LIST*
D10*
X102640000Y-82764000D03*
D11*
X138962000Y-95972000D03*
D12*
X84135959Y-107148000D03*
D13*
X79135959Y-107148000D03*
D14*
X102394000Y-70064000D03*
D15*
X103394000Y-70064000D03*
D16*
X109752000Y-100036000D03*
D12*
X84467918Y-84288000D03*
D13*
X79467918Y-84288000D03*
D16*
X105942000Y-100036000D03*
X104672000Y-100036000D03*
D11*
X107466000Y-127468000D03*
D16*
X107212000Y-100038000D03*
D17*
X100100000Y-126198000D03*
D18*
X100100000Y-123698000D03*
D16*
X117134000Y-102068000D03*
D17*
X92971000Y-122622000D03*
D18*
X92971000Y-120122000D03*
D16*
X117134000Y-100036000D03*
X135406000Y-101814000D03*
X111022000Y-100036000D03*
D11*
X75970000Y-95972000D03*
D16*
X108482000Y-100036000D03*
D10*
X102894000Y-67524000D03*
D19*
X87626000Y-119378000D03*
D20*
X85876000Y-118578000D03*
X87626000Y-117778000D03*
X85876000Y-116978000D03*
X87626000Y-116178000D03*
D21*
X86751000Y-121428000D03*
X86751000Y-114128000D03*
D16*
X104394000Y-105664000D03*
X104394000Y-108204000D03*
D22*
X133120000Y-79462000D03*
D23*
X133120000Y-86662000D03*
D16*
X104394000Y-106934000D03*
X117134000Y-104100000D03*
D24*
X91440000Y-114808000D03*
D25*
X91440000Y-112268000D03*
X91440000Y-109728000D03*
X91440000Y-107188000D03*
X91440000Y-104648000D03*
D16*
X104394000Y-104394000D03*
D10*
X102640000Y-75144000D03*
D12*
X91051795Y-95718000D03*
D13*
X86051795Y-95718000D03*
D26*
X97536000Y-127384000D03*
X97536000Y-125984000D03*
D27*
X97536000Y-122428000D03*
X97536000Y-123828000D03*
D28*
X122301000Y-99698000D03*
X123571000Y-99698000D03*
X124841000Y-99698000D03*
X126111000Y-99698000D03*
X126111000Y-104648000D03*
X124841000Y-104648000D03*
X123571000Y-104648000D03*
X122301000Y-104648000D03*
D27*
X88924000Y-112482000D03*
X88924000Y-113882000D03*
D29*
X95234000Y-118618000D03*
X97234000Y-118618000D03*
D30*
X106958000Y-75008000D03*
X106958000Y-70708000D03*
D31*
X101940000Y-72096000D03*
X103340000Y-72096000D03*
D32*
X120142000Y-101437000D03*
X120142000Y-103337000D03*
D26*
X84606000Y-118262000D03*
X84606000Y-116862000D03*
D33*
X104603500Y-97922000D03*
X104603500Y-97272000D03*
X104603500Y-96622000D03*
X104603500Y-95972000D03*
X104603500Y-95322000D03*
X104603500Y-94672000D03*
X104603500Y-94022000D03*
X110328500Y-94022000D03*
X110328500Y-94672000D03*
X110328500Y-95322000D03*
X110328500Y-95972000D03*
X110328500Y-96622000D03*
X110328500Y-97272000D03*
X110328500Y-97922000D03*
D26*
X88924000Y-117692000D03*
X88924000Y-116292000D03*
D27*
X93472000Y-107148000D03*
X93472000Y-108548000D03*
D34*
X113054000Y-97684000D03*
X113054000Y-95784000D03*
D29*
X95250000Y-116586000D03*
X97250000Y-116586000D03*
D30*
X111530000Y-75026000D03*
X111530000Y-70726000D03*
X127786000Y-81104000D03*
X127786000Y-76804000D03*
D27*
X93472000Y-109942000D03*
X93472000Y-111342000D03*
D35*
X102640000Y-125912000D03*
X102640000Y-123912000D03*
D30*
X116102000Y-75026000D03*
X116102000Y-70726000D03*
D36*
X125952000Y-109915000D03*
X123952000Y-109915000D03*
X125980000Y-107669000D03*
X123980000Y-107669000D03*
G36*
X111043334Y-97555598D02*
G01*
X111043724Y-97557560D01*
X111043493Y-97558028D01*
X111023688Y-97587667D01*
X111030874Y-97623794D01*
X111042627Y-97635547D01*
X111043145Y-97637479D01*
X111041731Y-97638893D01*
X111040823Y-97638923D01*
X110965801Y-97624000D01*
X109691199Y-97624000D01*
X109615560Y-97639045D01*
X109613666Y-97638402D01*
X109613276Y-97636440D01*
X109613507Y-97635972D01*
X109633312Y-97606333D01*
X109626126Y-97570206D01*
X109614373Y-97558453D01*
X109613855Y-97556521D01*
X109615269Y-97555107D01*
X109616177Y-97555077D01*
X109691199Y-97570000D01*
X110965801Y-97570000D01*
X111041440Y-97554955D01*
X111043334Y-97555598D01*
G37*
G36*
X105318334Y-97555598D02*
G01*
X105318724Y-97557560D01*
X105318493Y-97558028D01*
X105298688Y-97587667D01*
X105305874Y-97623794D01*
X105317627Y-97635547D01*
X105318145Y-97637479D01*
X105316731Y-97638893D01*
X105315823Y-97638923D01*
X105240801Y-97624000D01*
X103966199Y-97624000D01*
X103890560Y-97639045D01*
X103888666Y-97638402D01*
X103888276Y-97636440D01*
X103888507Y-97635972D01*
X103908312Y-97606333D01*
X103901126Y-97570206D01*
X103889373Y-97558453D01*
X103888855Y-97556521D01*
X103890269Y-97555107D01*
X103891177Y-97555077D01*
X103966199Y-97570000D01*
X105240801Y-97570000D01*
X105316440Y-97554955D01*
X105318334Y-97555598D01*
G37*
G36*
X111043334Y-96905598D02*
G01*
X111043724Y-96907560D01*
X111043493Y-96908028D01*
X111023688Y-96937667D01*
X111030874Y-96973794D01*
X111042627Y-96985547D01*
X111043145Y-96987479D01*
X111041731Y-96988893D01*
X111040823Y-96988923D01*
X110965801Y-96974000D01*
X109691199Y-96974000D01*
X109615560Y-96989045D01*
X109613666Y-96988402D01*
X109613276Y-96986440D01*
X109613507Y-96985972D01*
X109633312Y-96956333D01*
X109626126Y-96920206D01*
X109614373Y-96908453D01*
X109613855Y-96906521D01*
X109615269Y-96905107D01*
X109616177Y-96905077D01*
X109691199Y-96920000D01*
X110965801Y-96920000D01*
X111041440Y-96904955D01*
X111043334Y-96905598D01*
G37*
G36*
X105318334Y-96905598D02*
G01*
X105318724Y-96907560D01*
X105318493Y-96908028D01*
X105298688Y-96937667D01*
X105305874Y-96973794D01*
X105317627Y-96985547D01*
X105318145Y-96987479D01*
X105316731Y-96988893D01*
X105315823Y-96988923D01*
X105240801Y-96974000D01*
X103966199Y-96974000D01*
X103890560Y-96989045D01*
X103888666Y-96988402D01*
X103888276Y-96986440D01*
X103888507Y-96985972D01*
X103908312Y-96956333D01*
X103901126Y-96920206D01*
X103889373Y-96908453D01*
X103888855Y-96906521D01*
X103890269Y-96905107D01*
X103891177Y-96905077D01*
X103966199Y-96920000D01*
X105240801Y-96920000D01*
X105316440Y-96904955D01*
X105318334Y-96905598D01*
G37*
G36*
X111043334Y-96255598D02*
G01*
X111043724Y-96257560D01*
X111043493Y-96258028D01*
X111023688Y-96287667D01*
X111030874Y-96323794D01*
X111042627Y-96335547D01*
X111043145Y-96337479D01*
X111041731Y-96338893D01*
X111040823Y-96338923D01*
X110965801Y-96324000D01*
X109691199Y-96324000D01*
X109615560Y-96339045D01*
X109613666Y-96338402D01*
X109613276Y-96336440D01*
X109613507Y-96335972D01*
X109633312Y-96306333D01*
X109626126Y-96270206D01*
X109614373Y-96258453D01*
X109613855Y-96256521D01*
X109615269Y-96255107D01*
X109616177Y-96255077D01*
X109691199Y-96270000D01*
X110965801Y-96270000D01*
X111041440Y-96254955D01*
X111043334Y-96255598D01*
G37*
G36*
X105318334Y-96255598D02*
G01*
X105318724Y-96257560D01*
X105318493Y-96258028D01*
X105298688Y-96287667D01*
X105305874Y-96323794D01*
X105317627Y-96335547D01*
X105318145Y-96337479D01*
X105316731Y-96338893D01*
X105315823Y-96338923D01*
X105240801Y-96324000D01*
X103966199Y-96324000D01*
X103890560Y-96339045D01*
X103888666Y-96338402D01*
X103888276Y-96336440D01*
X103888507Y-96335972D01*
X103908312Y-96306333D01*
X103901126Y-96270206D01*
X103889373Y-96258453D01*
X103888855Y-96256521D01*
X103890269Y-96255107D01*
X103891177Y-96255077D01*
X103966199Y-96270000D01*
X105240801Y-96270000D01*
X105316440Y-96254955D01*
X105318334Y-96255598D01*
G37*
G36*
X105318334Y-95605598D02*
G01*
X105318724Y-95607560D01*
X105318493Y-95608028D01*
X105298688Y-95637667D01*
X105305874Y-95673794D01*
X105317627Y-95685547D01*
X105318145Y-95687479D01*
X105316731Y-95688893D01*
X105315823Y-95688923D01*
X105240801Y-95674000D01*
X103966199Y-95674000D01*
X103890560Y-95689045D01*
X103888666Y-95688402D01*
X103888276Y-95686440D01*
X103888507Y-95685972D01*
X103908312Y-95656333D01*
X103901126Y-95620206D01*
X103889373Y-95608453D01*
X103888855Y-95606521D01*
X103890269Y-95605107D01*
X103891177Y-95605077D01*
X103966199Y-95620000D01*
X105240801Y-95620000D01*
X105316440Y-95604955D01*
X105318334Y-95605598D01*
G37*
G36*
X111043334Y-95605598D02*
G01*
X111043724Y-95607560D01*
X111043493Y-95608028D01*
X111023688Y-95637667D01*
X111030874Y-95673794D01*
X111042627Y-95685547D01*
X111043145Y-95687479D01*
X111041731Y-95688893D01*
X111040823Y-95688923D01*
X110965801Y-95674000D01*
X109691199Y-95674000D01*
X109615560Y-95689045D01*
X109613666Y-95688402D01*
X109613276Y-95686440D01*
X109613507Y-95685972D01*
X109633312Y-95656333D01*
X109626126Y-95620206D01*
X109614373Y-95608453D01*
X109613855Y-95606521D01*
X109615269Y-95605107D01*
X109616177Y-95605077D01*
X109691199Y-95620000D01*
X110965801Y-95620000D01*
X111041440Y-95604955D01*
X111043334Y-95605598D01*
G37*
G36*
X111043334Y-94955598D02*
G01*
X111043724Y-94957560D01*
X111043493Y-94958028D01*
X111023688Y-94987667D01*
X111030874Y-95023794D01*
X111042627Y-95035547D01*
X111043145Y-95037479D01*
X111041731Y-95038893D01*
X111040823Y-95038923D01*
X110965801Y-95024000D01*
X109691199Y-95024000D01*
X109615560Y-95039045D01*
X109613666Y-95038402D01*
X109613276Y-95036440D01*
X109613507Y-95035972D01*
X109633312Y-95006333D01*
X109626126Y-94970206D01*
X109614373Y-94958453D01*
X109613855Y-94956521D01*
X109615269Y-94955107D01*
X109616177Y-94955077D01*
X109691199Y-94970000D01*
X110965801Y-94970000D01*
X111041440Y-94954955D01*
X111043334Y-94955598D01*
G37*
G36*
X105318334Y-94955598D02*
G01*
X105318724Y-94957560D01*
X105318493Y-94958028D01*
X105298688Y-94987667D01*
X105305874Y-95023794D01*
X105317627Y-95035547D01*
X105318145Y-95037479D01*
X105316731Y-95038893D01*
X105315823Y-95038923D01*
X105240801Y-95024000D01*
X103966199Y-95024000D01*
X103890560Y-95039045D01*
X103888666Y-95038402D01*
X103888276Y-95036440D01*
X103888507Y-95035972D01*
X103908312Y-95006333D01*
X103901126Y-94970206D01*
X103889373Y-94958453D01*
X103888855Y-94956521D01*
X103890269Y-94955107D01*
X103891177Y-94955077D01*
X103966199Y-94970000D01*
X105240801Y-94970000D01*
X105316440Y-94954955D01*
X105318334Y-94955598D01*
G37*
G36*
X105318334Y-94305598D02*
G01*
X105318724Y-94307560D01*
X105318493Y-94308028D01*
X105298688Y-94337667D01*
X105305874Y-94373794D01*
X105317627Y-94385547D01*
X105318145Y-94387479D01*
X105316731Y-94388893D01*
X105315823Y-94388923D01*
X105240801Y-94374000D01*
X103966199Y-94374000D01*
X103890560Y-94389045D01*
X103888666Y-94388402D01*
X103888276Y-94386440D01*
X103888507Y-94385972D01*
X103908312Y-94356333D01*
X103901126Y-94320206D01*
X103889373Y-94308453D01*
X103888855Y-94306521D01*
X103890269Y-94305107D01*
X103891177Y-94305077D01*
X103966199Y-94320000D01*
X105240801Y-94320000D01*
X105316440Y-94304955D01*
X105318334Y-94305598D01*
G37*
G36*
X111043334Y-94305598D02*
G01*
X111043724Y-94307560D01*
X111043493Y-94308028D01*
X111023688Y-94337667D01*
X111030874Y-94373794D01*
X111042627Y-94385547D01*
X111043145Y-94387479D01*
X111041731Y-94388893D01*
X111040823Y-94388923D01*
X110965801Y-94374000D01*
X109691199Y-94374000D01*
X109615560Y-94389045D01*
X109613666Y-94388402D01*
X109613276Y-94386440D01*
X109613507Y-94385972D01*
X109633312Y-94356333D01*
X109626126Y-94320206D01*
X109614373Y-94308453D01*
X109613855Y-94306521D01*
X109615269Y-94305107D01*
X109616177Y-94305077D01*
X109691199Y-94320000D01*
X110965801Y-94320000D01*
X111041440Y-94304955D01*
X111043334Y-94305598D01*
G37*
M02*
