G04 #@! TF.GenerationSoftware,KiCad,Pcbnew,6.0.11+dfsg-1*
G04 #@! TF.CreationDate,2025-03-20T11:06:45-04:00*
G04 #@! TF.ProjectId,foc-board,666f632d-626f-4617-9264-2e6b69636164,rev?*
G04 #@! TF.SameCoordinates,Original*
G04 #@! TF.FileFunction,Copper,L4,Bot*
G04 #@! TF.FilePolarity,Positive*
%FSLAX46Y46*%
G04 Gerber Fmt 4.6, Leading zero omitted, Abs format (unit mm)*
G04 Created by KiCad (PCBNEW 6.0.11+dfsg-1) date 2025-03-20 11:06:45*
%MOMM*%
%LPD*%
G01*
G04 APERTURE LIST*
G04 Aperture macros list*
%AMRoundRect*
0 Rectangle with rounded corners*
0 $1 Rounding radius*
0 $2 $3 $4 $5 $6 $7 $8 $9 X,Y pos of 4 corners*
0 Add a 4 corners polygon primitive as box body*
4,1,4,$2,$3,$4,$5,$6,$7,$8,$9,$2,$3,0*
0 Add four circle primitives for the rounded corners*
1,1,$1+$1,$2,$3*
1,1,$1+$1,$4,$5*
1,1,$1+$1,$6,$7*
1,1,$1+$1,$8,$9*
0 Add four rect primitives between the rounded corners*
20,1,$1+$1,$2,$3,$4,$5,0*
20,1,$1+$1,$4,$5,$6,$7,0*
20,1,$1+$1,$6,$7,$8,$9,0*
20,1,$1+$1,$8,$9,$2,$3,0*%
G04 Aperture macros list end*
G04 #@! TA.AperFunction,ComponentPad*
%ADD10R,1.700000X1.700000*%
G04 #@! TD*
G04 #@! TA.AperFunction,ComponentPad*
%ADD11R,2.400000X2.400000*%
G04 #@! TD*
G04 #@! TA.AperFunction,ComponentPad*
%ADD12C,2.400000*%
G04 #@! TD*
G04 #@! TA.AperFunction,ComponentPad*
%ADD13R,0.850000X0.850000*%
G04 #@! TD*
G04 #@! TA.AperFunction,ComponentPad*
%ADD14O,0.850000X0.850000*%
G04 #@! TD*
G04 #@! TA.AperFunction,ComponentPad*
%ADD15RoundRect,0.250000X0.750000X-0.600000X0.750000X0.600000X-0.750000X0.600000X-0.750000X-0.600000X0*%
G04 #@! TD*
G04 #@! TA.AperFunction,ComponentPad*
%ADD16O,2.000000X1.700000*%
G04 #@! TD*
G04 #@! TA.AperFunction,ComponentPad*
%ADD17R,1.100000X1.100000*%
G04 #@! TD*
G04 #@! TA.AperFunction,ComponentPad*
%ADD18C,1.100000*%
G04 #@! TD*
G04 #@! TA.AperFunction,ComponentPad*
%ADD19O,2.400000X1.100000*%
G04 #@! TD*
G04 #@! TA.AperFunction,ComponentPad*
%ADD20RoundRect,1.500000X-1.500000X1.500000X-1.500000X-1.500000X1.500000X-1.500000X1.500000X1.500000X0*%
G04 #@! TD*
G04 #@! TA.AperFunction,ComponentPad*
%ADD21C,6.000000*%
G04 #@! TD*
G04 #@! TA.AperFunction,ComponentPad*
%ADD22O,1.700000X1.700000*%
G04 #@! TD*
G04 #@! TA.AperFunction,SMDPad,CuDef*
%ADD23R,0.700000X0.600000*%
G04 #@! TD*
G04 #@! TA.AperFunction,SMDPad,CuDef*
%ADD24RoundRect,0.150000X-0.150000X0.825000X-0.150000X-0.825000X0.150000X-0.825000X0.150000X0.825000X0*%
G04 #@! TD*
G04 #@! TA.AperFunction,SMDPad,CuDef*
%ADD25RoundRect,0.250000X-0.350000X-0.450000X0.350000X-0.450000X0.350000X0.450000X-0.350000X0.450000X0*%
G04 #@! TD*
G04 #@! TA.AperFunction,SMDPad,CuDef*
%ADD26R,2.300000X2.500000*%
G04 #@! TD*
G04 #@! TA.AperFunction,SMDPad,CuDef*
%ADD27R,0.600000X0.700000*%
G04 #@! TD*
G04 #@! TA.AperFunction,SMDPad,CuDef*
%ADD28RoundRect,0.250000X-0.475000X0.250000X-0.475000X-0.250000X0.475000X-0.250000X0.475000X0.250000X0*%
G04 #@! TD*
G04 #@! TA.AperFunction,SMDPad,CuDef*
%ADD29RoundRect,0.100000X-0.637500X-0.100000X0.637500X-0.100000X0.637500X0.100000X-0.637500X0.100000X0*%
G04 #@! TD*
G04 #@! TA.AperFunction,SMDPad,CuDef*
%ADD30RoundRect,0.250000X0.475000X-0.250000X0.475000X0.250000X-0.475000X0.250000X-0.475000X-0.250000X0*%
G04 #@! TD*
G04 #@! TA.AperFunction,SMDPad,CuDef*
%ADD31RoundRect,0.250000X0.450000X-0.350000X0.450000X0.350000X-0.450000X0.350000X-0.450000X-0.350000X0*%
G04 #@! TD*
G04 #@! TA.AperFunction,SMDPad,CuDef*
%ADD32RoundRect,0.250000X0.350000X0.450000X-0.350000X0.450000X-0.350000X-0.450000X0.350000X-0.450000X0*%
G04 #@! TD*
G04 #@! TA.AperFunction,ViaPad*
%ADD33C,0.700000*%
G04 #@! TD*
G04 #@! TA.AperFunction,ViaPad*
%ADD34C,0.800000*%
G04 #@! TD*
G04 #@! TA.AperFunction,Conductor*
%ADD35C,1.000000*%
G04 #@! TD*
G04 #@! TA.AperFunction,Conductor*
%ADD36C,0.300000*%
G04 #@! TD*
G04 #@! TA.AperFunction,Conductor*
%ADD37C,0.500000*%
G04 #@! TD*
G04 #@! TA.AperFunction,Conductor*
%ADD38C,3.000000*%
G04 #@! TD*
G04 #@! TA.AperFunction,Conductor*
%ADD39C,0.250000*%
G04 #@! TD*
G04 #@! TA.AperFunction,Conductor*
%ADD40C,0.200000*%
G04 #@! TD*
G04 APERTURE END LIST*
D10*
X102640000Y-82764000D03*
D11*
X84135959Y-107148000D03*
D12*
X79135959Y-107148000D03*
D13*
X102394000Y-70064000D03*
D14*
X103394000Y-70064000D03*
D13*
X109752000Y-100036000D03*
D11*
X84467918Y-84288000D03*
D12*
X79467918Y-84288000D03*
D13*
X105942000Y-100036000D03*
X104672000Y-100036000D03*
X107212000Y-100038000D03*
D15*
X100100000Y-126198000D03*
D16*
X100100000Y-123698000D03*
D13*
X117134000Y-102068000D03*
D15*
X92971000Y-122622000D03*
D16*
X92971000Y-120122000D03*
D13*
X117134000Y-100036000D03*
X135406000Y-101814000D03*
X111022000Y-100036000D03*
X108482000Y-100036000D03*
D10*
X102894000Y-67524000D03*
D17*
X87626000Y-119378000D03*
D18*
X85876000Y-118578000D03*
X87626000Y-117778000D03*
X85876000Y-116978000D03*
X87626000Y-116178000D03*
D19*
X86751000Y-121428000D03*
X86751000Y-114128000D03*
D13*
X104394000Y-105664000D03*
X104394000Y-108204000D03*
D20*
X133120000Y-79462000D03*
D21*
X133120000Y-86662000D03*
D13*
X104394000Y-106934000D03*
X117134000Y-104100000D03*
D10*
X91440000Y-114808000D03*
D22*
X91440000Y-112268000D03*
X91440000Y-109728000D03*
X91440000Y-107188000D03*
X91440000Y-104648000D03*
D13*
X104394000Y-104394000D03*
D10*
X102640000Y-75144000D03*
D11*
X91051795Y-95718000D03*
D12*
X86051795Y-95718000D03*
D23*
X97536000Y-127384000D03*
X97536000Y-125984000D03*
X97536000Y-122428000D03*
X97536000Y-123828000D03*
D24*
X122301000Y-99698000D03*
X123571000Y-99698000D03*
X124841000Y-99698000D03*
X126111000Y-99698000D03*
X126111000Y-104648000D03*
X124841000Y-104648000D03*
X123571000Y-104648000D03*
X122301000Y-104648000D03*
D23*
X88924000Y-112482000D03*
X88924000Y-113882000D03*
D25*
X95234000Y-118618000D03*
X97234000Y-118618000D03*
D26*
X106958000Y-75008000D03*
X106958000Y-70708000D03*
D27*
X101940000Y-72096000D03*
X103340000Y-72096000D03*
D28*
X120142000Y-101437000D03*
X120142000Y-103337000D03*
D23*
X84606000Y-118262000D03*
X84606000Y-116862000D03*
D29*
X104603500Y-97922000D03*
X104603500Y-97272000D03*
X104603500Y-96622000D03*
X104603500Y-95972000D03*
X104603500Y-95322000D03*
X104603500Y-94672000D03*
X104603500Y-94022000D03*
X110328500Y-94022000D03*
X110328500Y-94672000D03*
X110328500Y-95322000D03*
X110328500Y-95972000D03*
X110328500Y-96622000D03*
X110328500Y-97272000D03*
X110328500Y-97922000D03*
D23*
X88924000Y-117692000D03*
X88924000Y-116292000D03*
X93472000Y-107148000D03*
X93472000Y-108548000D03*
D30*
X113054000Y-97684000D03*
X113054000Y-95784000D03*
D25*
X95250000Y-116586000D03*
X97250000Y-116586000D03*
D26*
X111530000Y-75026000D03*
X111530000Y-70726000D03*
X127786000Y-81104000D03*
X127786000Y-76804000D03*
D23*
X93472000Y-109942000D03*
X93472000Y-111342000D03*
D31*
X102640000Y-125912000D03*
X102640000Y-123912000D03*
D26*
X116102000Y-75026000D03*
X116102000Y-70726000D03*
D32*
X125952000Y-109915000D03*
X123952000Y-109915000D03*
X125980000Y-107669000D03*
X123980000Y-107669000D03*
D33*
X129794000Y-117348000D03*
X138938000Y-103378000D03*
X83336000Y-77938000D03*
X129794000Y-121412000D03*
X128778000Y-102362000D03*
X83336000Y-78700000D03*
X123444000Y-98044000D03*
X126492000Y-98298000D03*
X113284000Y-98806000D03*
X131826000Y-119380000D03*
X85622000Y-79462000D03*
X131826000Y-117348000D03*
X122174000Y-107442000D03*
X138938000Y-104902000D03*
X138938000Y-100330000D03*
X84098000Y-77938000D03*
X131826000Y-118364000D03*
X138938000Y-101092000D03*
X128778000Y-120396000D03*
X128778000Y-118364000D03*
X82574000Y-78700000D03*
X133858000Y-116332000D03*
X128778000Y-119380000D03*
X134874000Y-116332000D03*
X117348000Y-119888000D03*
X105093500Y-66468664D03*
X84860000Y-78700000D03*
X132842000Y-117348000D03*
X86384000Y-77938000D03*
X86384000Y-79462000D03*
X82574000Y-77938000D03*
X130810000Y-120396000D03*
X128778000Y-121412000D03*
X84860000Y-77938000D03*
X128778000Y-122428000D03*
X96012000Y-124714000D03*
X81050000Y-77938000D03*
X85622000Y-78700000D03*
X84098000Y-78700000D03*
X81812000Y-77938000D03*
X130810000Y-117348000D03*
X81050000Y-79462000D03*
X85622000Y-77938000D03*
X102870000Y-120396000D03*
X108966000Y-111760000D03*
X83336000Y-79462000D03*
X128778000Y-117348000D03*
X124460000Y-95250000D03*
X129794000Y-118364000D03*
X109982000Y-103378000D03*
X81812000Y-79462000D03*
X138938000Y-101854000D03*
X81050000Y-78700000D03*
X96520000Y-112776000D03*
X132842000Y-118364000D03*
X116840000Y-72898000D03*
X129794000Y-119380000D03*
X130810000Y-118364000D03*
X132842000Y-116332000D03*
X108976000Y-97272000D03*
X118172500Y-81339500D03*
X82574000Y-79462000D03*
X138938000Y-102616000D03*
X86384000Y-78700000D03*
X84860000Y-79462000D03*
X84098000Y-79462000D03*
X131826000Y-116332000D03*
X131318000Y-93980000D03*
X129794000Y-120396000D03*
X128778000Y-116332000D03*
X129794000Y-116332000D03*
X122174000Y-116840000D03*
X133858000Y-117348000D03*
X117348000Y-87376000D03*
X130810000Y-116332000D03*
X116586000Y-125730000D03*
X138938000Y-104140000D03*
X130810000Y-119380000D03*
X81812000Y-78700000D03*
D34*
X123698000Y-91694000D03*
X123698000Y-94488000D03*
D33*
X139700000Y-107161626D03*
X133350000Y-102108000D03*
X116423343Y-112745552D03*
X111760000Y-116586000D03*
X137922000Y-109728000D03*
X128524000Y-114554000D03*
X122712448Y-103215343D03*
X117348000Y-86476497D03*
X125476000Y-114554000D03*
X126492000Y-113030000D03*
X126492000Y-114554000D03*
X108966000Y-96264500D03*
X125984000Y-113792000D03*
X117275478Y-81272742D03*
X128016000Y-113792000D03*
X125476000Y-113030000D03*
X130556000Y-114554000D03*
X127508000Y-114554000D03*
X123952000Y-120904000D03*
X128524000Y-113030000D03*
X99354000Y-108672000D03*
X102616000Y-116332000D03*
X107442000Y-112522000D03*
X97536000Y-103378000D03*
X129540000Y-114554000D03*
X129032000Y-113792000D03*
X121158000Y-117094000D03*
X130048000Y-113792000D03*
X121158000Y-105664000D03*
X127508000Y-113030000D03*
X109982000Y-105509500D03*
X117850422Y-71810952D03*
X128016000Y-104902000D03*
X129540000Y-113030000D03*
X130556000Y-113030000D03*
X127000000Y-113792000D03*
X115570000Y-113030000D03*
X88924000Y-82002000D03*
X88162000Y-89622000D03*
X83590000Y-88098000D03*
X85114000Y-81240000D03*
X85876000Y-86574000D03*
X86614000Y-91186000D03*
X82828000Y-88860000D03*
X82828000Y-86574000D03*
X88924000Y-77430000D03*
X82042000Y-90424000D03*
X87376000Y-90424000D03*
X85114000Y-88860000D03*
X87400000Y-86574000D03*
X85852000Y-90424000D03*
X83590000Y-81240000D03*
X88162000Y-78192000D03*
X88924000Y-86574000D03*
X85876000Y-88098000D03*
X87400000Y-89622000D03*
X82042000Y-91186000D03*
X83566000Y-91186000D03*
X85090000Y-90424000D03*
X84352000Y-87336000D03*
X85876000Y-87336000D03*
X85114000Y-82002000D03*
X86614000Y-90424000D03*
X86638000Y-82002000D03*
X88162000Y-87336000D03*
X86638000Y-87336000D03*
X84352000Y-89622000D03*
X84352000Y-82002000D03*
X83590000Y-87336000D03*
X82066000Y-88098000D03*
X85876000Y-82002000D03*
X88924000Y-78192000D03*
X88924000Y-81240000D03*
X87400000Y-81240000D03*
X82066000Y-89622000D03*
X88924000Y-79716000D03*
X85114000Y-86574000D03*
X85114000Y-87336000D03*
X88924000Y-87336000D03*
X82828000Y-82002000D03*
X87376000Y-91186000D03*
X82804000Y-91186000D03*
X82066000Y-87336000D03*
X82066000Y-88860000D03*
X82828000Y-89622000D03*
X85876000Y-89622000D03*
X85114000Y-88098000D03*
X88138000Y-91186000D03*
X88162000Y-80478000D03*
X88924000Y-78954000D03*
X84328000Y-91186000D03*
X88924000Y-80478000D03*
X88162000Y-81240000D03*
X84328000Y-90424000D03*
X83590000Y-88860000D03*
X85876000Y-81240000D03*
X83566000Y-90424000D03*
X82066000Y-82002000D03*
X85852000Y-91186000D03*
X88162000Y-88098000D03*
X82066000Y-86574000D03*
X82066000Y-81240000D03*
X88162000Y-86574000D03*
X88900000Y-90424000D03*
X82828000Y-87336000D03*
X83590000Y-82002000D03*
X88162000Y-88860000D03*
X85090000Y-91186000D03*
X88162000Y-77430000D03*
X86638000Y-89622000D03*
X85114000Y-89622000D03*
X82828000Y-81240000D03*
X87400000Y-82002000D03*
X88138000Y-90424000D03*
X87400000Y-88860000D03*
X86638000Y-88098000D03*
X83590000Y-86574000D03*
X86638000Y-86574000D03*
X88924000Y-88098000D03*
X86638000Y-81240000D03*
X87400000Y-88098000D03*
X88900000Y-91186000D03*
X84352000Y-81240000D03*
X88924000Y-89622000D03*
X82804000Y-90424000D03*
X88162000Y-78954000D03*
X85876000Y-88860000D03*
X87400000Y-87336000D03*
X84352000Y-88860000D03*
X83590000Y-89622000D03*
X82828000Y-88098000D03*
X88924000Y-88860000D03*
X84352000Y-86574000D03*
X88162000Y-79716000D03*
X86638000Y-88860000D03*
X88162000Y-82002000D03*
X84352000Y-88098000D03*
X117156067Y-112223804D03*
X130375082Y-98478918D03*
X129244418Y-99609582D03*
X98806000Y-118618000D03*
X115454250Y-113922023D03*
X110236000Y-107442000D03*
X97536000Y-105410000D03*
X97536000Y-107442000D03*
X109474000Y-107950000D03*
X100425703Y-96933780D03*
D34*
X111720000Y-73308502D03*
D33*
X100608000Y-92670000D03*
D34*
X114696000Y-73620000D03*
D33*
X96393000Y-97409000D03*
X121973622Y-112976378D03*
X104013000Y-115189000D03*
X108204000Y-119380000D03*
X96393000Y-98679000D03*
X104035184Y-116436816D03*
X107420868Y-119822500D03*
X123444000Y-112522000D03*
X102616000Y-73152000D03*
X122428000Y-102362000D03*
X119888000Y-81534000D03*
X120142000Y-105410000D03*
X119888000Y-74676000D03*
X112268000Y-111252000D03*
X102195771Y-110808367D03*
X120650000Y-99097500D03*
X120607513Y-91656500D03*
X111252000Y-103253000D03*
X114870500Y-112014000D03*
X105918000Y-102553500D03*
X114870500Y-110998000D03*
X114870500Y-109982000D03*
X115316000Y-105410000D03*
X114300000Y-105410000D03*
X114870500Y-108966000D03*
X107950000Y-114808000D03*
X112116664Y-112406157D03*
X108077000Y-107569000D03*
X122864373Y-110280870D03*
X121920000Y-110236000D03*
X113184433Y-111935496D03*
X113856185Y-112607248D03*
D35*
X116102000Y-70726000D02*
X116102000Y-68350000D01*
D36*
X84606000Y-116562000D02*
X85090000Y-116078000D01*
X87526000Y-116078000D02*
X87626000Y-116178000D01*
X84606000Y-116862000D02*
X84606000Y-116562000D01*
X108976000Y-97272000D02*
X107848424Y-97272000D01*
X123571000Y-104648000D02*
X123571000Y-101473000D01*
D37*
X88924000Y-113882000D02*
X90514000Y-113882000D01*
X94272000Y-111976000D02*
X93472000Y-112776000D01*
D36*
X110328500Y-97272000D02*
X108976000Y-97272000D01*
D35*
X86051795Y-95718000D02*
X84606000Y-95718000D01*
D36*
X88924000Y-116292000D02*
X87740000Y-116292000D01*
X103394000Y-72042000D02*
X103340000Y-72096000D01*
D37*
X126111000Y-98679000D02*
X126492000Y-98298000D01*
X93472000Y-112776000D02*
X91440000Y-114808000D01*
X93472000Y-108548000D02*
X94272000Y-109348000D01*
D36*
X85090000Y-116078000D02*
X87526000Y-116078000D01*
D37*
X125476000Y-101346000D02*
X126111000Y-100711000D01*
X120142000Y-101437000D02*
X120233000Y-101346000D01*
X126111000Y-100711000D02*
X126111000Y-99698000D01*
D38*
X133120000Y-79462000D02*
X133120000Y-75144000D01*
D37*
X123698000Y-101346000D02*
X125476000Y-101346000D01*
D36*
X87740000Y-116292000D02*
X87626000Y-116178000D01*
D37*
X126111000Y-99698000D02*
X126111000Y-98679000D01*
X93472000Y-111342000D02*
X93472000Y-112776000D01*
D36*
X110328500Y-97272000D02*
X112642000Y-97272000D01*
D37*
X97536000Y-124714000D02*
X97536000Y-123828000D01*
D35*
X86051795Y-95718000D02*
X86051795Y-93510205D01*
X106958000Y-70708000D02*
X106958000Y-68286000D01*
D36*
X112642000Y-97272000D02*
X113054000Y-97684000D01*
D37*
X97536000Y-125984000D02*
X97536000Y-124714000D01*
X94272000Y-109348000D02*
X94272000Y-111976000D01*
D36*
X105898424Y-95322000D02*
X104603500Y-95322000D01*
X107848424Y-97272000D02*
X105898424Y-95322000D01*
D38*
X133120000Y-75144000D02*
X131596000Y-73620000D01*
D36*
X122301000Y-99698000D02*
X126111000Y-99698000D01*
X123571000Y-101473000D02*
X123698000Y-101346000D01*
D35*
X111530000Y-70726000D02*
X111530000Y-68286000D01*
D37*
X90514000Y-113882000D02*
X91440000Y-114808000D01*
D35*
X127786000Y-76804000D02*
X127786000Y-73620000D01*
D37*
X97536000Y-124714000D02*
X96012000Y-124714000D01*
X120233000Y-101346000D02*
X123698000Y-101346000D01*
D35*
X116102000Y-68350000D02*
X116078000Y-68326000D01*
D36*
X103394000Y-70064000D02*
X103394000Y-72042000D01*
D37*
X123698000Y-94488000D02*
X123698000Y-91694000D01*
D36*
X138403626Y-107161626D02*
X133350000Y-102108000D01*
X139700000Y-107161626D02*
X138403626Y-107161626D01*
X116332000Y-112654209D02*
X116332000Y-106452000D01*
X118110000Y-103044000D02*
X117134000Y-102068000D01*
X116423343Y-112745552D02*
X116332000Y-112654209D01*
X118110000Y-104674000D02*
X118110000Y-103044000D01*
X116332000Y-106452000D02*
X118110000Y-104674000D01*
D37*
X120142000Y-103337000D02*
X121879000Y-103337000D01*
D36*
X110328500Y-96622000D02*
X109323500Y-96622000D01*
X112216000Y-96622000D02*
X113054000Y-95784000D01*
X125980000Y-109887000D02*
X125952000Y-109915000D01*
D37*
X122301000Y-103626791D02*
X122712448Y-103215343D01*
X122301000Y-104648000D02*
X122301000Y-103626791D01*
D36*
X110328500Y-96622000D02*
X110328500Y-95972000D01*
X125980000Y-107669000D02*
X125980000Y-109887000D01*
D37*
X121879000Y-103337000D02*
X122301000Y-103759000D01*
D36*
X110328500Y-96622000D02*
X112216000Y-96622000D01*
X109323500Y-96622000D02*
X108966000Y-96264500D01*
D37*
X122301000Y-103759000D02*
X122301000Y-104648000D01*
X125980000Y-106938000D02*
X128016000Y-104902000D01*
X125980000Y-107669000D02*
X125980000Y-106938000D01*
D36*
X115570000Y-106172000D02*
X117134000Y-104608000D01*
X117134000Y-104608000D02*
X117134000Y-104100000D01*
X115570000Y-113030000D02*
X115570000Y-106172000D01*
D35*
X127786000Y-81104000D02*
X127786000Y-83780000D01*
D36*
X118618000Y-101520000D02*
X117134000Y-100036000D01*
X117094000Y-112161737D02*
X117094000Y-106934000D01*
X117094000Y-106934000D02*
X118618000Y-105410000D01*
X117156067Y-112223804D02*
X117094000Y-112161737D01*
X118618000Y-105410000D02*
X118618000Y-101520000D01*
X129244418Y-99609582D02*
X130375082Y-98478918D01*
D37*
X88924000Y-112482000D02*
X91226000Y-112482000D01*
X91226000Y-112482000D02*
X91440000Y-112268000D01*
X93258000Y-109728000D02*
X93472000Y-109942000D01*
X91440000Y-109728000D02*
X93258000Y-109728000D01*
X91440000Y-107188000D02*
X93432000Y-107188000D01*
X93432000Y-107188000D02*
X93472000Y-107148000D01*
D36*
X98806000Y-118618000D02*
X108458000Y-118618000D01*
X113538000Y-113538000D02*
X115070227Y-113538000D01*
X115070227Y-113538000D02*
X115454250Y-113922023D01*
X108458000Y-118618000D02*
X113538000Y-113538000D01*
X108777000Y-107377000D02*
X108904000Y-107250000D01*
X107656950Y-108979000D02*
X108777000Y-107858950D01*
X102883000Y-108979000D02*
X107656950Y-108979000D01*
X108777000Y-107858950D02*
X108777000Y-107377000D01*
X108904000Y-107250000D02*
X110044000Y-107250000D01*
X97536000Y-105410000D02*
X99314000Y-105410000D01*
X99314000Y-105410000D02*
X102883000Y-108979000D01*
X110044000Y-107250000D02*
X110236000Y-107442000D01*
X102362000Y-109728000D02*
X107696000Y-109728000D01*
X97536000Y-107442000D02*
X100076000Y-107442000D01*
X100076000Y-107442000D02*
X102362000Y-109728000D01*
X107696000Y-109728000D02*
X109474000Y-107950000D01*
D39*
X90424000Y-117856000D02*
X89916000Y-118364000D01*
X85876000Y-119658000D02*
X86614000Y-120396000D01*
X88646000Y-120396000D02*
X89916000Y-119126000D01*
X86614000Y-120396000D02*
X88646000Y-120396000D01*
X85876000Y-118578000D02*
X85876000Y-119658000D01*
D36*
X84606000Y-118262000D02*
X85560000Y-118262000D01*
D39*
X89916000Y-119126000D02*
X89916000Y-118364000D01*
X95234000Y-118618000D02*
X95234000Y-118602000D01*
D36*
X85560000Y-118262000D02*
X85876000Y-118578000D01*
D39*
X94488000Y-117856000D02*
X90424000Y-117856000D01*
X95234000Y-118602000D02*
X94488000Y-117856000D01*
X90295604Y-117348000D02*
X89951604Y-117692000D01*
X94488000Y-117348000D02*
X90295604Y-117348000D01*
X87712000Y-117692000D02*
X87626000Y-117778000D01*
X88924000Y-117692000D02*
X87712000Y-117692000D01*
X95250000Y-116586000D02*
X94488000Y-117348000D01*
X89951604Y-117692000D02*
X88924000Y-117692000D01*
D37*
X98830000Y-122428000D02*
X97536000Y-122428000D01*
X100100000Y-123698000D02*
X98830000Y-122428000D01*
D36*
X102108000Y-124460000D02*
X100862000Y-124460000D01*
X102640000Y-123912000D02*
X102640000Y-123928000D01*
X100862000Y-124460000D02*
X100100000Y-123698000D01*
X102640000Y-123928000D02*
X102108000Y-124460000D01*
X100838000Y-124968000D02*
X100100000Y-125706000D01*
X101854000Y-124968000D02*
X100838000Y-124968000D01*
D37*
X98914000Y-127384000D02*
X97536000Y-127384000D01*
D36*
X102640000Y-125912000D02*
X102640000Y-125754000D01*
D37*
X100100000Y-126198000D02*
X98914000Y-127384000D01*
D36*
X100100000Y-125706000D02*
X100100000Y-126198000D01*
X102640000Y-125754000D02*
X101854000Y-124968000D01*
D35*
X102894000Y-67524000D02*
X104854000Y-69484000D01*
X104854000Y-73158000D02*
X106704000Y-75008000D01*
X104854000Y-69484000D02*
X104854000Y-73158000D01*
X111530000Y-73498502D02*
X111530000Y-75026000D01*
X111720000Y-73308502D02*
X111530000Y-73498502D01*
X114696000Y-73620000D02*
X116102000Y-75026000D01*
D36*
X102394000Y-71642000D02*
X101940000Y-72096000D01*
X102394000Y-70064000D02*
X102394000Y-71642000D01*
X115570000Y-119380000D02*
X108204000Y-119380000D01*
X121973622Y-112976378D02*
X115570000Y-119380000D01*
X115886000Y-120080000D02*
X107678368Y-120080000D01*
X107678368Y-120080000D02*
X107420868Y-119822500D01*
X123444000Y-112522000D02*
X115886000Y-120080000D01*
X111824367Y-110808367D02*
X112268000Y-111252000D01*
X102195771Y-110808367D02*
X111824367Y-110808367D01*
X111252000Y-108395500D02*
X114870500Y-112014000D01*
X111252000Y-103253000D02*
X111252000Y-108395500D01*
X112014000Y-102997000D02*
X112014000Y-108141500D01*
X111570500Y-102553500D02*
X112014000Y-102997000D01*
X105918000Y-102553500D02*
X111570500Y-102553500D01*
X112014000Y-108141500D02*
X114870500Y-110998000D01*
X104394000Y-105664000D02*
X103632000Y-105664000D01*
X102362000Y-104394000D02*
X102362000Y-98298000D01*
X102362000Y-98298000D02*
X103388000Y-97272000D01*
X103388000Y-97272000D02*
X104603500Y-97272000D01*
X103632000Y-105664000D02*
X102362000Y-104394000D01*
X105156000Y-101854000D02*
X104648000Y-101346000D01*
X114870500Y-109982000D02*
X112776000Y-107887500D01*
X112776000Y-107887500D02*
X112776000Y-102870000D01*
X112776000Y-102870000D02*
X111760000Y-101854000D01*
X111760000Y-101854000D02*
X105156000Y-101854000D01*
X104648000Y-101346000D02*
X104672000Y-101322000D01*
X104672000Y-101322000D02*
X104672000Y-100036000D01*
X101600000Y-98171000D02*
X103149000Y-96622000D01*
X103149000Y-96622000D02*
X104603500Y-96622000D01*
X103632000Y-106934000D02*
X101600000Y-104902000D01*
X104394000Y-106934000D02*
X103632000Y-106934000D01*
X101600000Y-104902000D02*
X101600000Y-98171000D01*
X102910000Y-95972000D02*
X100838000Y-98044000D01*
X103632000Y-108204000D02*
X104394000Y-108204000D01*
X100838000Y-98044000D02*
X100838000Y-105410000D01*
X100838000Y-105410000D02*
X103632000Y-108204000D01*
X104603500Y-95972000D02*
X102910000Y-95972000D01*
X115316000Y-102362000D02*
X112990000Y-100036000D01*
X112990000Y-100036000D02*
X111022000Y-100036000D01*
X115316000Y-105410000D02*
X115316000Y-102362000D01*
X114300000Y-102362000D02*
X112776000Y-100838000D01*
X110274000Y-100838000D02*
X109752000Y-100316000D01*
X109752000Y-100316000D02*
X109752000Y-100036000D01*
X112776000Y-100838000D02*
X110274000Y-100838000D01*
X114300000Y-105410000D02*
X114300000Y-102362000D01*
X113538000Y-102616000D02*
X112276000Y-101354000D01*
X113538000Y-107633500D02*
X113538000Y-102616000D01*
X112276000Y-101354000D02*
X109482000Y-101354000D01*
X108482000Y-100354000D02*
X108482000Y-100036000D01*
X114870500Y-108966000D02*
X113538000Y-107633500D01*
X109482000Y-101354000D02*
X108482000Y-100354000D01*
X107950000Y-114808000D02*
X109714821Y-114808000D01*
X109714821Y-114808000D02*
X112116664Y-112406157D01*
X108077000Y-107569000D02*
X104902000Y-104394000D01*
X103124000Y-103886000D02*
X103632000Y-104394000D01*
X103627000Y-97922000D02*
X103124000Y-98425000D01*
X104603500Y-97922000D02*
X103627000Y-97922000D01*
X104902000Y-104394000D02*
X104394000Y-104394000D01*
X103124000Y-98425000D02*
X103124000Y-103886000D01*
X103632000Y-104394000D02*
X104394000Y-104394000D01*
X126111000Y-105791000D02*
X124968000Y-106934000D01*
X124968000Y-108899000D02*
X123952000Y-109915000D01*
X123230243Y-109915000D02*
X122864373Y-110280870D01*
X126111000Y-104648000D02*
X126111000Y-105791000D01*
X124968000Y-106934000D02*
X124968000Y-108899000D01*
X123952000Y-109915000D02*
X123230243Y-109915000D01*
X123980000Y-108176000D02*
X121920000Y-110236000D01*
X123980000Y-107669000D02*
X123980000Y-108176000D01*
X123980000Y-107669000D02*
X123980000Y-106906000D01*
X123980000Y-106906000D02*
X124841000Y-106045000D01*
X124841000Y-106045000D02*
X124841000Y-104648000D01*
D40*
X108136695Y-117336787D02*
X98082013Y-117336787D01*
X113184433Y-111935496D02*
X113184433Y-112289049D01*
D36*
X98000787Y-117336787D02*
X97250000Y-116586000D01*
D40*
X113184433Y-112289049D02*
X108136695Y-117336787D01*
X108323093Y-117786787D02*
X98082013Y-117786787D01*
X113502632Y-112607248D02*
X108323093Y-117786787D01*
D36*
X97234000Y-118618000D02*
X98015213Y-117836787D01*
D40*
X113856185Y-112607248D02*
X113502632Y-112607248D01*
G04 #@! TA.AperFunction,Conductor*
G36*
X107889463Y-61483134D02*
G01*
X109028577Y-61515948D01*
X109032724Y-61516136D01*
X110170093Y-61586697D01*
X110174258Y-61587025D01*
X111308630Y-61695254D01*
X111312782Y-61695719D01*
X112442983Y-61841503D01*
X112447118Y-61842106D01*
X113571860Y-62025282D01*
X113575972Y-62026022D01*
X113849121Y-62079859D01*
X114694035Y-62246390D01*
X114698083Y-62247258D01*
X114975901Y-62311653D01*
X115808220Y-62504575D01*
X115812274Y-62505586D01*
X116302077Y-62636370D01*
X116913279Y-62799570D01*
X116917255Y-62800703D01*
X117566953Y-62997477D01*
X118007885Y-63131022D01*
X118011863Y-63132299D01*
X119090927Y-63498592D01*
X119094854Y-63499998D01*
X120161226Y-63901882D01*
X120165076Y-63903406D01*
X121217557Y-64340434D01*
X121221336Y-64342078D01*
X122258716Y-64813747D01*
X122262462Y-64815525D01*
X122577397Y-64971518D01*
X123283665Y-65321345D01*
X123287377Y-65323262D01*
X124291165Y-65862616D01*
X124294807Y-65864651D01*
X125280228Y-66437030D01*
X125283738Y-66439146D01*
X125859185Y-66799424D01*
X126249656Y-67043892D01*
X126253160Y-67046168D01*
X127198421Y-67682555D01*
X127201842Y-67684941D01*
X128125556Y-68352370D01*
X128128870Y-68354850D01*
X129029895Y-69052498D01*
X129033150Y-69055105D01*
X129220485Y-69210358D01*
X129910575Y-69782265D01*
X129913747Y-69784984D01*
X130766553Y-70540810D01*
X130769627Y-70543626D01*
X131502096Y-71237500D01*
X131596919Y-71327327D01*
X131599904Y-71330250D01*
X132400751Y-72140941D01*
X132403638Y-72143962D01*
X133177184Y-72980780D01*
X133179968Y-72983895D01*
X133566170Y-73430525D01*
X133878959Y-73792255D01*
X133925292Y-73845838D01*
X133927966Y-73849035D01*
X133989968Y-73925737D01*
X134603541Y-74684791D01*
X134630809Y-74750342D01*
X134618308Y-74820230D01*
X134570008Y-74872265D01*
X134505551Y-74890000D01*
X120868674Y-74890000D01*
X120800553Y-74869998D01*
X120754060Y-74816342D01*
X120743364Y-74750829D01*
X120750539Y-74682565D01*
X120751229Y-74676000D01*
X120732365Y-74496525D01*
X120676599Y-74324893D01*
X120586367Y-74168607D01*
X120465613Y-74034496D01*
X120413091Y-73996336D01*
X120324957Y-73932303D01*
X120324956Y-73932302D01*
X120319615Y-73928422D01*
X120313587Y-73925738D01*
X120313585Y-73925737D01*
X120160783Y-73857705D01*
X120160781Y-73857705D01*
X120154752Y-73855020D01*
X120059106Y-73834690D01*
X119984689Y-73818872D01*
X119984685Y-73818872D01*
X119978232Y-73817500D01*
X119797768Y-73817500D01*
X119791315Y-73818872D01*
X119791311Y-73818872D01*
X119716894Y-73834690D01*
X119621248Y-73855020D01*
X119615219Y-73857704D01*
X119615217Y-73857705D01*
X119462416Y-73925737D01*
X119462414Y-73925738D01*
X119456386Y-73928422D01*
X119451045Y-73932302D01*
X119451044Y-73932303D01*
X119315731Y-74030613D01*
X119315729Y-74030615D01*
X119310387Y-74034496D01*
X119189633Y-74168607D01*
X119099401Y-74324893D01*
X119043635Y-74496525D01*
X119024771Y-74676000D01*
X119025461Y-74682565D01*
X119032636Y-74750829D01*
X119019864Y-74820668D01*
X118971362Y-74872514D01*
X118907326Y-74890000D01*
X118260000Y-74890000D01*
X118191879Y-74869998D01*
X118145386Y-74816342D01*
X118134000Y-74764000D01*
X118134000Y-72706266D01*
X118154002Y-72638145D01*
X118208751Y-72591159D01*
X118276007Y-72561215D01*
X118276009Y-72561214D01*
X118282037Y-72558530D01*
X118348150Y-72510496D01*
X118422691Y-72456339D01*
X118422693Y-72456337D01*
X118428035Y-72452456D01*
X118471285Y-72404422D01*
X118544370Y-72323253D01*
X118544371Y-72323252D01*
X118548789Y-72318345D01*
X118639021Y-72162059D01*
X118681236Y-72032133D01*
X118692747Y-71996706D01*
X118692747Y-71996705D01*
X118694787Y-71990427D01*
X118713651Y-71810952D01*
X118694787Y-71631477D01*
X118688117Y-71610947D01*
X118641063Y-71466130D01*
X118639021Y-71459845D01*
X118548789Y-71303559D01*
X118495392Y-71244255D01*
X118432457Y-71174359D01*
X118432456Y-71174358D01*
X118428035Y-71169448D01*
X118282037Y-71063374D01*
X118276009Y-71060690D01*
X118276007Y-71060689D01*
X118208751Y-71030745D01*
X118154655Y-70984765D01*
X118134000Y-70915638D01*
X118134000Y-68540000D01*
X105388424Y-68540000D01*
X105320303Y-68519998D01*
X105299329Y-68503095D01*
X104289405Y-67493171D01*
X104255379Y-67430859D01*
X104252500Y-67404076D01*
X104252500Y-66625866D01*
X104245745Y-66563684D01*
X104194615Y-66427295D01*
X104107261Y-66310739D01*
X103990705Y-66223385D01*
X103854316Y-66172255D01*
X103792134Y-66165500D01*
X101995866Y-66165500D01*
X101933684Y-66172255D01*
X101797295Y-66223385D01*
X101680739Y-66310739D01*
X101593385Y-66427295D01*
X101542255Y-66563684D01*
X101535500Y-66625866D01*
X101535500Y-68414000D01*
X101515498Y-68482121D01*
X101461842Y-68528614D01*
X101409500Y-68540000D01*
X101116000Y-68540000D01*
X101116000Y-75780000D01*
X101095998Y-75848121D01*
X101042342Y-75894614D01*
X100990000Y-75906000D01*
X87146000Y-75906000D01*
X87146000Y-79844000D01*
X87125998Y-79912121D01*
X87072342Y-79958614D01*
X87020000Y-79970000D01*
X81050000Y-79970000D01*
X81050000Y-83182244D01*
X81029998Y-83250365D01*
X80976342Y-83296858D01*
X80906068Y-83306962D01*
X80851035Y-83284967D01*
X80841782Y-83278394D01*
X80830246Y-83284882D01*
X79839940Y-84275188D01*
X79832326Y-84289132D01*
X79832457Y-84290965D01*
X79836708Y-84297580D01*
X80831650Y-85292522D01*
X80844030Y-85299282D01*
X80848490Y-85295943D01*
X80915010Y-85271131D01*
X80984384Y-85286222D01*
X81034587Y-85336424D01*
X81050000Y-85396810D01*
X81050000Y-90638000D01*
X81117308Y-90638000D01*
X81185429Y-90658002D01*
X81231922Y-90711658D01*
X81237140Y-90725061D01*
X81250463Y-90766065D01*
X81252491Y-90837031D01*
X81250465Y-90843929D01*
X81197635Y-91006525D01*
X81178771Y-91186000D01*
X81197635Y-91365475D01*
X81199675Y-91371753D01*
X81199675Y-91371754D01*
X81230825Y-91467625D01*
X81253401Y-91537107D01*
X81343633Y-91693393D01*
X81348051Y-91698300D01*
X81348052Y-91698301D01*
X81359360Y-91710860D01*
X81464387Y-91827504D01*
X81469729Y-91831385D01*
X81469731Y-91831387D01*
X81595030Y-91922422D01*
X81610385Y-91933578D01*
X81616413Y-91936262D01*
X81616415Y-91936263D01*
X81660999Y-91956113D01*
X81775248Y-92006980D01*
X81863508Y-92025740D01*
X81945311Y-92043128D01*
X81945315Y-92043128D01*
X81951768Y-92044500D01*
X82132232Y-92044500D01*
X82138685Y-92043128D01*
X82138689Y-92043128D01*
X82220492Y-92025740D01*
X82308752Y-92006980D01*
X82314783Y-92004295D01*
X82371751Y-91978931D01*
X82442118Y-91969497D01*
X82474249Y-91978931D01*
X82531217Y-92004295D01*
X82537248Y-92006980D01*
X82625508Y-92025740D01*
X82707311Y-92043128D01*
X82707315Y-92043128D01*
X82713768Y-92044500D01*
X82894232Y-92044500D01*
X82900685Y-92043128D01*
X82900689Y-92043128D01*
X82982492Y-92025740D01*
X83070752Y-92006980D01*
X83076783Y-92004295D01*
X83133751Y-91978931D01*
X83204118Y-91969497D01*
X83236249Y-91978931D01*
X83293217Y-92004295D01*
X83299248Y-92006980D01*
X83387508Y-92025740D01*
X83469311Y-92043128D01*
X83469315Y-92043128D01*
X83475768Y-92044500D01*
X83656232Y-92044500D01*
X83662685Y-92043128D01*
X83662689Y-92043128D01*
X83744492Y-92025740D01*
X83832752Y-92006980D01*
X83838783Y-92004295D01*
X83895751Y-91978931D01*
X83966118Y-91969497D01*
X83998249Y-91978931D01*
X84055217Y-92004295D01*
X84061248Y-92006980D01*
X84149508Y-92025740D01*
X84231311Y-92043128D01*
X84231315Y-92043128D01*
X84237768Y-92044500D01*
X84418232Y-92044500D01*
X84424685Y-92043128D01*
X84424689Y-92043128D01*
X84506492Y-92025740D01*
X84594752Y-92006980D01*
X84600783Y-92004295D01*
X84657751Y-91978931D01*
X84728118Y-91969497D01*
X84760249Y-91978931D01*
X84817217Y-92004295D01*
X84823248Y-92006980D01*
X84911508Y-92025740D01*
X84993311Y-92043128D01*
X84993315Y-92043128D01*
X84999768Y-92044500D01*
X85180232Y-92044500D01*
X85186685Y-92043128D01*
X85186689Y-92043128D01*
X85268492Y-92025740D01*
X85356752Y-92006980D01*
X85362783Y-92004295D01*
X85419751Y-91978931D01*
X85490118Y-91969497D01*
X85522249Y-91978931D01*
X85579217Y-92004295D01*
X85585248Y-92006980D01*
X85673508Y-92025740D01*
X85755311Y-92043128D01*
X85755315Y-92043128D01*
X85761768Y-92044500D01*
X85942232Y-92044500D01*
X85948685Y-92043128D01*
X85948689Y-92043128D01*
X86030492Y-92025740D01*
X86118752Y-92006980D01*
X86124783Y-92004295D01*
X86181751Y-91978931D01*
X86252118Y-91969497D01*
X86284249Y-91978931D01*
X86341217Y-92004295D01*
X86347248Y-92006980D01*
X86435508Y-92025740D01*
X86517311Y-92043128D01*
X86517315Y-92043128D01*
X86523768Y-92044500D01*
X86704232Y-92044500D01*
X86710685Y-92043128D01*
X86710689Y-92043128D01*
X86792492Y-92025740D01*
X86880752Y-92006980D01*
X86886783Y-92004295D01*
X86943751Y-91978931D01*
X87014118Y-91969497D01*
X87046249Y-91978931D01*
X87103217Y-92004295D01*
X87109248Y-92006980D01*
X87285768Y-92044500D01*
X87288496Y-92044500D01*
X87352824Y-92070963D01*
X87393456Y-92129183D01*
X87400000Y-92169263D01*
X87400000Y-94349679D01*
X87379998Y-94417800D01*
X87326342Y-94464293D01*
X87256068Y-94474397D01*
X87187667Y-94441454D01*
X87133089Y-94390112D01*
X87125855Y-94384254D01*
X86924936Y-94244872D01*
X86916910Y-94240144D01*
X86697605Y-94131995D01*
X86688972Y-94128507D01*
X86456083Y-94053958D01*
X86447033Y-94051785D01*
X86205686Y-94012480D01*
X86196397Y-94011668D01*
X85951909Y-94008467D01*
X85942598Y-94009037D01*
X85700317Y-94042010D01*
X85691198Y-94043948D01*
X85456463Y-94112367D01*
X85447710Y-94115639D01*
X85225664Y-94218004D01*
X85217509Y-94222524D01*
X85050263Y-94332175D01*
X85041125Y-94342917D01*
X85045698Y-94352693D01*
X86321910Y-95628905D01*
X86355936Y-95691217D01*
X86350871Y-95762032D01*
X86321910Y-95807095D01*
X86140890Y-95988115D01*
X86078578Y-96022141D01*
X86007763Y-96017076D01*
X85962700Y-95988115D01*
X84688623Y-94714038D01*
X84675315Y-94706771D01*
X84665276Y-94713893D01*
X84660376Y-94719784D01*
X84654963Y-94727373D01*
X84528117Y-94936409D01*
X84523879Y-94944726D01*
X84429324Y-95170214D01*
X84426367Y-95179052D01*
X84366179Y-95416042D01*
X84364558Y-95425232D01*
X84340062Y-95668510D01*
X84339817Y-95677835D01*
X84351549Y-95922064D01*
X84352686Y-95931324D01*
X84400388Y-96171143D01*
X84402877Y-96180118D01*
X84485503Y-96410250D01*
X84489300Y-96418778D01*
X84605029Y-96634160D01*
X84610040Y-96642027D01*
X84718007Y-96786611D01*
X84742739Y-96853160D01*
X84727565Y-96922517D01*
X84677303Y-96972659D01*
X84617049Y-96988000D01*
X81812000Y-96988000D01*
X81812000Y-109562000D01*
X81791998Y-109630121D01*
X81738342Y-109676614D01*
X81686000Y-109688000D01*
X75901868Y-109688000D01*
X75833747Y-109667998D01*
X75785333Y-109609913D01*
X75544067Y-109023107D01*
X75353269Y-108559047D01*
X75351753Y-108555178D01*
X75342158Y-108529445D01*
X75339143Y-108521359D01*
X78127345Y-108521359D01*
X78136058Y-108532879D01*
X78224545Y-108597760D01*
X78232464Y-108602708D01*
X78448836Y-108716547D01*
X78457410Y-108720275D01*
X78688241Y-108800885D01*
X78697250Y-108803299D01*
X78937477Y-108848908D01*
X78946734Y-108849962D01*
X79191066Y-108859563D01*
X79200379Y-108859237D01*
X79443437Y-108832618D01*
X79452614Y-108830917D01*
X79689066Y-108768665D01*
X79697885Y-108765628D01*
X79922543Y-108669107D01*
X79930815Y-108664800D01*
X80138736Y-108536135D01*
X80140579Y-108534796D01*
X80147997Y-108523541D01*
X80141933Y-108513184D01*
X79148771Y-107520022D01*
X79134827Y-107512408D01*
X79132994Y-107512539D01*
X79126379Y-107516790D01*
X78134003Y-108509166D01*
X78127345Y-108521359D01*
X75339143Y-108521359D01*
X75130195Y-107961011D01*
X74953616Y-107487469D01*
X74952221Y-107483531D01*
X74826150Y-107107835D01*
X77423981Y-107107835D01*
X77435713Y-107352064D01*
X77436850Y-107361324D01*
X77484552Y-107601143D01*
X77487041Y-107610118D01*
X77569667Y-107840250D01*
X77573464Y-107848778D01*
X77689193Y-108064160D01*
X77694204Y-108072027D01*
X77751132Y-108148263D01*
X77762390Y-108156712D01*
X77774809Y-108149940D01*
X78763937Y-107160812D01*
X78770315Y-107149132D01*
X79500367Y-107149132D01*
X79500498Y-107150965D01*
X79504749Y-107157580D01*
X80499691Y-108152522D01*
X80512071Y-108159282D01*
X80520412Y-108153038D01*
X80638659Y-107969202D01*
X80643106Y-107961011D01*
X80743531Y-107738076D01*
X80746726Y-107729298D01*
X80813094Y-107493973D01*
X80814952Y-107484844D01*
X80846003Y-107240770D01*
X80846484Y-107234483D01*
X80848665Y-107151160D01*
X80848514Y-107144851D01*
X80830280Y-106899486D01*
X80828903Y-106890280D01*
X80774938Y-106651786D01*
X80772214Y-106642875D01*
X80683592Y-106414983D01*
X80679578Y-106406567D01*
X80558243Y-106194276D01*
X80553033Y-106186553D01*
X80521746Y-106146865D01*
X80509822Y-106138395D01*
X80498287Y-106144882D01*
X79507981Y-107135188D01*
X79500367Y-107149132D01*
X78770315Y-107149132D01*
X78771551Y-107146868D01*
X78771420Y-107145035D01*
X78767169Y-107138420D01*
X77772787Y-106144038D01*
X77759479Y-106136771D01*
X77749440Y-106143893D01*
X77744540Y-106149784D01*
X77739127Y-106157373D01*
X77612281Y-106366409D01*
X77608043Y-106374726D01*
X77513488Y-106600214D01*
X77510531Y-106609052D01*
X77450343Y-106846042D01*
X77448722Y-106855232D01*
X77424226Y-107098510D01*
X77423981Y-107107835D01*
X74826150Y-107107835D01*
X74722806Y-106799866D01*
X74589677Y-106403138D01*
X74588421Y-106399176D01*
X74587886Y-106397385D01*
X74409270Y-105800133D01*
X74401131Y-105772917D01*
X78125289Y-105772917D01*
X78129862Y-105782693D01*
X79123147Y-106775978D01*
X79137091Y-106783592D01*
X79138924Y-106783461D01*
X79145539Y-106779210D01*
X80138447Y-105786302D01*
X80144831Y-105774612D01*
X80135419Y-105762502D01*
X80009103Y-105674873D01*
X80001075Y-105670145D01*
X79781769Y-105561995D01*
X79773136Y-105558507D01*
X79540247Y-105483958D01*
X79531197Y-105481785D01*
X79289850Y-105442480D01*
X79280561Y-105441668D01*
X79036073Y-105438467D01*
X79026762Y-105439037D01*
X78784481Y-105472010D01*
X78775362Y-105473948D01*
X78540627Y-105542367D01*
X78531874Y-105545639D01*
X78309828Y-105648004D01*
X78301673Y-105652524D01*
X78134427Y-105762175D01*
X78125289Y-105772917D01*
X74401131Y-105772917D01*
X74261921Y-105307430D01*
X74260790Y-105303408D01*
X74129701Y-104805500D01*
X73970640Y-104201346D01*
X73969660Y-104197350D01*
X73716224Y-103086339D01*
X73715363Y-103082256D01*
X73498897Y-101963420D01*
X73498172Y-101959305D01*
X73377269Y-101200244D01*
X73318926Y-100833949D01*
X73318340Y-100829833D01*
X73268255Y-100430562D01*
X73176501Y-99699123D01*
X73176050Y-99694971D01*
X73161909Y-99541073D01*
X73071781Y-98560218D01*
X73071468Y-98556066D01*
X73068159Y-98499525D01*
X73004877Y-97418431D01*
X73004702Y-97414266D01*
X73004480Y-97405475D01*
X72992979Y-96951142D01*
X72975866Y-96275066D01*
X72975830Y-96270888D01*
X72977135Y-96104703D01*
X73860743Y-96104703D01*
X73861302Y-96108947D01*
X73861302Y-96108951D01*
X73871823Y-96188861D01*
X73898268Y-96389734D01*
X73899401Y-96393874D01*
X73899401Y-96393876D01*
X73908295Y-96426387D01*
X73974129Y-96667036D01*
X73975813Y-96670984D01*
X74083102Y-96922517D01*
X74086923Y-96931476D01*
X74111571Y-96972659D01*
X74231467Y-97172991D01*
X74234561Y-97178161D01*
X74414313Y-97402528D01*
X74622851Y-97600423D01*
X74856317Y-97768186D01*
X74860112Y-97770195D01*
X74860113Y-97770196D01*
X74881869Y-97781715D01*
X75110392Y-97902712D01*
X75380373Y-98001511D01*
X75661264Y-98062755D01*
X75689841Y-98065004D01*
X75884282Y-98080307D01*
X75884291Y-98080307D01*
X75886739Y-98080500D01*
X76042271Y-98080500D01*
X76044407Y-98080354D01*
X76044418Y-98080354D01*
X76252548Y-98066165D01*
X76252554Y-98066164D01*
X76256825Y-98065873D01*
X76261020Y-98065004D01*
X76261022Y-98065004D01*
X76463118Y-98023152D01*
X76538342Y-98007574D01*
X76809343Y-97911607D01*
X77064812Y-97779750D01*
X77068313Y-97777289D01*
X77068317Y-97777287D01*
X77239607Y-97656902D01*
X77300023Y-97614441D01*
X77378403Y-97541606D01*
X77507479Y-97421661D01*
X77507481Y-97421658D01*
X77510622Y-97418740D01*
X77692713Y-97196268D01*
X77842927Y-96951142D01*
X77855493Y-96922517D01*
X77956757Y-96691830D01*
X77958483Y-96687898D01*
X78037244Y-96411406D01*
X78077751Y-96126784D01*
X78077825Y-96112800D01*
X78079235Y-95843583D01*
X78079235Y-95843576D01*
X78079257Y-95839297D01*
X78068437Y-95757107D01*
X78042292Y-95558522D01*
X78041732Y-95554266D01*
X77965871Y-95276964D01*
X77902886Y-95129298D01*
X77854763Y-95016476D01*
X77854761Y-95016472D01*
X77853077Y-95012524D01*
X77778527Y-94887960D01*
X77707643Y-94769521D01*
X77707640Y-94769517D01*
X77705439Y-94765839D01*
X77525687Y-94541472D01*
X77360014Y-94384254D01*
X77320258Y-94346527D01*
X77320255Y-94346525D01*
X77317149Y-94343577D01*
X77083683Y-94175814D01*
X77061843Y-94164250D01*
X76994336Y-94128507D01*
X76829608Y-94041288D01*
X76559627Y-93942489D01*
X76278736Y-93881245D01*
X76247685Y-93878801D01*
X76055718Y-93863693D01*
X76055709Y-93863693D01*
X76053261Y-93863500D01*
X75897729Y-93863500D01*
X75895593Y-93863646D01*
X75895582Y-93863646D01*
X75687452Y-93877835D01*
X75687446Y-93877836D01*
X75683175Y-93878127D01*
X75678980Y-93878996D01*
X75678978Y-93878996D01*
X75542417Y-93907276D01*
X75401658Y-93936426D01*
X75130657Y-94032393D01*
X74875188Y-94164250D01*
X74871687Y-94166711D01*
X74871683Y-94166713D01*
X74861594Y-94173804D01*
X74639977Y-94329559D01*
X74625602Y-94342917D01*
X74545019Y-94417800D01*
X74429378Y-94525260D01*
X74247287Y-94747732D01*
X74097073Y-94992858D01*
X73981517Y-95256102D01*
X73980342Y-95260229D01*
X73980341Y-95260230D01*
X73952834Y-95356794D01*
X73902756Y-95532594D01*
X73862249Y-95817216D01*
X73862227Y-95821505D01*
X73862226Y-95821512D01*
X73860897Y-96075280D01*
X73860743Y-96104703D01*
X72977135Y-96104703D01*
X72984780Y-95131389D01*
X72984882Y-95127213D01*
X73031607Y-93988635D01*
X73031847Y-93984463D01*
X73116299Y-92848020D01*
X73116678Y-92843859D01*
X73238761Y-91710860D01*
X73239278Y-91706714D01*
X73337089Y-91015134D01*
X73398857Y-90578400D01*
X73399506Y-90574298D01*
X73596414Y-89451850D01*
X73597199Y-89447773D01*
X73598301Y-89442525D01*
X73831215Y-88332468D01*
X73832135Y-88328419D01*
X73888519Y-88098000D01*
X73989063Y-87687107D01*
X74102985Y-87221549D01*
X74104045Y-87217507D01*
X74411456Y-86120182D01*
X74412650Y-86116178D01*
X74428327Y-86066607D01*
X74556490Y-85661359D01*
X78459304Y-85661359D01*
X78468017Y-85672879D01*
X78556504Y-85737760D01*
X78564423Y-85742708D01*
X78780795Y-85856547D01*
X78789369Y-85860275D01*
X79020200Y-85940885D01*
X79029209Y-85943299D01*
X79269436Y-85988908D01*
X79278693Y-85989962D01*
X79523025Y-85999563D01*
X79532338Y-85999237D01*
X79775396Y-85972618D01*
X79784573Y-85970917D01*
X80021025Y-85908665D01*
X80029844Y-85905628D01*
X80254502Y-85809107D01*
X80262774Y-85804800D01*
X80470695Y-85676135D01*
X80472538Y-85674796D01*
X80479956Y-85663541D01*
X80473892Y-85653184D01*
X79480730Y-84660022D01*
X79466786Y-84652408D01*
X79464953Y-84652539D01*
X79458338Y-84656790D01*
X78465962Y-85649166D01*
X78459304Y-85661359D01*
X74556490Y-85661359D01*
X74756265Y-85029678D01*
X74757584Y-85025734D01*
X74773646Y-84980250D01*
X75032288Y-84247835D01*
X77755940Y-84247835D01*
X77767672Y-84492064D01*
X77768809Y-84501324D01*
X77816511Y-84741143D01*
X77819000Y-84750118D01*
X77901626Y-84980250D01*
X77905423Y-84988778D01*
X78021152Y-85204160D01*
X78026163Y-85212027D01*
X78083091Y-85288263D01*
X78094349Y-85296712D01*
X78106768Y-85289940D01*
X79095896Y-84300812D01*
X79103510Y-84286868D01*
X79103379Y-84285035D01*
X79099128Y-84278420D01*
X78104746Y-83284038D01*
X78091438Y-83276771D01*
X78081399Y-83283893D01*
X78076499Y-83289784D01*
X78071086Y-83297373D01*
X77944240Y-83506409D01*
X77940002Y-83514726D01*
X77845447Y-83740214D01*
X77842490Y-83749052D01*
X77782302Y-83986042D01*
X77780681Y-83995232D01*
X77756185Y-84238510D01*
X77755940Y-84247835D01*
X75032288Y-84247835D01*
X75137054Y-83951163D01*
X75138505Y-83947264D01*
X75147810Y-83923461D01*
X75392541Y-83297373D01*
X75542821Y-82912917D01*
X78457248Y-82912917D01*
X78461821Y-82922693D01*
X79455106Y-83915978D01*
X79469050Y-83923592D01*
X79470883Y-83923461D01*
X79477498Y-83919210D01*
X80470406Y-82926302D01*
X80476790Y-82914612D01*
X80467378Y-82902502D01*
X80341062Y-82814873D01*
X80333034Y-82810145D01*
X80113728Y-82701995D01*
X80105095Y-82698507D01*
X79872206Y-82623958D01*
X79863156Y-82621785D01*
X79621809Y-82582480D01*
X79612520Y-82581668D01*
X79368032Y-82578467D01*
X79358721Y-82579037D01*
X79116440Y-82612010D01*
X79107321Y-82613948D01*
X78872586Y-82682367D01*
X78863833Y-82685639D01*
X78641787Y-82788004D01*
X78633632Y-82792524D01*
X78466386Y-82902175D01*
X78457248Y-82912917D01*
X75542821Y-82912917D01*
X75553363Y-82885949D01*
X75554948Y-82882083D01*
X76004787Y-81835053D01*
X76006500Y-81831242D01*
X76010593Y-81822525D01*
X76490799Y-80799719D01*
X76492631Y-80795979D01*
X76497511Y-80786422D01*
X77010878Y-79781053D01*
X77012831Y-79777381D01*
X77564421Y-78780236D01*
X77566492Y-78776633D01*
X78150875Y-77798264D01*
X78153043Y-77794768D01*
X78769529Y-76836332D01*
X78771839Y-76832868D01*
X78802507Y-76788496D01*
X79419747Y-75895425D01*
X79422179Y-75892028D01*
X80100813Y-74976578D01*
X80103357Y-74973263D01*
X80811968Y-74080820D01*
X80814620Y-74077592D01*
X81010149Y-73847440D01*
X81127026Y-73709866D01*
X81552425Y-73209139D01*
X81555183Y-73206000D01*
X81947157Y-72774470D01*
X82321379Y-72362484D01*
X82324228Y-72359450D01*
X82365887Y-72316537D01*
X83117971Y-71541800D01*
X83120930Y-71538851D01*
X83941346Y-70747968D01*
X83944402Y-70745118D01*
X84790594Y-69981864D01*
X84793742Y-69979118D01*
X85025524Y-69783594D01*
X85601654Y-69297587D01*
X85664761Y-69244352D01*
X85667999Y-69241711D01*
X86562914Y-68536217D01*
X86566238Y-68533685D01*
X87484037Y-67858261D01*
X87487442Y-67855841D01*
X88427156Y-67211200D01*
X88430640Y-67208894D01*
X88685577Y-67046168D01*
X89391218Y-66595759D01*
X89394677Y-66593631D01*
X90375115Y-66012646D01*
X90378695Y-66010604D01*
X90646633Y-65863608D01*
X91377823Y-65462464D01*
X91381491Y-65460530D01*
X92398221Y-64945829D01*
X92401924Y-64944032D01*
X93435142Y-64463332D01*
X93438951Y-64461635D01*
X93550598Y-64414129D01*
X93723818Y-64340423D01*
X94487535Y-64015458D01*
X94491406Y-64013887D01*
X95554216Y-63602716D01*
X95558137Y-63601273D01*
X96633974Y-63225574D01*
X96637903Y-63224274D01*
X97725638Y-62884441D01*
X97729601Y-62883275D01*
X98599430Y-62642867D01*
X98828007Y-62579692D01*
X98832052Y-62578646D01*
X99939896Y-62311653D01*
X99943974Y-62310742D01*
X101060024Y-62080635D01*
X101064129Y-62079859D01*
X102187236Y-61886874D01*
X102191365Y-61886235D01*
X103320229Y-61730596D01*
X103324377Y-61730094D01*
X104175367Y-61641402D01*
X104457803Y-61611966D01*
X104461946Y-61611604D01*
X104856026Y-61583701D01*
X105598655Y-61531120D01*
X105602827Y-61530894D01*
X106741562Y-61488144D01*
X106745739Y-61488056D01*
X107074509Y-61486621D01*
X107885300Y-61483083D01*
X107889463Y-61483134D01*
G37*
G04 #@! TD.AperFunction*
G04 #@! TA.AperFunction,Conductor*
G36*
X105533248Y-76688002D02*
G01*
X105540692Y-76693174D01*
X105561295Y-76708615D01*
X105697684Y-76759745D01*
X105759866Y-76766500D01*
X108156134Y-76766500D01*
X108218316Y-76759745D01*
X108354705Y-76708615D01*
X108375308Y-76693174D01*
X108441815Y-76668326D01*
X108450873Y-76668000D01*
X110013110Y-76668000D01*
X110081231Y-76688002D01*
X110088673Y-76693173D01*
X110133295Y-76726615D01*
X110269684Y-76777745D01*
X110331866Y-76784500D01*
X112728134Y-76784500D01*
X112790316Y-76777745D01*
X112926705Y-76726615D01*
X112971325Y-76693174D01*
X113037831Y-76668326D01*
X113046890Y-76668000D01*
X114585110Y-76668000D01*
X114653231Y-76688002D01*
X114660673Y-76693173D01*
X114705295Y-76726615D01*
X114841684Y-76777745D01*
X114903866Y-76784500D01*
X117300134Y-76784500D01*
X117362316Y-76777745D01*
X117498705Y-76726615D01*
X117543325Y-76693174D01*
X117609831Y-76668326D01*
X117618890Y-76668000D01*
X125374000Y-76668000D01*
X125442121Y-76688002D01*
X125488614Y-76741658D01*
X125500000Y-76794000D01*
X125500000Y-82764000D01*
X126293961Y-82764000D01*
X126362082Y-82784002D01*
X126369526Y-82789174D01*
X126382355Y-82798789D01*
X126397942Y-82807323D01*
X126518394Y-82852478D01*
X126533649Y-82856105D01*
X126584514Y-82861631D01*
X126591328Y-82862000D01*
X127513885Y-82862000D01*
X127529124Y-82857525D01*
X127530329Y-82856135D01*
X127532000Y-82848452D01*
X127532000Y-82764000D01*
X128040000Y-82764000D01*
X128040000Y-82843884D01*
X128044475Y-82859123D01*
X128045865Y-82860328D01*
X128053548Y-82861999D01*
X128980669Y-82861999D01*
X128987490Y-82861629D01*
X129038352Y-82856105D01*
X129053604Y-82852479D01*
X129174058Y-82807323D01*
X129189645Y-82798789D01*
X129202474Y-82789174D01*
X129268980Y-82764326D01*
X129278039Y-82764000D01*
X130703950Y-82764000D01*
X130757199Y-82775805D01*
X130894461Y-82839811D01*
X130894470Y-82839815D01*
X130898460Y-82841675D01*
X130902673Y-82842963D01*
X130902678Y-82842965D01*
X131036858Y-82883988D01*
X131167082Y-82923802D01*
X131171422Y-82924489D01*
X131171429Y-82924491D01*
X131429709Y-82965397D01*
X131444520Y-82967743D01*
X131448081Y-82967898D01*
X131448086Y-82967899D01*
X131506287Y-82970440D01*
X131506291Y-82970440D01*
X131507663Y-82970500D01*
X132401506Y-82970500D01*
X132469627Y-82990502D01*
X132516120Y-83044158D01*
X132526224Y-83114432D01*
X132496730Y-83179012D01*
X132437004Y-83217396D01*
X132421215Y-83220949D01*
X132392903Y-83225433D01*
X132386463Y-83226802D01*
X132037672Y-83320260D01*
X132031395Y-83322300D01*
X131694286Y-83451704D01*
X131688275Y-83454380D01*
X131366532Y-83618317D01*
X131360823Y-83621613D01*
X131057984Y-83818279D01*
X131052662Y-83822146D01*
X130838366Y-83995678D01*
X130829900Y-84007933D01*
X130836234Y-84019024D01*
X133107188Y-86289978D01*
X133121132Y-86297592D01*
X133122965Y-86297461D01*
X133129580Y-86293210D01*
X135402900Y-84019890D01*
X135410040Y-84006814D01*
X135402582Y-83996446D01*
X135187338Y-83822146D01*
X135182016Y-83818279D01*
X134879177Y-83621613D01*
X134873468Y-83618317D01*
X134551725Y-83454380D01*
X134545714Y-83451704D01*
X134208605Y-83322300D01*
X134202328Y-83320260D01*
X133853537Y-83226802D01*
X133847102Y-83225434D01*
X133818780Y-83220948D01*
X133754627Y-83190535D01*
X133717100Y-83130267D01*
X133718114Y-83059277D01*
X133757347Y-83000106D01*
X133822343Y-82971538D01*
X133838487Y-82970499D01*
X134732336Y-82970499D01*
X134733705Y-82970439D01*
X134733716Y-82970439D01*
X134791914Y-82967899D01*
X134791920Y-82967898D01*
X134795480Y-82967743D01*
X134868955Y-82956106D01*
X135068571Y-82924491D01*
X135068578Y-82924489D01*
X135072918Y-82923802D01*
X135203142Y-82883988D01*
X135337322Y-82842965D01*
X135337327Y-82842963D01*
X135341540Y-82841675D01*
X135345530Y-82839815D01*
X135345539Y-82839811D01*
X135482801Y-82775805D01*
X135536050Y-82764000D01*
X139240568Y-82764000D01*
X139308689Y-82784002D01*
X139357516Y-82843106D01*
X139687330Y-83665616D01*
X139688821Y-83669519D01*
X140077642Y-84740705D01*
X140079002Y-84744655D01*
X140225799Y-85195111D01*
X140232000Y-85234152D01*
X140232000Y-92290000D01*
X140211998Y-92358121D01*
X140158342Y-92404614D01*
X140106000Y-92416000D01*
X124582500Y-92416000D01*
X124514379Y-92395998D01*
X124467886Y-92342342D01*
X124456500Y-92290000D01*
X124456500Y-92230999D01*
X124473381Y-92167999D01*
X124529223Y-92071279D01*
X124529224Y-92071278D01*
X124532527Y-92065556D01*
X124591542Y-91883928D01*
X124599155Y-91811500D01*
X124610814Y-91700565D01*
X124611504Y-91694000D01*
X124591542Y-91504072D01*
X124532527Y-91322444D01*
X124519379Y-91299670D01*
X124440341Y-91162774D01*
X124437040Y-91157056D01*
X124309253Y-91015134D01*
X124168407Y-90912803D01*
X124160094Y-90906763D01*
X124160093Y-90906762D01*
X124154752Y-90902882D01*
X124148724Y-90900198D01*
X124148722Y-90900197D01*
X123986319Y-90827891D01*
X123986318Y-90827891D01*
X123980288Y-90825206D01*
X123886888Y-90805353D01*
X123799944Y-90786872D01*
X123799939Y-90786872D01*
X123793487Y-90785500D01*
X123602513Y-90785500D01*
X123596061Y-90786872D01*
X123596056Y-90786872D01*
X123509112Y-90805353D01*
X123415712Y-90825206D01*
X123409682Y-90827891D01*
X123409681Y-90827891D01*
X123247278Y-90900197D01*
X123247276Y-90900198D01*
X123241248Y-90902882D01*
X123235907Y-90906762D01*
X123235906Y-90906763D01*
X123227593Y-90912803D01*
X123086747Y-91015134D01*
X122958960Y-91157056D01*
X122955659Y-91162774D01*
X122876622Y-91299670D01*
X122863473Y-91322444D01*
X122804458Y-91504072D01*
X122784496Y-91694000D01*
X122785186Y-91700565D01*
X122796846Y-91811500D01*
X122804458Y-91883928D01*
X122863473Y-92065556D01*
X122866776Y-92071278D01*
X122866777Y-92071279D01*
X122922619Y-92167999D01*
X122939500Y-92230999D01*
X122939500Y-92290000D01*
X122919498Y-92358121D01*
X122865842Y-92404614D01*
X122813500Y-92416000D01*
X121361882Y-92416000D01*
X121293761Y-92395998D01*
X121247268Y-92342342D01*
X121237164Y-92272068D01*
X121268246Y-92205690D01*
X121301461Y-92168801D01*
X121301462Y-92168800D01*
X121305880Y-92163893D01*
X121396112Y-92007607D01*
X121423790Y-91922422D01*
X121449838Y-91842254D01*
X121449838Y-91842253D01*
X121451878Y-91835975D01*
X121454451Y-91811500D01*
X121470052Y-91663065D01*
X121470742Y-91656500D01*
X121451878Y-91477025D01*
X121396112Y-91305393D01*
X121305880Y-91149107D01*
X121185126Y-91014996D01*
X121039128Y-90908922D01*
X121033100Y-90906238D01*
X121033098Y-90906237D01*
X120880296Y-90838205D01*
X120880294Y-90838205D01*
X120874265Y-90835520D01*
X120786005Y-90816760D01*
X120704202Y-90799372D01*
X120704198Y-90799372D01*
X120697745Y-90798000D01*
X120517281Y-90798000D01*
X120510828Y-90799372D01*
X120510824Y-90799372D01*
X120429021Y-90816760D01*
X120340761Y-90835520D01*
X120334732Y-90838204D01*
X120334730Y-90838205D01*
X120181929Y-90906237D01*
X120181927Y-90906238D01*
X120175899Y-90908922D01*
X120170558Y-90912802D01*
X120170557Y-90912803D01*
X120035244Y-91011113D01*
X120035242Y-91011115D01*
X120029900Y-91014996D01*
X119909146Y-91149107D01*
X119818914Y-91305393D01*
X119763148Y-91477025D01*
X119744284Y-91656500D01*
X119744974Y-91663065D01*
X119760576Y-91811500D01*
X119763148Y-91835975D01*
X119765188Y-91842253D01*
X119765188Y-91842254D01*
X119791236Y-91922422D01*
X119818914Y-92007607D01*
X119909146Y-92163893D01*
X119913564Y-92168800D01*
X119913565Y-92168801D01*
X119946780Y-92205690D01*
X119977498Y-92269697D01*
X119968733Y-92340151D01*
X119923270Y-92394682D01*
X119853144Y-92416000D01*
X118260000Y-92416000D01*
X118191879Y-92395998D01*
X118145386Y-92342342D01*
X118134000Y-92290000D01*
X118134000Y-89876000D01*
X95528000Y-89876000D01*
X95528000Y-102450000D01*
X95507998Y-102518121D01*
X95454342Y-102564614D01*
X95402000Y-102576000D01*
X88670000Y-102576000D01*
X88670000Y-109562000D01*
X88649998Y-109630121D01*
X88596342Y-109676614D01*
X88544000Y-109688000D01*
X82446000Y-109688000D01*
X82377879Y-109667998D01*
X82331386Y-109614342D01*
X82320000Y-109562000D01*
X82320000Y-108751472D01*
X82340002Y-108683351D01*
X82393658Y-108636858D01*
X82463932Y-108626754D01*
X82528512Y-108656248D01*
X82546826Y-108675907D01*
X82567673Y-108703723D01*
X82580235Y-108716285D01*
X82682310Y-108792786D01*
X82697905Y-108801324D01*
X82818353Y-108846478D01*
X82833608Y-108850105D01*
X82884473Y-108855631D01*
X82891287Y-108856000D01*
X83863844Y-108856000D01*
X83879083Y-108851525D01*
X83880288Y-108850135D01*
X83881959Y-108842452D01*
X83881959Y-108837884D01*
X84389959Y-108837884D01*
X84394434Y-108853123D01*
X84395824Y-108854328D01*
X84403507Y-108855999D01*
X85380628Y-108855999D01*
X85387449Y-108855629D01*
X85438311Y-108850105D01*
X85453563Y-108846479D01*
X85574013Y-108801324D01*
X85589608Y-108792786D01*
X85691683Y-108716285D01*
X85704244Y-108703724D01*
X85780745Y-108601649D01*
X85789283Y-108586054D01*
X85834437Y-108465606D01*
X85838064Y-108450351D01*
X85843590Y-108399486D01*
X85843959Y-108392672D01*
X85843959Y-107420115D01*
X85839484Y-107404876D01*
X85838094Y-107403671D01*
X85830411Y-107402000D01*
X84408074Y-107402000D01*
X84392835Y-107406475D01*
X84391630Y-107407865D01*
X84389959Y-107415548D01*
X84389959Y-108837884D01*
X83881959Y-108837884D01*
X83881959Y-106875885D01*
X84389959Y-106875885D01*
X84394434Y-106891124D01*
X84395824Y-106892329D01*
X84403507Y-106894000D01*
X85825843Y-106894000D01*
X85841082Y-106889525D01*
X85842287Y-106888135D01*
X85843958Y-106880452D01*
X85843958Y-105903331D01*
X85843588Y-105896510D01*
X85838064Y-105845648D01*
X85834438Y-105830396D01*
X85789283Y-105709946D01*
X85780745Y-105694351D01*
X85704244Y-105592276D01*
X85691683Y-105579715D01*
X85589608Y-105503214D01*
X85574013Y-105494676D01*
X85453565Y-105449522D01*
X85438310Y-105445895D01*
X85387445Y-105440369D01*
X85380631Y-105440000D01*
X84408074Y-105440000D01*
X84392835Y-105444475D01*
X84391630Y-105445865D01*
X84389959Y-105453548D01*
X84389959Y-106875885D01*
X83881959Y-106875885D01*
X83881959Y-105458116D01*
X83877484Y-105442877D01*
X83876094Y-105441672D01*
X83868411Y-105440001D01*
X82891290Y-105440001D01*
X82884469Y-105440371D01*
X82833607Y-105445895D01*
X82818355Y-105449521D01*
X82697905Y-105494676D01*
X82682310Y-105503214D01*
X82580235Y-105579715D01*
X82567673Y-105592277D01*
X82546826Y-105620093D01*
X82489966Y-105662608D01*
X82419148Y-105667633D01*
X82356855Y-105633574D01*
X82322865Y-105571242D01*
X82320000Y-105544528D01*
X82320000Y-97622000D01*
X82340002Y-97553879D01*
X82393658Y-97507386D01*
X82446000Y-97496000D01*
X87908000Y-97496000D01*
X87908000Y-96962669D01*
X89343796Y-96962669D01*
X89344166Y-96969490D01*
X89349690Y-97020352D01*
X89353316Y-97035604D01*
X89398471Y-97156054D01*
X89407009Y-97171649D01*
X89483510Y-97273724D01*
X89496071Y-97286285D01*
X89598146Y-97362786D01*
X89613741Y-97371324D01*
X89734189Y-97416478D01*
X89749444Y-97420105D01*
X89800309Y-97425631D01*
X89807123Y-97426000D01*
X90779680Y-97426000D01*
X90794919Y-97421525D01*
X90796124Y-97420135D01*
X90797795Y-97412452D01*
X90797795Y-97407884D01*
X91305795Y-97407884D01*
X91310270Y-97423123D01*
X91311660Y-97424328D01*
X91319343Y-97425999D01*
X92296464Y-97425999D01*
X92303285Y-97425629D01*
X92354147Y-97420105D01*
X92369399Y-97416479D01*
X92489849Y-97371324D01*
X92505444Y-97362786D01*
X92607519Y-97286285D01*
X92620080Y-97273724D01*
X92696581Y-97171649D01*
X92705119Y-97156054D01*
X92750273Y-97035606D01*
X92753900Y-97020351D01*
X92759426Y-96969486D01*
X92759795Y-96962672D01*
X92759795Y-95990115D01*
X92755320Y-95974876D01*
X92753930Y-95973671D01*
X92746247Y-95972000D01*
X91323910Y-95972000D01*
X91308671Y-95976475D01*
X91307466Y-95977865D01*
X91305795Y-95985548D01*
X91305795Y-97407884D01*
X90797795Y-97407884D01*
X90797795Y-95990115D01*
X90793320Y-95974876D01*
X90791930Y-95973671D01*
X90784247Y-95972000D01*
X89361911Y-95972000D01*
X89346672Y-95976475D01*
X89345467Y-95977865D01*
X89343796Y-95985548D01*
X89343796Y-96962669D01*
X87908000Y-96962669D01*
X87908000Y-95445885D01*
X89343795Y-95445885D01*
X89348270Y-95461124D01*
X89349660Y-95462329D01*
X89357343Y-95464000D01*
X90779680Y-95464000D01*
X90794919Y-95459525D01*
X90796124Y-95458135D01*
X90797795Y-95450452D01*
X90797795Y-95445885D01*
X91305795Y-95445885D01*
X91310270Y-95461124D01*
X91311660Y-95462329D01*
X91319343Y-95464000D01*
X92741679Y-95464000D01*
X92756918Y-95459525D01*
X92758123Y-95458135D01*
X92759794Y-95450452D01*
X92759794Y-94473331D01*
X92759424Y-94466510D01*
X92753900Y-94415648D01*
X92750274Y-94400396D01*
X92705119Y-94279946D01*
X92696581Y-94264351D01*
X92620080Y-94162276D01*
X92607519Y-94149715D01*
X92505444Y-94073214D01*
X92489849Y-94064676D01*
X92369401Y-94019522D01*
X92354146Y-94015895D01*
X92303281Y-94010369D01*
X92296467Y-94010000D01*
X91323910Y-94010000D01*
X91308671Y-94014475D01*
X91307466Y-94015865D01*
X91305795Y-94023548D01*
X91305795Y-95445885D01*
X90797795Y-95445885D01*
X90797795Y-94028116D01*
X90793320Y-94012877D01*
X90791930Y-94011672D01*
X90784247Y-94010001D01*
X89807126Y-94010001D01*
X89800305Y-94010371D01*
X89749443Y-94015895D01*
X89734191Y-94019521D01*
X89613741Y-94064676D01*
X89598146Y-94073214D01*
X89496071Y-94149715D01*
X89483510Y-94162276D01*
X89407009Y-94264351D01*
X89398471Y-94279946D01*
X89353317Y-94400394D01*
X89349690Y-94415649D01*
X89344164Y-94466514D01*
X89343795Y-94473328D01*
X89343795Y-95445885D01*
X87908000Y-95445885D01*
X87908000Y-90130000D01*
X81684000Y-90130000D01*
X81615879Y-90109998D01*
X81569386Y-90056342D01*
X81558000Y-90004000D01*
X81558000Y-89317186D01*
X130829960Y-89317186D01*
X130837418Y-89327554D01*
X131052662Y-89501854D01*
X131057984Y-89505721D01*
X131360823Y-89702387D01*
X131366532Y-89705683D01*
X131688275Y-89869620D01*
X131694286Y-89872296D01*
X132031395Y-90001700D01*
X132037672Y-90003740D01*
X132386463Y-90097198D01*
X132392901Y-90098567D01*
X132749560Y-90155055D01*
X132756104Y-90155743D01*
X133116699Y-90174641D01*
X133123301Y-90174641D01*
X133483896Y-90155743D01*
X133490440Y-90155055D01*
X133847099Y-90098567D01*
X133853537Y-90097198D01*
X134202328Y-90003740D01*
X134208605Y-90001700D01*
X134545714Y-89872296D01*
X134551725Y-89869620D01*
X134873468Y-89705683D01*
X134879177Y-89702387D01*
X135182016Y-89505721D01*
X135187338Y-89501854D01*
X135401634Y-89328322D01*
X135410100Y-89316067D01*
X135403766Y-89304976D01*
X133132812Y-87034022D01*
X133118868Y-87026408D01*
X133117035Y-87026539D01*
X133110420Y-87030790D01*
X130837100Y-89304110D01*
X130829960Y-89317186D01*
X81558000Y-89317186D01*
X81558000Y-87376000D01*
X116484771Y-87376000D01*
X116503635Y-87555475D01*
X116559401Y-87727107D01*
X116562704Y-87732829D01*
X116562705Y-87732830D01*
X116594689Y-87788227D01*
X116649633Y-87883393D01*
X116770387Y-88017504D01*
X116775729Y-88021385D01*
X116775731Y-88021387D01*
X116875296Y-88093725D01*
X116916385Y-88123578D01*
X116922413Y-88126262D01*
X116922415Y-88126263D01*
X117075217Y-88194295D01*
X117081248Y-88196980D01*
X117169508Y-88215740D01*
X117251311Y-88233128D01*
X117251315Y-88233128D01*
X117257768Y-88234500D01*
X117438232Y-88234500D01*
X117444685Y-88233128D01*
X117444689Y-88233128D01*
X117526492Y-88215740D01*
X117614752Y-88196980D01*
X117620783Y-88194295D01*
X117773585Y-88126263D01*
X117773587Y-88126262D01*
X117779615Y-88123578D01*
X117820704Y-88093725D01*
X117920269Y-88021387D01*
X117920271Y-88021385D01*
X117925613Y-88017504D01*
X118046367Y-87883393D01*
X118101311Y-87788227D01*
X118133295Y-87732830D01*
X118133296Y-87732829D01*
X118136599Y-87727107D01*
X118192365Y-87555475D01*
X118211229Y-87376000D01*
X118192365Y-87196525D01*
X118136599Y-87024893D01*
X118116020Y-86989249D01*
X118099282Y-86920253D01*
X118116020Y-86863249D01*
X118133298Y-86833322D01*
X118133299Y-86833319D01*
X118136599Y-86827604D01*
X118189334Y-86665301D01*
X129607359Y-86665301D01*
X129626257Y-87025896D01*
X129626945Y-87032440D01*
X129683433Y-87389099D01*
X129684802Y-87395537D01*
X129778260Y-87744328D01*
X129780300Y-87750605D01*
X129909704Y-88087714D01*
X129912380Y-88093725D01*
X130076317Y-88415468D01*
X130079613Y-88421177D01*
X130276279Y-88724016D01*
X130280146Y-88729338D01*
X130453678Y-88943634D01*
X130465933Y-88952100D01*
X130477024Y-88945766D01*
X132747978Y-86674812D01*
X132754356Y-86663132D01*
X133484408Y-86663132D01*
X133484539Y-86664965D01*
X133488790Y-86671580D01*
X135762110Y-88944900D01*
X135775186Y-88952040D01*
X135785554Y-88944582D01*
X135959854Y-88729338D01*
X135963721Y-88724016D01*
X136160387Y-88421177D01*
X136163683Y-88415468D01*
X136327620Y-88093725D01*
X136330296Y-88087714D01*
X136459700Y-87750605D01*
X136461740Y-87744328D01*
X136555198Y-87395537D01*
X136556567Y-87389099D01*
X136613055Y-87032440D01*
X136613743Y-87025896D01*
X136632641Y-86665301D01*
X136632641Y-86658699D01*
X136613743Y-86298104D01*
X136613055Y-86291560D01*
X136556567Y-85934901D01*
X136555198Y-85928463D01*
X136461740Y-85579672D01*
X136459700Y-85573395D01*
X136330296Y-85236286D01*
X136327620Y-85230275D01*
X136163683Y-84908532D01*
X136160387Y-84902823D01*
X135963721Y-84599984D01*
X135959854Y-84594662D01*
X135786322Y-84380366D01*
X135774067Y-84371900D01*
X135762976Y-84378234D01*
X133492022Y-86649188D01*
X133484408Y-86663132D01*
X132754356Y-86663132D01*
X132755592Y-86660868D01*
X132755461Y-86659035D01*
X132751210Y-86652420D01*
X130477890Y-84379100D01*
X130464814Y-84371960D01*
X130454446Y-84379418D01*
X130280146Y-84594662D01*
X130276279Y-84599984D01*
X130079613Y-84902823D01*
X130076317Y-84908532D01*
X129912380Y-85230275D01*
X129909704Y-85236286D01*
X129780300Y-85573395D01*
X129778260Y-85579672D01*
X129684802Y-85928463D01*
X129683433Y-85934901D01*
X129626945Y-86291560D01*
X129626257Y-86298104D01*
X129607359Y-86658699D01*
X129607359Y-86665301D01*
X118189334Y-86665301D01*
X118192365Y-86655972D01*
X118211229Y-86476497D01*
X118192365Y-86297022D01*
X118136599Y-86125390D01*
X118046367Y-85969104D01*
X117944785Y-85856285D01*
X117930035Y-85839904D01*
X117930034Y-85839903D01*
X117925613Y-85834993D01*
X117918890Y-85830108D01*
X117784957Y-85732800D01*
X117784956Y-85732799D01*
X117779615Y-85728919D01*
X117773587Y-85726235D01*
X117773585Y-85726234D01*
X117620783Y-85658202D01*
X117620781Y-85658202D01*
X117614752Y-85655517D01*
X117526492Y-85636757D01*
X117444689Y-85619369D01*
X117444685Y-85619369D01*
X117438232Y-85617997D01*
X117257768Y-85617997D01*
X117251315Y-85619369D01*
X117251311Y-85619369D01*
X117169508Y-85636757D01*
X117081248Y-85655517D01*
X117075219Y-85658201D01*
X117075217Y-85658202D01*
X116922416Y-85726234D01*
X116922414Y-85726235D01*
X116916386Y-85728919D01*
X116911045Y-85732799D01*
X116911044Y-85732800D01*
X116775731Y-85831110D01*
X116775729Y-85831112D01*
X116770387Y-85834993D01*
X116765966Y-85839903D01*
X116765965Y-85839904D01*
X116751216Y-85856285D01*
X116649633Y-85969104D01*
X116559401Y-86125390D01*
X116503635Y-86297022D01*
X116484771Y-86476497D01*
X116503635Y-86655972D01*
X116559401Y-86827604D01*
X116562701Y-86833319D01*
X116562702Y-86833322D01*
X116579980Y-86863249D01*
X116596718Y-86932245D01*
X116579980Y-86989249D01*
X116559401Y-87024893D01*
X116503635Y-87196525D01*
X116484771Y-87376000D01*
X81558000Y-87376000D01*
X81558000Y-85532669D01*
X82759919Y-85532669D01*
X82760289Y-85539490D01*
X82765813Y-85590352D01*
X82769439Y-85605604D01*
X82814594Y-85726054D01*
X82823132Y-85741649D01*
X82899633Y-85843724D01*
X82912194Y-85856285D01*
X83014269Y-85932786D01*
X83029864Y-85941324D01*
X83150312Y-85986478D01*
X83165567Y-85990105D01*
X83216432Y-85995631D01*
X83223246Y-85996000D01*
X84195803Y-85996000D01*
X84211042Y-85991525D01*
X84212247Y-85990135D01*
X84213918Y-85982452D01*
X84213918Y-85977884D01*
X84721918Y-85977884D01*
X84726393Y-85993123D01*
X84727783Y-85994328D01*
X84735466Y-85995999D01*
X85712587Y-85995999D01*
X85719408Y-85995629D01*
X85770270Y-85990105D01*
X85785522Y-85986479D01*
X85905972Y-85941324D01*
X85921567Y-85932786D01*
X86023642Y-85856285D01*
X86036203Y-85843724D01*
X86112704Y-85741649D01*
X86121242Y-85726054D01*
X86166396Y-85605606D01*
X86170023Y-85590351D01*
X86175549Y-85539486D01*
X86175918Y-85532672D01*
X86175918Y-84560115D01*
X86171443Y-84544876D01*
X86170053Y-84543671D01*
X86162370Y-84542000D01*
X84740033Y-84542000D01*
X84724794Y-84546475D01*
X84723589Y-84547865D01*
X84721918Y-84555548D01*
X84721918Y-85977884D01*
X84213918Y-85977884D01*
X84213918Y-84560115D01*
X84209443Y-84544876D01*
X84208053Y-84543671D01*
X84200370Y-84542000D01*
X82778034Y-84542000D01*
X82762795Y-84546475D01*
X82761590Y-84547865D01*
X82759919Y-84555548D01*
X82759919Y-85532669D01*
X81558000Y-85532669D01*
X81558000Y-84015885D01*
X82759918Y-84015885D01*
X82764393Y-84031124D01*
X82765783Y-84032329D01*
X82773466Y-84034000D01*
X84195803Y-84034000D01*
X84211042Y-84029525D01*
X84212247Y-84028135D01*
X84213918Y-84020452D01*
X84213918Y-84015885D01*
X84721918Y-84015885D01*
X84726393Y-84031124D01*
X84727783Y-84032329D01*
X84735466Y-84034000D01*
X86157802Y-84034000D01*
X86173041Y-84029525D01*
X86174246Y-84028135D01*
X86175917Y-84020452D01*
X86175917Y-83662134D01*
X101281500Y-83662134D01*
X101288255Y-83724316D01*
X101339385Y-83860705D01*
X101426739Y-83977261D01*
X101543295Y-84064615D01*
X101679684Y-84115745D01*
X101741866Y-84122500D01*
X103538134Y-84122500D01*
X103600316Y-84115745D01*
X103736705Y-84064615D01*
X103853261Y-83977261D01*
X103940615Y-83860705D01*
X103991745Y-83724316D01*
X103998500Y-83662134D01*
X103998500Y-81865866D01*
X103991745Y-81803684D01*
X103940615Y-81667295D01*
X103853261Y-81550739D01*
X103736705Y-81463385D01*
X103600316Y-81412255D01*
X103538134Y-81405500D01*
X101741866Y-81405500D01*
X101679684Y-81412255D01*
X101543295Y-81463385D01*
X101426739Y-81550739D01*
X101339385Y-81667295D01*
X101288255Y-81803684D01*
X101281500Y-81865866D01*
X101281500Y-83662134D01*
X86175917Y-83662134D01*
X86175917Y-83043331D01*
X86175547Y-83036510D01*
X86170023Y-82985648D01*
X86166397Y-82970396D01*
X86121242Y-82849946D01*
X86112704Y-82834351D01*
X86036203Y-82732276D01*
X86023642Y-82719715D01*
X85921567Y-82643214D01*
X85905972Y-82634676D01*
X85785524Y-82589522D01*
X85770269Y-82585895D01*
X85719404Y-82580369D01*
X85712590Y-82580000D01*
X84740033Y-82580000D01*
X84724794Y-82584475D01*
X84723589Y-82585865D01*
X84721918Y-82593548D01*
X84721918Y-84015885D01*
X84213918Y-84015885D01*
X84213918Y-82598116D01*
X84209443Y-82582877D01*
X84208053Y-82581672D01*
X84200370Y-82580001D01*
X83223249Y-82580001D01*
X83216428Y-82580371D01*
X83165566Y-82585895D01*
X83150314Y-82589521D01*
X83029864Y-82634676D01*
X83014269Y-82643214D01*
X82912194Y-82719715D01*
X82899633Y-82732276D01*
X82823132Y-82834351D01*
X82814594Y-82849946D01*
X82769440Y-82970394D01*
X82765813Y-82985649D01*
X82760287Y-83036514D01*
X82759918Y-83043328D01*
X82759918Y-84015885D01*
X81558000Y-84015885D01*
X81558000Y-81272742D01*
X116412249Y-81272742D01*
X116412939Y-81279307D01*
X116426242Y-81405869D01*
X116431113Y-81452217D01*
X116433153Y-81458495D01*
X116433153Y-81458496D01*
X116457686Y-81534000D01*
X116486879Y-81623849D01*
X116577111Y-81780135D01*
X116581529Y-81785042D01*
X116581530Y-81785043D01*
X116605388Y-81811540D01*
X116697865Y-81914246D01*
X116703207Y-81918127D01*
X116703209Y-81918129D01*
X116838521Y-82016439D01*
X116843863Y-82020320D01*
X116849891Y-82023004D01*
X116849893Y-82023005D01*
X116993803Y-82087078D01*
X117008726Y-82093722D01*
X117096986Y-82112482D01*
X117178789Y-82129870D01*
X117178793Y-82129870D01*
X117185246Y-82131242D01*
X117365710Y-82131242D01*
X117372163Y-82129870D01*
X117372167Y-82129870D01*
X117453970Y-82112482D01*
X117542230Y-82093722D01*
X117548257Y-82091039D01*
X117548265Y-82091036D01*
X117604618Y-82065946D01*
X117674985Y-82056512D01*
X117729924Y-82079115D01*
X117735540Y-82083195D01*
X117735543Y-82083197D01*
X117740885Y-82087078D01*
X117746913Y-82089762D01*
X117746915Y-82089763D01*
X117899717Y-82157795D01*
X117905748Y-82160480D01*
X117994008Y-82179240D01*
X118075811Y-82196628D01*
X118075815Y-82196628D01*
X118082268Y-82198000D01*
X118262732Y-82198000D01*
X118269185Y-82196628D01*
X118269189Y-82196628D01*
X118350992Y-82179240D01*
X118439252Y-82160480D01*
X118445283Y-82157795D01*
X118598085Y-82089763D01*
X118598087Y-82089762D01*
X118604115Y-82087078D01*
X118609457Y-82083197D01*
X118744769Y-81984887D01*
X118744771Y-81984885D01*
X118750113Y-81981004D01*
X118870867Y-81846893D01*
X118874171Y-81841171D01*
X118874584Y-81840602D01*
X118930806Y-81797248D01*
X119001542Y-81791173D01*
X119064334Y-81824304D01*
X119094560Y-81872845D01*
X119094675Y-81872794D01*
X119095045Y-81873625D01*
X119096352Y-81875724D01*
X119097358Y-81878821D01*
X119097360Y-81878826D01*
X119099401Y-81885107D01*
X119189633Y-82041393D01*
X119194051Y-82046300D01*
X119194052Y-82046301D01*
X119269298Y-82129870D01*
X119310387Y-82175504D01*
X119315729Y-82179385D01*
X119315731Y-82179387D01*
X119341350Y-82198000D01*
X119456385Y-82281578D01*
X119462413Y-82284262D01*
X119462415Y-82284263D01*
X119615217Y-82352295D01*
X119621248Y-82354980D01*
X119709508Y-82373740D01*
X119791311Y-82391128D01*
X119791315Y-82391128D01*
X119797768Y-82392500D01*
X119978232Y-82392500D01*
X119984685Y-82391128D01*
X119984689Y-82391128D01*
X120066492Y-82373740D01*
X120154752Y-82354980D01*
X120160783Y-82352295D01*
X120313585Y-82284263D01*
X120313587Y-82284262D01*
X120319615Y-82281578D01*
X120434650Y-82198000D01*
X120460269Y-82179387D01*
X120460271Y-82179385D01*
X120465613Y-82175504D01*
X120506702Y-82129870D01*
X120581948Y-82046301D01*
X120581949Y-82046300D01*
X120586367Y-82041393D01*
X120676599Y-81885107D01*
X120732365Y-81713475D01*
X120751229Y-81534000D01*
X120732365Y-81354525D01*
X120707926Y-81279307D01*
X120678641Y-81189178D01*
X120676599Y-81182893D01*
X120586367Y-81026607D01*
X120562298Y-80999875D01*
X120470035Y-80897407D01*
X120470034Y-80897406D01*
X120465613Y-80892496D01*
X120418134Y-80858000D01*
X120324957Y-80790303D01*
X120324956Y-80790302D01*
X120319615Y-80786422D01*
X120313587Y-80783738D01*
X120313585Y-80783737D01*
X120160783Y-80715705D01*
X120160781Y-80715705D01*
X120154752Y-80713020D01*
X120065800Y-80694113D01*
X119984689Y-80676872D01*
X119984685Y-80676872D01*
X119978232Y-80675500D01*
X119797768Y-80675500D01*
X119791315Y-80676872D01*
X119791311Y-80676872D01*
X119710200Y-80694113D01*
X119621248Y-80713020D01*
X119615219Y-80715704D01*
X119615217Y-80715705D01*
X119462416Y-80783737D01*
X119462414Y-80783738D01*
X119456386Y-80786422D01*
X119451045Y-80790302D01*
X119451044Y-80790303D01*
X119315731Y-80888613D01*
X119315729Y-80888615D01*
X119310387Y-80892496D01*
X119189633Y-81026607D01*
X119186332Y-81032325D01*
X119185916Y-81032898D01*
X119129694Y-81076252D01*
X119058958Y-81082327D01*
X118996166Y-81049196D01*
X118965940Y-81000655D01*
X118965825Y-81000706D01*
X118965455Y-80999875D01*
X118964148Y-80997776D01*
X118963142Y-80994679D01*
X118963140Y-80994674D01*
X118961099Y-80988393D01*
X118870867Y-80832107D01*
X118827315Y-80783737D01*
X118754535Y-80702907D01*
X118754534Y-80702906D01*
X118750113Y-80697996D01*
X118721039Y-80676872D01*
X118609457Y-80595803D01*
X118609456Y-80595802D01*
X118604115Y-80591922D01*
X118598087Y-80589238D01*
X118598085Y-80589237D01*
X118445283Y-80521205D01*
X118445281Y-80521205D01*
X118439252Y-80518520D01*
X118350992Y-80499760D01*
X118269189Y-80482372D01*
X118269185Y-80482372D01*
X118262732Y-80481000D01*
X118082268Y-80481000D01*
X118075815Y-80482372D01*
X118075811Y-80482372D01*
X117994008Y-80499760D01*
X117905748Y-80518520D01*
X117899721Y-80521203D01*
X117899713Y-80521206D01*
X117843362Y-80546296D01*
X117772995Y-80555731D01*
X117718050Y-80533125D01*
X117707093Y-80525164D01*
X117701065Y-80522480D01*
X117701063Y-80522479D01*
X117548261Y-80454447D01*
X117548259Y-80454447D01*
X117542230Y-80451762D01*
X117453970Y-80433002D01*
X117372167Y-80415614D01*
X117372163Y-80415614D01*
X117365710Y-80414242D01*
X117185246Y-80414242D01*
X117178793Y-80415614D01*
X117178789Y-80415614D01*
X117096986Y-80433002D01*
X117008726Y-80451762D01*
X117002697Y-80454446D01*
X117002695Y-80454447D01*
X116849894Y-80522479D01*
X116849892Y-80522480D01*
X116843864Y-80525164D01*
X116838525Y-80529043D01*
X116838522Y-80529045D01*
X116703209Y-80627355D01*
X116703207Y-80627357D01*
X116697865Y-80631238D01*
X116693444Y-80636148D01*
X116693443Y-80636149D01*
X116596887Y-80743386D01*
X116577111Y-80765349D01*
X116486879Y-80921635D01*
X116484837Y-80927920D01*
X116434668Y-81082327D01*
X116431113Y-81093267D01*
X116412249Y-81272742D01*
X81558000Y-81272742D01*
X81558000Y-80858000D01*
X81578002Y-80789879D01*
X81631658Y-80743386D01*
X81684000Y-80732000D01*
X87654000Y-80732000D01*
X87654000Y-76794000D01*
X87674002Y-76725879D01*
X87727658Y-76679386D01*
X87780000Y-76668000D01*
X105465127Y-76668000D01*
X105533248Y-76688002D01*
G37*
G04 #@! TD.AperFunction*
M02*
