%TF.GenerationSoftware,KiCad,Pcbnew,6.0.11+dfsg-1*%
%TF.CreationDate,2025-03-20T11:06:59-04:00*%
%TF.ProjectId,foc-board,666f632d-626f-4617-9264-2e6b69636164,rev?*%
%TF.SameCoordinates,Original*%
%TF.FileFunction,Drillmap*%
%TF.FilePolarity,Positive*%
%FSLAX45Y45*%
G04 Gerber Fmt 4.5, Leading zero omitted, Abs format (unit mm)*
G04 Created by KiCad (PCBNEW 6.0.11+dfsg-1) date 2025-03-20 11:06:59*
%MOMM*%
%LPD*%
G01*
G04 APERTURE LIST*
%ADD10C,0.100000*%
%ADD11C,0.200000*%
%ADD12C,0.320000*%
G04 APERTURE END LIST*
D10*
X14246600Y-9597200D02*
G75*
G03*
X14246600Y-9597200I-3500000J0D01*
G01*
D11*
D12*
X7437000Y-9437200D02*
X7757000Y-9757200D01*
X7757000Y-9437200D02*
X7437000Y-9757200D01*
X10586600Y-12586800D02*
X10906600Y-12906800D01*
X10906600Y-12586800D02*
X10586600Y-12906800D01*
X13736200Y-9437200D02*
X14056200Y-9757200D01*
X14056200Y-9437200D02*
X13736200Y-9757200D01*
D11*
X7499219Y-13412676D02*
X7499219Y-13212676D01*
X7546838Y-13212676D01*
X7575409Y-13222200D01*
X7594457Y-13241248D01*
X7603981Y-13260295D01*
X7613505Y-13298390D01*
X7613505Y-13326962D01*
X7603981Y-13365057D01*
X7594457Y-13384105D01*
X7575409Y-13403152D01*
X7546838Y-13412676D01*
X7499219Y-13412676D01*
X7699219Y-13412676D02*
X7699219Y-13279343D01*
X7699219Y-13317438D02*
X7708743Y-13298390D01*
X7718267Y-13288867D01*
X7737314Y-13279343D01*
X7756362Y-13279343D01*
X7823028Y-13412676D02*
X7823028Y-13279343D01*
X7823028Y-13212676D02*
X7813505Y-13222200D01*
X7823028Y-13231724D01*
X7832552Y-13222200D01*
X7823028Y-13212676D01*
X7823028Y-13231724D01*
X7946838Y-13412676D02*
X7927790Y-13403152D01*
X7918267Y-13384105D01*
X7918267Y-13212676D01*
X8051600Y-13412676D02*
X8032552Y-13403152D01*
X8023028Y-13384105D01*
X8023028Y-13212676D01*
X8280171Y-13412676D02*
X8280171Y-13212676D01*
X8346838Y-13355533D01*
X8413505Y-13212676D01*
X8413505Y-13412676D01*
X8594457Y-13412676D02*
X8594457Y-13307914D01*
X8584933Y-13288867D01*
X8565886Y-13279343D01*
X8527790Y-13279343D01*
X8508743Y-13288867D01*
X8594457Y-13403152D02*
X8575410Y-13412676D01*
X8527790Y-13412676D01*
X8508743Y-13403152D01*
X8499219Y-13384105D01*
X8499219Y-13365057D01*
X8508743Y-13346009D01*
X8527790Y-13336486D01*
X8575410Y-13336486D01*
X8594457Y-13326962D01*
X8689695Y-13279343D02*
X8689695Y-13479343D01*
X8689695Y-13288867D02*
X8708743Y-13279343D01*
X8746838Y-13279343D01*
X8765886Y-13288867D01*
X8775410Y-13298390D01*
X8784933Y-13317438D01*
X8784933Y-13374581D01*
X8775410Y-13393628D01*
X8765886Y-13403152D01*
X8746838Y-13412676D01*
X8708743Y-13412676D01*
X8689695Y-13403152D01*
X8870648Y-13393628D02*
X8880171Y-13403152D01*
X8870648Y-13412676D01*
X8861124Y-13403152D01*
X8870648Y-13393628D01*
X8870648Y-13412676D01*
X8870648Y-13288867D02*
X8880171Y-13298390D01*
X8870648Y-13307914D01*
X8861124Y-13298390D01*
X8870648Y-13288867D01*
X8870648Y-13307914D01*
X7041600Y-13642200D02*
X7241600Y-13842200D01*
X7241600Y-13642200D02*
X7041600Y-13842200D01*
X7480171Y-13632676D02*
X7603981Y-13632676D01*
X7537314Y-13708867D01*
X7565886Y-13708867D01*
X7584933Y-13718390D01*
X7594457Y-13727914D01*
X7603981Y-13746962D01*
X7603981Y-13794581D01*
X7594457Y-13813628D01*
X7584933Y-13823152D01*
X7565886Y-13832676D01*
X7508743Y-13832676D01*
X7489695Y-13823152D01*
X7480171Y-13813628D01*
X7689695Y-13813628D02*
X7699219Y-13823152D01*
X7689695Y-13832676D01*
X7680171Y-13823152D01*
X7689695Y-13813628D01*
X7689695Y-13832676D01*
X7775409Y-13651724D02*
X7784933Y-13642200D01*
X7803981Y-13632676D01*
X7851600Y-13632676D01*
X7870648Y-13642200D01*
X7880171Y-13651724D01*
X7889695Y-13670771D01*
X7889695Y-13689819D01*
X7880171Y-13718390D01*
X7765886Y-13832676D01*
X7889695Y-13832676D01*
X8013505Y-13632676D02*
X8032552Y-13632676D01*
X8051600Y-13642200D01*
X8061124Y-13651724D01*
X8070648Y-13670771D01*
X8080171Y-13708867D01*
X8080171Y-13756486D01*
X8070648Y-13794581D01*
X8061124Y-13813628D01*
X8051600Y-13823152D01*
X8032552Y-13832676D01*
X8013505Y-13832676D01*
X7994457Y-13823152D01*
X7984933Y-13813628D01*
X7975409Y-13794581D01*
X7965886Y-13756486D01*
X7965886Y-13708867D01*
X7975409Y-13670771D01*
X7984933Y-13651724D01*
X7994457Y-13642200D01*
X8013505Y-13632676D01*
X8203981Y-13632676D02*
X8223028Y-13632676D01*
X8242076Y-13642200D01*
X8251600Y-13651724D01*
X8261124Y-13670771D01*
X8270648Y-13708867D01*
X8270648Y-13756486D01*
X8261124Y-13794581D01*
X8251600Y-13813628D01*
X8242076Y-13823152D01*
X8223028Y-13832676D01*
X8203981Y-13832676D01*
X8184933Y-13823152D01*
X8175409Y-13813628D01*
X8165886Y-13794581D01*
X8156362Y-13756486D01*
X8156362Y-13708867D01*
X8165886Y-13670771D01*
X8175409Y-13651724D01*
X8184933Y-13642200D01*
X8203981Y-13632676D01*
X8356362Y-13832676D02*
X8356362Y-13699343D01*
X8356362Y-13718390D02*
X8365886Y-13708867D01*
X8384933Y-13699343D01*
X8413505Y-13699343D01*
X8432552Y-13708867D01*
X8442076Y-13727914D01*
X8442076Y-13832676D01*
X8442076Y-13727914D02*
X8451600Y-13708867D01*
X8470648Y-13699343D01*
X8499219Y-13699343D01*
X8518267Y-13708867D01*
X8527790Y-13727914D01*
X8527790Y-13832676D01*
X8623029Y-13832676D02*
X8623029Y-13699343D01*
X8623029Y-13718390D02*
X8632552Y-13708867D01*
X8651600Y-13699343D01*
X8680171Y-13699343D01*
X8699219Y-13708867D01*
X8708743Y-13727914D01*
X8708743Y-13832676D01*
X8708743Y-13727914D02*
X8718267Y-13708867D01*
X8737314Y-13699343D01*
X8765886Y-13699343D01*
X8784933Y-13708867D01*
X8794457Y-13727914D01*
X8794457Y-13832676D01*
X9184933Y-13623152D02*
X9013505Y-13880295D01*
X9442076Y-13632676D02*
X9461124Y-13632676D01*
X9480171Y-13642200D01*
X9489695Y-13651724D01*
X9499219Y-13670771D01*
X9508743Y-13708867D01*
X9508743Y-13756486D01*
X9499219Y-13794581D01*
X9489695Y-13813628D01*
X9480171Y-13823152D01*
X9461124Y-13832676D01*
X9442076Y-13832676D01*
X9423029Y-13823152D01*
X9413505Y-13813628D01*
X9403981Y-13794581D01*
X9394457Y-13756486D01*
X9394457Y-13708867D01*
X9403981Y-13670771D01*
X9413505Y-13651724D01*
X9423029Y-13642200D01*
X9442076Y-13632676D01*
X9594457Y-13813628D02*
X9603981Y-13823152D01*
X9594457Y-13832676D01*
X9584933Y-13823152D01*
X9594457Y-13813628D01*
X9594457Y-13832676D01*
X9794457Y-13832676D02*
X9680171Y-13832676D01*
X9737314Y-13832676D02*
X9737314Y-13632676D01*
X9718267Y-13661248D01*
X9699219Y-13680295D01*
X9680171Y-13689819D01*
X9870648Y-13651724D02*
X9880171Y-13642200D01*
X9899219Y-13632676D01*
X9946838Y-13632676D01*
X9965886Y-13642200D01*
X9975410Y-13651724D01*
X9984933Y-13670771D01*
X9984933Y-13689819D01*
X9975410Y-13718390D01*
X9861124Y-13832676D01*
X9984933Y-13832676D01*
X10156362Y-13632676D02*
X10118267Y-13632676D01*
X10099219Y-13642200D01*
X10089695Y-13651724D01*
X10070648Y-13680295D01*
X10061124Y-13718390D01*
X10061124Y-13794581D01*
X10070648Y-13813628D01*
X10080171Y-13823152D01*
X10099219Y-13832676D01*
X10137314Y-13832676D01*
X10156362Y-13823152D01*
X10165886Y-13813628D01*
X10175410Y-13794581D01*
X10175410Y-13746962D01*
X10165886Y-13727914D01*
X10156362Y-13718390D01*
X10137314Y-13708867D01*
X10099219Y-13708867D01*
X10080171Y-13718390D01*
X10070648Y-13727914D01*
X10061124Y-13746962D01*
X10299219Y-13632676D02*
X10318267Y-13632676D01*
X10337314Y-13642200D01*
X10346838Y-13651724D01*
X10356362Y-13670771D01*
X10365886Y-13708867D01*
X10365886Y-13756486D01*
X10356362Y-13794581D01*
X10346838Y-13813628D01*
X10337314Y-13823152D01*
X10318267Y-13832676D01*
X10299219Y-13832676D01*
X10280171Y-13823152D01*
X10270648Y-13813628D01*
X10261124Y-13794581D01*
X10251600Y-13756486D01*
X10251600Y-13708867D01*
X10261124Y-13670771D01*
X10270648Y-13651724D01*
X10280171Y-13642200D01*
X10299219Y-13632676D01*
X10442076Y-13632676D02*
X10442076Y-13670771D01*
X10518267Y-13632676D02*
X10518267Y-13670771D01*
X10813505Y-13908867D02*
X10803981Y-13899343D01*
X10784933Y-13870771D01*
X10775410Y-13851724D01*
X10765886Y-13823152D01*
X10756362Y-13775533D01*
X10756362Y-13737438D01*
X10765886Y-13689819D01*
X10775410Y-13661248D01*
X10784933Y-13642200D01*
X10803981Y-13613628D01*
X10813505Y-13604105D01*
X10870648Y-13632676D02*
X10994457Y-13632676D01*
X10927790Y-13708867D01*
X10956362Y-13708867D01*
X10975410Y-13718390D01*
X10984933Y-13727914D01*
X10994457Y-13746962D01*
X10994457Y-13794581D01*
X10984933Y-13813628D01*
X10975410Y-13823152D01*
X10956362Y-13832676D01*
X10899219Y-13832676D01*
X10880171Y-13823152D01*
X10870648Y-13813628D01*
X11232552Y-13832676D02*
X11232552Y-13632676D01*
X11318267Y-13832676D02*
X11318267Y-13727914D01*
X11308743Y-13708867D01*
X11289695Y-13699343D01*
X11261124Y-13699343D01*
X11242076Y-13708867D01*
X11232552Y-13718390D01*
X11442076Y-13832676D02*
X11423028Y-13823152D01*
X11413505Y-13813628D01*
X11403981Y-13794581D01*
X11403981Y-13737438D01*
X11413505Y-13718390D01*
X11423028Y-13708867D01*
X11442076Y-13699343D01*
X11470648Y-13699343D01*
X11489695Y-13708867D01*
X11499219Y-13718390D01*
X11508743Y-13737438D01*
X11508743Y-13794581D01*
X11499219Y-13813628D01*
X11489695Y-13823152D01*
X11470648Y-13832676D01*
X11442076Y-13832676D01*
X11623028Y-13832676D02*
X11603981Y-13823152D01*
X11594457Y-13804105D01*
X11594457Y-13632676D01*
X11775409Y-13823152D02*
X11756362Y-13832676D01*
X11718267Y-13832676D01*
X11699219Y-13823152D01*
X11689695Y-13804105D01*
X11689695Y-13727914D01*
X11699219Y-13708867D01*
X11718267Y-13699343D01*
X11756362Y-13699343D01*
X11775409Y-13708867D01*
X11784933Y-13727914D01*
X11784933Y-13746962D01*
X11689695Y-13766009D01*
X11861124Y-13823152D02*
X11880171Y-13832676D01*
X11918267Y-13832676D01*
X11937314Y-13823152D01*
X11946838Y-13804105D01*
X11946838Y-13794581D01*
X11937314Y-13775533D01*
X11918267Y-13766009D01*
X11889695Y-13766009D01*
X11870648Y-13756486D01*
X11861124Y-13737438D01*
X11861124Y-13727914D01*
X11870648Y-13708867D01*
X11889695Y-13699343D01*
X11918267Y-13699343D01*
X11937314Y-13708867D01*
X12013505Y-13908867D02*
X12023028Y-13899343D01*
X12042076Y-13870771D01*
X12051600Y-13851724D01*
X12061124Y-13823152D01*
X12070648Y-13775533D01*
X12070648Y-13737438D01*
X12061124Y-13689819D01*
X12051600Y-13661248D01*
X12042076Y-13642200D01*
X12023028Y-13613628D01*
X12013505Y-13604105D01*
X12375409Y-13908867D02*
X12365886Y-13899343D01*
X12346838Y-13870771D01*
X12337314Y-13851724D01*
X12327790Y-13823152D01*
X12318267Y-13775533D01*
X12318267Y-13737438D01*
X12327790Y-13689819D01*
X12337314Y-13661248D01*
X12346838Y-13642200D01*
X12365886Y-13613628D01*
X12375409Y-13604105D01*
X12451600Y-13699343D02*
X12451600Y-13832676D01*
X12451600Y-13718390D02*
X12461124Y-13708867D01*
X12480171Y-13699343D01*
X12508743Y-13699343D01*
X12527790Y-13708867D01*
X12537314Y-13727914D01*
X12537314Y-13832676D01*
X12661124Y-13832676D02*
X12642076Y-13823152D01*
X12632552Y-13813628D01*
X12623028Y-13794581D01*
X12623028Y-13737438D01*
X12632552Y-13718390D01*
X12642076Y-13708867D01*
X12661124Y-13699343D01*
X12689695Y-13699343D01*
X12708743Y-13708867D01*
X12718267Y-13718390D01*
X12727790Y-13737438D01*
X12727790Y-13794581D01*
X12718267Y-13813628D01*
X12708743Y-13823152D01*
X12689695Y-13832676D01*
X12661124Y-13832676D01*
X12784933Y-13699343D02*
X12861124Y-13699343D01*
X12813505Y-13632676D02*
X12813505Y-13804105D01*
X12823028Y-13823152D01*
X12842076Y-13832676D01*
X12861124Y-13832676D01*
X13080171Y-13699343D02*
X13080171Y-13899343D01*
X13080171Y-13708867D02*
X13099219Y-13699343D01*
X13137314Y-13699343D01*
X13156362Y-13708867D01*
X13165886Y-13718390D01*
X13175409Y-13737438D01*
X13175409Y-13794581D01*
X13165886Y-13813628D01*
X13156362Y-13823152D01*
X13137314Y-13832676D01*
X13099219Y-13832676D01*
X13080171Y-13823152D01*
X13289695Y-13832676D02*
X13270648Y-13823152D01*
X13261124Y-13804105D01*
X13261124Y-13632676D01*
X13451600Y-13832676D02*
X13451600Y-13727914D01*
X13442076Y-13708867D01*
X13423028Y-13699343D01*
X13384933Y-13699343D01*
X13365886Y-13708867D01*
X13451600Y-13823152D02*
X13432552Y-13832676D01*
X13384933Y-13832676D01*
X13365886Y-13823152D01*
X13356362Y-13804105D01*
X13356362Y-13785057D01*
X13365886Y-13766009D01*
X13384933Y-13756486D01*
X13432552Y-13756486D01*
X13451600Y-13746962D01*
X13518267Y-13699343D02*
X13594457Y-13699343D01*
X13546838Y-13632676D02*
X13546838Y-13804105D01*
X13556362Y-13823152D01*
X13575409Y-13832676D01*
X13594457Y-13832676D01*
X13737314Y-13823152D02*
X13718267Y-13832676D01*
X13680171Y-13832676D01*
X13661124Y-13823152D01*
X13651600Y-13804105D01*
X13651600Y-13727914D01*
X13661124Y-13708867D01*
X13680171Y-13699343D01*
X13718267Y-13699343D01*
X13737314Y-13708867D01*
X13746838Y-13727914D01*
X13746838Y-13746962D01*
X13651600Y-13766009D01*
X13918267Y-13832676D02*
X13918267Y-13632676D01*
X13918267Y-13823152D02*
X13899219Y-13832676D01*
X13861124Y-13832676D01*
X13842076Y-13823152D01*
X13832552Y-13813628D01*
X13823028Y-13794581D01*
X13823028Y-13737438D01*
X13832552Y-13718390D01*
X13842076Y-13708867D01*
X13861124Y-13699343D01*
X13899219Y-13699343D01*
X13918267Y-13708867D01*
X13994457Y-13908867D02*
X14003981Y-13899343D01*
X14023028Y-13870771D01*
X14032552Y-13851724D01*
X14042076Y-13823152D01*
X14051600Y-13775533D01*
X14051600Y-13737438D01*
X14042076Y-13689819D01*
X14032552Y-13661248D01*
X14023028Y-13642200D01*
X14003981Y-13613628D01*
X13994457Y-13604105D01*
M02*
