G04 #@! TF.GenerationSoftware,KiCad,Pcbnew,6.0.11+dfsg-1*
G04 #@! TF.CreationDate,2025-03-20T11:06:45-04:00*
G04 #@! TF.ProjectId,foc-board,666f632d-626f-4617-9264-2e6b69636164,rev?*
G04 #@! TF.SameCoordinates,Original*
G04 #@! TF.FileFunction,Legend,Bot*
G04 #@! TF.FilePolarity,Positive*
%FSLAX46Y46*%
G04 Gerber Fmt 4.6, Leading zero omitted, Abs format (unit mm)*
G04 Created by KiCad (PCBNEW 6.0.11+dfsg-1) date 2025-03-20 11:06:45*
%MOMM*%
%LPD*%
G01*
G04 APERTURE LIST*
G04 Aperture macros list*
%AMRoundRect*
0 Rectangle with rounded corners*
0 $1 Rounding radius*
0 $2 $3 $4 $5 $6 $7 $8 $9 X,Y pos of 4 corners*
0 Add a 4 corners polygon primitive as box body*
4,1,4,$2,$3,$4,$5,$6,$7,$8,$9,$2,$3,0*
0 Add four circle primitives for the rounded corners*
1,1,$1+$1,$2,$3*
1,1,$1+$1,$4,$5*
1,1,$1+$1,$6,$7*
1,1,$1+$1,$8,$9*
0 Add four rect primitives between the rounded corners*
20,1,$1+$1,$2,$3,$4,$5,0*
20,1,$1+$1,$4,$5,$6,$7,0*
20,1,$1+$1,$6,$7,$8,$9,0*
20,1,$1+$1,$8,$9,$2,$3,0*%
G04 Aperture macros list end*
%ADD10C,0.150000*%
%ADD11C,0.120000*%
%ADD12RoundRect,0.100000X-0.850000X-0.850000X0.850000X-0.850000X0.850000X0.850000X-0.850000X0.850000X0*%
%ADD13C,3.400000*%
%ADD14RoundRect,0.100000X1.200000X1.200000X-1.200000X1.200000X-1.200000X-1.200000X1.200000X-1.200000X0*%
%ADD15C,2.600000*%
%ADD16RoundRect,0.100000X0.425000X-0.425000X0.425000X0.425000X-0.425000X0.425000X-0.425000X-0.425000X0*%
%ADD17O,1.050000X1.050000*%
%ADD18RoundRect,0.100000X-0.425000X-0.425000X0.425000X-0.425000X0.425000X0.425000X-0.425000X0.425000X0*%
%ADD19RoundRect,0.350000X0.750000X-0.600000X0.750000X0.600000X-0.750000X0.600000X-0.750000X-0.600000X0*%
%ADD20O,2.200000X1.900000*%
%ADD21RoundRect,0.100000X0.550000X-0.550000X0.550000X0.550000X-0.550000X0.550000X-0.550000X-0.550000X0*%
%ADD22C,1.300000*%
%ADD23O,2.600000X1.300000*%
%ADD24RoundRect,1.600000X-1.500000X1.500000X-1.500000X-1.500000X1.500000X-1.500000X1.500000X1.500000X0*%
%ADD25C,6.200000*%
%ADD26RoundRect,0.100000X0.850000X0.850000X-0.850000X0.850000X-0.850000X-0.850000X0.850000X-0.850000X0*%
%ADD27O,1.900000X1.900000*%
%ADD28RoundRect,0.100000X-0.350000X0.300000X-0.350000X-0.300000X0.350000X-0.300000X0.350000X0.300000X0*%
%ADD29RoundRect,0.100000X0.350000X-0.300000X0.350000X0.300000X-0.350000X0.300000X-0.350000X-0.300000X0*%
%ADD30RoundRect,0.250000X-0.150000X0.825000X-0.150000X-0.825000X0.150000X-0.825000X0.150000X0.825000X0*%
%ADD31RoundRect,0.350000X-0.350000X-0.450000X0.350000X-0.450000X0.350000X0.450000X-0.350000X0.450000X0*%
%ADD32RoundRect,0.100000X1.150000X-1.250000X1.150000X1.250000X-1.150000X1.250000X-1.150000X-1.250000X0*%
%ADD33RoundRect,0.100000X0.300000X0.350000X-0.300000X0.350000X-0.300000X-0.350000X0.300000X-0.350000X0*%
%ADD34RoundRect,0.350000X-0.475000X0.250000X-0.475000X-0.250000X0.475000X-0.250000X0.475000X0.250000X0*%
%ADD35RoundRect,0.200000X-0.637500X-0.100000X0.637500X-0.100000X0.637500X0.100000X-0.637500X0.100000X0*%
%ADD36RoundRect,0.350000X0.475000X-0.250000X0.475000X0.250000X-0.475000X0.250000X-0.475000X-0.250000X0*%
%ADD37RoundRect,0.350000X0.450000X-0.350000X0.450000X0.350000X-0.450000X0.350000X-0.450000X-0.350000X0*%
%ADD38RoundRect,0.350000X0.350000X0.450000X-0.350000X0.450000X-0.350000X-0.450000X0.350000X-0.450000X0*%
G04 APERTURE END LIST*
D10*
X90098190Y-103846380D02*
X89764857Y-104846380D01*
X89431523Y-103846380D01*
X89241047Y-103846380D02*
X88669619Y-103846380D01*
X88955333Y-104846380D02*
X88955333Y-103846380D01*
X88383904Y-104560666D02*
X87907714Y-104560666D01*
X88479142Y-104846380D02*
X88145809Y-103846380D01*
X87812476Y-104846380D01*
X86907714Y-104846380D02*
X87241047Y-104370190D01*
X87479142Y-104846380D02*
X87479142Y-103846380D01*
X87098190Y-103846380D01*
X87002952Y-103894000D01*
X86955333Y-103941619D01*
X86907714Y-104036857D01*
X86907714Y-104179714D01*
X86955333Y-104274952D01*
X87002952Y-104322571D01*
X87098190Y-104370190D01*
X87479142Y-104370190D01*
X85955333Y-103894000D02*
X86050571Y-103846380D01*
X86193428Y-103846380D01*
X86336285Y-103894000D01*
X86431523Y-103989238D01*
X86479142Y-104084476D01*
X86526761Y-104274952D01*
X86526761Y-104417809D01*
X86479142Y-104608285D01*
X86431523Y-104703523D01*
X86336285Y-104798761D01*
X86193428Y-104846380D01*
X86098190Y-104846380D01*
X85955333Y-104798761D01*
X85907714Y-104751142D01*
X85907714Y-104417809D01*
X86098190Y-104417809D01*
X85479142Y-104322571D02*
X85145809Y-104322571D01*
X85002952Y-104846380D02*
X85479142Y-104846380D01*
X85479142Y-103846380D01*
X85002952Y-103846380D01*
X84717238Y-103846380D02*
X84145809Y-103846380D01*
X84431523Y-104846380D02*
X84431523Y-103846380D01*
X90145904Y-110132761D02*
X90003047Y-110180380D01*
X89764952Y-110180380D01*
X89669714Y-110132761D01*
X89622095Y-110085142D01*
X89574476Y-109989904D01*
X89574476Y-109894666D01*
X89622095Y-109799428D01*
X89669714Y-109751809D01*
X89764952Y-109704190D01*
X89955428Y-109656571D01*
X90050666Y-109608952D01*
X90098285Y-109561333D01*
X90145904Y-109466095D01*
X90145904Y-109370857D01*
X90098285Y-109275619D01*
X90050666Y-109228000D01*
X89955428Y-109180380D01*
X89717333Y-109180380D01*
X89574476Y-109228000D01*
X89241142Y-109180380D02*
X89003047Y-110180380D01*
X88812571Y-109466095D01*
X88622095Y-110180380D01*
X88384000Y-109180380D01*
X87431619Y-110085142D02*
X87479238Y-110132761D01*
X87622095Y-110180380D01*
X87717333Y-110180380D01*
X87860190Y-110132761D01*
X87955428Y-110037523D01*
X88003047Y-109942285D01*
X88050666Y-109751809D01*
X88050666Y-109608952D01*
X88003047Y-109418476D01*
X87955428Y-109323238D01*
X87860190Y-109228000D01*
X87717333Y-109180380D01*
X87622095Y-109180380D01*
X87479238Y-109228000D01*
X87431619Y-109275619D01*
X86526857Y-110180380D02*
X87003047Y-110180380D01*
X87003047Y-109180380D01*
X86193523Y-110180380D02*
X86193523Y-109180380D01*
X85622095Y-110180380D02*
X86050666Y-109608952D01*
X85622095Y-109180380D02*
X86193523Y-109751809D01*
X107687904Y-104846380D02*
X107687904Y-103846380D01*
X107116476Y-104846380D01*
X107116476Y-103846380D01*
X106068857Y-104751142D02*
X106116476Y-104798761D01*
X106259333Y-104846380D01*
X106354571Y-104846380D01*
X106497428Y-104798761D01*
X106592666Y-104703523D01*
X106640285Y-104608285D01*
X106687904Y-104417809D01*
X106687904Y-104274952D01*
X106640285Y-104084476D01*
X106592666Y-103989238D01*
X106497428Y-103894000D01*
X106354571Y-103846380D01*
X106259333Y-103846380D01*
X106116476Y-103894000D01*
X106068857Y-103941619D01*
X105687904Y-104798761D02*
X105545047Y-104846380D01*
X105306952Y-104846380D01*
X105211714Y-104798761D01*
X105164095Y-104751142D01*
X105116476Y-104655904D01*
X105116476Y-104560666D01*
X105164095Y-104465428D01*
X105211714Y-104417809D01*
X105306952Y-104370190D01*
X105497428Y-104322571D01*
X105592666Y-104274952D01*
X105640285Y-104227333D01*
X105687904Y-104132095D01*
X105687904Y-104036857D01*
X105640285Y-103941619D01*
X105592666Y-103894000D01*
X105497428Y-103846380D01*
X105259333Y-103846380D01*
X105116476Y-103894000D01*
X90257047Y-107592761D02*
X90114190Y-107640380D01*
X89876095Y-107640380D01*
X89780857Y-107592761D01*
X89733238Y-107545142D01*
X89685619Y-107449904D01*
X89685619Y-107354666D01*
X89733238Y-107259428D01*
X89780857Y-107211809D01*
X89876095Y-107164190D01*
X90066571Y-107116571D01*
X90161809Y-107068952D01*
X90209428Y-107021333D01*
X90257047Y-106926095D01*
X90257047Y-106830857D01*
X90209428Y-106735619D01*
X90161809Y-106688000D01*
X90066571Y-106640380D01*
X89828476Y-106640380D01*
X89685619Y-106688000D01*
X89352285Y-106640380D02*
X89114190Y-107640380D01*
X88923714Y-106926095D01*
X88733238Y-107640380D01*
X88495142Y-106640380D01*
X88114190Y-107640380D02*
X88114190Y-106640380D01*
X87876095Y-106640380D01*
X87733238Y-106688000D01*
X87638000Y-106783238D01*
X87590380Y-106878476D01*
X87542761Y-107068952D01*
X87542761Y-107211809D01*
X87590380Y-107402285D01*
X87638000Y-107497523D01*
X87733238Y-107592761D01*
X87876095Y-107640380D01*
X88114190Y-107640380D01*
X87114190Y-107640380D02*
X87114190Y-106640380D01*
X86447523Y-106640380D02*
X86257047Y-106640380D01*
X86161809Y-106688000D01*
X86066571Y-106783238D01*
X86018952Y-106973714D01*
X86018952Y-107307047D01*
X86066571Y-107497523D01*
X86161809Y-107592761D01*
X86257047Y-107640380D01*
X86447523Y-107640380D01*
X86542761Y-107592761D01*
X86638000Y-107497523D01*
X86685619Y-107307047D01*
X86685619Y-106973714D01*
X86638000Y-106783238D01*
X86542761Y-106688000D01*
X86447523Y-106640380D01*
X108505428Y-108656380D02*
X108505428Y-107656380D01*
X108172095Y-108370666D01*
X107838761Y-107656380D01*
X107838761Y-108656380D01*
X107172095Y-107656380D02*
X106981619Y-107656380D01*
X106886380Y-107704000D01*
X106791142Y-107799238D01*
X106743523Y-107989714D01*
X106743523Y-108323047D01*
X106791142Y-108513523D01*
X106886380Y-108608761D01*
X106981619Y-108656380D01*
X107172095Y-108656380D01*
X107267333Y-108608761D01*
X107362571Y-108513523D01*
X107410190Y-108323047D01*
X107410190Y-107989714D01*
X107362571Y-107799238D01*
X107267333Y-107704000D01*
X107172095Y-107656380D01*
X106362571Y-108608761D02*
X106219714Y-108656380D01*
X105981619Y-108656380D01*
X105886380Y-108608761D01*
X105838761Y-108561142D01*
X105791142Y-108465904D01*
X105791142Y-108370666D01*
X105838761Y-108275428D01*
X105886380Y-108227809D01*
X105981619Y-108180190D01*
X106172095Y-108132571D01*
X106267333Y-108084952D01*
X106314952Y-108037333D01*
X106362571Y-107942095D01*
X106362571Y-107846857D01*
X106314952Y-107751619D01*
X106267333Y-107704000D01*
X106172095Y-107656380D01*
X105934000Y-107656380D01*
X105791142Y-107704000D01*
X105362571Y-108656380D02*
X105362571Y-107656380D01*
X107021238Y-106021142D02*
X107068857Y-106068761D01*
X107211714Y-106116380D01*
X107306952Y-106116380D01*
X107449809Y-106068761D01*
X107545047Y-105973523D01*
X107592666Y-105878285D01*
X107640285Y-105687809D01*
X107640285Y-105544952D01*
X107592666Y-105354476D01*
X107545047Y-105259238D01*
X107449809Y-105164000D01*
X107306952Y-105116380D01*
X107211714Y-105116380D01*
X107068857Y-105164000D01*
X107021238Y-105211619D01*
X106116476Y-106116380D02*
X106592666Y-106116380D01*
X106592666Y-105116380D01*
X105783142Y-106116380D02*
X105783142Y-105116380D01*
X105211714Y-106116380D02*
X105640285Y-105544952D01*
X105211714Y-105116380D02*
X105783142Y-105687809D01*
X108505428Y-107386380D02*
X108505428Y-106386380D01*
X108172095Y-107100666D01*
X107838761Y-106386380D01*
X107838761Y-107386380D01*
X107362571Y-107386380D02*
X107362571Y-106386380D01*
X106934000Y-107338761D02*
X106791142Y-107386380D01*
X106553047Y-107386380D01*
X106457809Y-107338761D01*
X106410190Y-107291142D01*
X106362571Y-107195904D01*
X106362571Y-107100666D01*
X106410190Y-107005428D01*
X106457809Y-106957809D01*
X106553047Y-106910190D01*
X106743523Y-106862571D01*
X106838761Y-106814952D01*
X106886380Y-106767333D01*
X106934000Y-106672095D01*
X106934000Y-106576857D01*
X106886380Y-106481619D01*
X106838761Y-106434000D01*
X106743523Y-106386380D01*
X106505428Y-106386380D01*
X106362571Y-106434000D01*
X105743523Y-106386380D02*
X105553047Y-106386380D01*
X105457809Y-106434000D01*
X105362571Y-106529238D01*
X105314952Y-106719714D01*
X105314952Y-107053047D01*
X105362571Y-107243523D01*
X105457809Y-107338761D01*
X105553047Y-107386380D01*
X105743523Y-107386380D01*
X105838761Y-107338761D01*
X105934000Y-107243523D01*
X105981619Y-107053047D01*
X105981619Y-106719714D01*
X105934000Y-106529238D01*
X105838761Y-106434000D01*
X105743523Y-106386380D01*
X90288857Y-111704380D02*
X90288857Y-110704380D01*
X89717428Y-111704380D01*
X89717428Y-110704380D01*
X88669809Y-111704380D02*
X89003142Y-111228190D01*
X89241238Y-111704380D02*
X89241238Y-110704380D01*
X88860285Y-110704380D01*
X88765047Y-110752000D01*
X88717428Y-110799619D01*
X88669809Y-110894857D01*
X88669809Y-111037714D01*
X88717428Y-111132952D01*
X88765047Y-111180571D01*
X88860285Y-111228190D01*
X89241238Y-111228190D01*
X88288857Y-111656761D02*
X88146000Y-111704380D01*
X87907904Y-111704380D01*
X87812666Y-111656761D01*
X87765047Y-111609142D01*
X87717428Y-111513904D01*
X87717428Y-111418666D01*
X87765047Y-111323428D01*
X87812666Y-111275809D01*
X87907904Y-111228190D01*
X88098380Y-111180571D01*
X88193619Y-111132952D01*
X88241238Y-111085333D01*
X88288857Y-110990095D01*
X88288857Y-110894857D01*
X88241238Y-110799619D01*
X88193619Y-110752000D01*
X88098380Y-110704380D01*
X87860285Y-110704380D01*
X87717428Y-110752000D01*
X87431714Y-110704380D02*
X86860285Y-110704380D01*
X87146000Y-111704380D02*
X87146000Y-110704380D01*
X96464380Y-125531714D02*
X95464380Y-125531714D01*
X95464380Y-125769809D01*
X95512000Y-125912666D01*
X95607238Y-126007904D01*
X95702476Y-126055523D01*
X95892952Y-126103142D01*
X96035809Y-126103142D01*
X96226285Y-126055523D01*
X96321523Y-126007904D01*
X96416761Y-125912666D01*
X96464380Y-125769809D01*
X96464380Y-125531714D01*
X95559619Y-126484095D02*
X95512000Y-126531714D01*
X95464380Y-126626952D01*
X95464380Y-126865047D01*
X95512000Y-126960285D01*
X95559619Y-127007904D01*
X95654857Y-127055523D01*
X95750095Y-127055523D01*
X95892952Y-127007904D01*
X96464380Y-126436476D01*
X96464380Y-127055523D01*
X96464380Y-128007904D02*
X96464380Y-127436476D01*
X96464380Y-127722190D02*
X95464380Y-127722190D01*
X95607238Y-127626952D01*
X95702476Y-127531714D01*
X95750095Y-127436476D01*
X96464380Y-121721714D02*
X95464380Y-121721714D01*
X95464380Y-121959809D01*
X95512000Y-122102666D01*
X95607238Y-122197904D01*
X95702476Y-122245523D01*
X95892952Y-122293142D01*
X96035809Y-122293142D01*
X96226285Y-122245523D01*
X96321523Y-122197904D01*
X96416761Y-122102666D01*
X96464380Y-121959809D01*
X96464380Y-121721714D01*
X95559619Y-122674095D02*
X95512000Y-122721714D01*
X95464380Y-122816952D01*
X95464380Y-123055047D01*
X95512000Y-123150285D01*
X95559619Y-123197904D01*
X95654857Y-123245523D01*
X95750095Y-123245523D01*
X95892952Y-123197904D01*
X96464380Y-122626476D01*
X96464380Y-123245523D01*
X95464380Y-123864571D02*
X95464380Y-123959809D01*
X95512000Y-124055047D01*
X95559619Y-124102666D01*
X95654857Y-124150285D01*
X95845333Y-124197904D01*
X96083428Y-124197904D01*
X96273904Y-124150285D01*
X96369142Y-124102666D01*
X96416761Y-124055047D01*
X96464380Y-123959809D01*
X96464380Y-123864571D01*
X96416761Y-123769333D01*
X96369142Y-123721714D01*
X96273904Y-123674095D01*
X96083428Y-123626476D01*
X95845333Y-123626476D01*
X95654857Y-123674095D01*
X95559619Y-123721714D01*
X95512000Y-123769333D01*
X95464380Y-123864571D01*
X128777904Y-101052380D02*
X128777904Y-101861904D01*
X128730285Y-101957142D01*
X128682666Y-102004761D01*
X128587428Y-102052380D01*
X128396952Y-102052380D01*
X128301714Y-102004761D01*
X128254095Y-101957142D01*
X128206476Y-101861904D01*
X128206476Y-101052380D01*
X127682666Y-102052380D02*
X127492190Y-102052380D01*
X127396952Y-102004761D01*
X127349333Y-101957142D01*
X127254095Y-101814285D01*
X127206476Y-101623809D01*
X127206476Y-101242857D01*
X127254095Y-101147619D01*
X127301714Y-101100000D01*
X127396952Y-101052380D01*
X127587428Y-101052380D01*
X127682666Y-101100000D01*
X127730285Y-101147619D01*
X127777904Y-101242857D01*
X127777904Y-101480952D01*
X127730285Y-101576190D01*
X127682666Y-101623809D01*
X127587428Y-101671428D01*
X127396952Y-101671428D01*
X127301714Y-101623809D01*
X127254095Y-101576190D01*
X127206476Y-101480952D01*
X90114285Y-115514380D02*
X90114285Y-114514380D01*
X89876190Y-114514380D01*
X89733333Y-114562000D01*
X89638095Y-114657238D01*
X89590476Y-114752476D01*
X89542857Y-114942952D01*
X89542857Y-115085809D01*
X89590476Y-115276285D01*
X89638095Y-115371523D01*
X89733333Y-115466761D01*
X89876190Y-115514380D01*
X90114285Y-115514380D01*
X88590476Y-115514380D02*
X89161904Y-115514380D01*
X88876190Y-115514380D02*
X88876190Y-114514380D01*
X88971428Y-114657238D01*
X89066666Y-114752476D01*
X89161904Y-114800095D01*
X87685714Y-114514380D02*
X88161904Y-114514380D01*
X88209523Y-114990571D01*
X88161904Y-114942952D01*
X88066666Y-114895333D01*
X87828571Y-114895333D01*
X87733333Y-114942952D01*
X87685714Y-114990571D01*
X87638095Y-115085809D01*
X87638095Y-115323904D01*
X87685714Y-115419142D01*
X87733333Y-115466761D01*
X87828571Y-115514380D01*
X88066666Y-115514380D01*
X88161904Y-115466761D01*
X88209523Y-115419142D01*
X96876857Y-120720380D02*
X97210190Y-120244190D01*
X97448285Y-120720380D02*
X97448285Y-119720380D01*
X97067333Y-119720380D01*
X96972095Y-119768000D01*
X96924476Y-119815619D01*
X96876857Y-119910857D01*
X96876857Y-120053714D01*
X96924476Y-120148952D01*
X96972095Y-120196571D01*
X97067333Y-120244190D01*
X97448285Y-120244190D01*
X96019714Y-120053714D02*
X96019714Y-120720380D01*
X96257809Y-119672761D02*
X96495904Y-120387047D01*
X95876857Y-120387047D01*
X95019714Y-119720380D02*
X95495904Y-119720380D01*
X95543523Y-120196571D01*
X95495904Y-120148952D01*
X95400666Y-120101333D01*
X95162571Y-120101333D01*
X95067333Y-120148952D01*
X95019714Y-120196571D01*
X94972095Y-120291809D01*
X94972095Y-120529904D01*
X95019714Y-120625142D01*
X95067333Y-120672761D01*
X95162571Y-120720380D01*
X95400666Y-120720380D01*
X95495904Y-120672761D01*
X95543523Y-120625142D01*
X108148285Y-78176380D02*
X108148285Y-77176380D01*
X107910190Y-77176380D01*
X107767333Y-77224000D01*
X107672095Y-77319238D01*
X107624476Y-77414476D01*
X107576857Y-77604952D01*
X107576857Y-77747809D01*
X107624476Y-77938285D01*
X107672095Y-78033523D01*
X107767333Y-78128761D01*
X107910190Y-78176380D01*
X108148285Y-78176380D01*
X106624476Y-78176380D02*
X107195904Y-78176380D01*
X106910190Y-78176380D02*
X106910190Y-77176380D01*
X107005428Y-77319238D01*
X107100666Y-77414476D01*
X107195904Y-77462095D01*
X105672095Y-78176380D02*
X106243523Y-78176380D01*
X105957809Y-78176380D02*
X105957809Y-77176380D01*
X106053047Y-77319238D01*
X106148285Y-77414476D01*
X106243523Y-77462095D01*
X100560095Y-72588380D02*
X100560095Y-71588380D01*
X100322000Y-71588380D01*
X100179142Y-71636000D01*
X100083904Y-71731238D01*
X100036285Y-71826476D01*
X99988666Y-72016952D01*
X99988666Y-72159809D01*
X100036285Y-72350285D01*
X100083904Y-72445523D01*
X100179142Y-72540761D01*
X100322000Y-72588380D01*
X100560095Y-72588380D01*
X99131523Y-71588380D02*
X99322000Y-71588380D01*
X99417238Y-71636000D01*
X99464857Y-71683619D01*
X99560095Y-71826476D01*
X99607714Y-72016952D01*
X99607714Y-72397904D01*
X99560095Y-72493142D01*
X99512476Y-72540761D01*
X99417238Y-72588380D01*
X99226761Y-72588380D01*
X99131523Y-72540761D01*
X99083904Y-72493142D01*
X99036285Y-72397904D01*
X99036285Y-72159809D01*
X99083904Y-72064571D01*
X99131523Y-72016952D01*
X99226761Y-71969333D01*
X99417238Y-71969333D01*
X99512476Y-72016952D01*
X99560095Y-72064571D01*
X99607714Y-72159809D01*
X120308666Y-100433142D02*
X120356285Y-100480761D01*
X120499142Y-100528380D01*
X120594380Y-100528380D01*
X120737238Y-100480761D01*
X120832476Y-100385523D01*
X120880095Y-100290285D01*
X120927714Y-100099809D01*
X120927714Y-99956952D01*
X120880095Y-99766476D01*
X120832476Y-99671238D01*
X120737238Y-99576000D01*
X120594380Y-99528380D01*
X120499142Y-99528380D01*
X120356285Y-99576000D01*
X120308666Y-99623619D01*
X119832476Y-100528380D02*
X119642000Y-100528380D01*
X119546761Y-100480761D01*
X119499142Y-100433142D01*
X119403904Y-100290285D01*
X119356285Y-100099809D01*
X119356285Y-99718857D01*
X119403904Y-99623619D01*
X119451523Y-99576000D01*
X119546761Y-99528380D01*
X119737238Y-99528380D01*
X119832476Y-99576000D01*
X119880095Y-99623619D01*
X119927714Y-99718857D01*
X119927714Y-99956952D01*
X119880095Y-100052190D01*
X119832476Y-100099809D01*
X119737238Y-100147428D01*
X119546761Y-100147428D01*
X119451523Y-100099809D01*
X119403904Y-100052190D01*
X119356285Y-99956952D01*
X83510380Y-116133714D02*
X82510380Y-116133714D01*
X82510380Y-116371809D01*
X82558000Y-116514666D01*
X82653238Y-116609904D01*
X82748476Y-116657523D01*
X82938952Y-116705142D01*
X83081809Y-116705142D01*
X83272285Y-116657523D01*
X83367523Y-116609904D01*
X83462761Y-116514666D01*
X83510380Y-116371809D01*
X83510380Y-116133714D01*
X83510380Y-117657523D02*
X83510380Y-117086095D01*
X83510380Y-117371809D02*
X82510380Y-117371809D01*
X82653238Y-117276571D01*
X82748476Y-117181333D01*
X82796095Y-117086095D01*
X82938952Y-118228952D02*
X82891333Y-118133714D01*
X82843714Y-118086095D01*
X82748476Y-118038476D01*
X82700857Y-118038476D01*
X82605619Y-118086095D01*
X82558000Y-118133714D01*
X82510380Y-118228952D01*
X82510380Y-118419428D01*
X82558000Y-118514666D01*
X82605619Y-118562285D01*
X82700857Y-118609904D01*
X82748476Y-118609904D01*
X82843714Y-118562285D01*
X82891333Y-118514666D01*
X82938952Y-118419428D01*
X82938952Y-118228952D01*
X82986571Y-118133714D01*
X83034190Y-118086095D01*
X83129428Y-118038476D01*
X83319904Y-118038476D01*
X83415142Y-118086095D01*
X83462761Y-118133714D01*
X83510380Y-118228952D01*
X83510380Y-118419428D01*
X83462761Y-118514666D01*
X83415142Y-118562285D01*
X83319904Y-118609904D01*
X83129428Y-118609904D01*
X83034190Y-118562285D01*
X82986571Y-118514666D01*
X82938952Y-118419428D01*
X108227904Y-91908380D02*
X108227904Y-92717904D01*
X108180285Y-92813142D01*
X108132666Y-92860761D01*
X108037428Y-92908380D01*
X107846952Y-92908380D01*
X107751714Y-92860761D01*
X107704095Y-92813142D01*
X107656476Y-92717904D01*
X107656476Y-91908380D01*
X107037428Y-92336952D02*
X107132666Y-92289333D01*
X107180285Y-92241714D01*
X107227904Y-92146476D01*
X107227904Y-92098857D01*
X107180285Y-92003619D01*
X107132666Y-91956000D01*
X107037428Y-91908380D01*
X106846952Y-91908380D01*
X106751714Y-91956000D01*
X106704095Y-92003619D01*
X106656476Y-92098857D01*
X106656476Y-92146476D01*
X106704095Y-92241714D01*
X106751714Y-92289333D01*
X106846952Y-92336952D01*
X107037428Y-92336952D01*
X107132666Y-92384571D01*
X107180285Y-92432190D01*
X107227904Y-92527428D01*
X107227904Y-92717904D01*
X107180285Y-92813142D01*
X107132666Y-92860761D01*
X107037428Y-92908380D01*
X106846952Y-92908380D01*
X106751714Y-92860761D01*
X106704095Y-92813142D01*
X106656476Y-92717904D01*
X106656476Y-92527428D01*
X106704095Y-92432190D01*
X106751714Y-92384571D01*
X106846952Y-92336952D01*
X91130380Y-115879714D02*
X90130380Y-115879714D01*
X90130380Y-116117809D01*
X90178000Y-116260666D01*
X90273238Y-116355904D01*
X90368476Y-116403523D01*
X90558952Y-116451142D01*
X90701809Y-116451142D01*
X90892285Y-116403523D01*
X90987523Y-116355904D01*
X91082761Y-116260666D01*
X91130380Y-116117809D01*
X91130380Y-115879714D01*
X91130380Y-117403523D02*
X91130380Y-116832095D01*
X91130380Y-117117809D02*
X90130380Y-117117809D01*
X90273238Y-117022571D01*
X90368476Y-116927333D01*
X90416095Y-116832095D01*
X91130380Y-117879714D02*
X91130380Y-118070190D01*
X91082761Y-118165428D01*
X91035142Y-118213047D01*
X90892285Y-118308285D01*
X90701809Y-118355904D01*
X90320857Y-118355904D01*
X90225619Y-118308285D01*
X90178000Y-118260666D01*
X90130380Y-118165428D01*
X90130380Y-117974952D01*
X90178000Y-117879714D01*
X90225619Y-117832095D01*
X90320857Y-117784476D01*
X90558952Y-117784476D01*
X90654190Y-117832095D01*
X90701809Y-117879714D01*
X90749428Y-117974952D01*
X90749428Y-118165428D01*
X90701809Y-118260666D01*
X90654190Y-118308285D01*
X90558952Y-118355904D01*
X95956380Y-106735714D02*
X94956380Y-106735714D01*
X94956380Y-106973809D01*
X95004000Y-107116666D01*
X95099238Y-107211904D01*
X95194476Y-107259523D01*
X95384952Y-107307142D01*
X95527809Y-107307142D01*
X95718285Y-107259523D01*
X95813523Y-107211904D01*
X95908761Y-107116666D01*
X95956380Y-106973809D01*
X95956380Y-106735714D01*
X95956380Y-108259523D02*
X95956380Y-107688095D01*
X95956380Y-107973809D02*
X94956380Y-107973809D01*
X95099238Y-107878571D01*
X95194476Y-107783333D01*
X95242095Y-107688095D01*
X94956380Y-108592857D02*
X94956380Y-109259523D01*
X95956380Y-108830952D01*
X115091142Y-96091142D02*
X115138761Y-96043523D01*
X115186380Y-95900666D01*
X115186380Y-95805428D01*
X115138761Y-95662571D01*
X115043523Y-95567333D01*
X114948285Y-95519714D01*
X114757809Y-95472095D01*
X114614952Y-95472095D01*
X114424476Y-95519714D01*
X114329238Y-95567333D01*
X114234000Y-95662571D01*
X114186380Y-95805428D01*
X114186380Y-95900666D01*
X114234000Y-96043523D01*
X114281619Y-96091142D01*
X114519714Y-96948285D02*
X115186380Y-96948285D01*
X114138761Y-96710190D02*
X114853047Y-96472095D01*
X114853047Y-97091142D01*
X114186380Y-97376857D02*
X114186380Y-97995904D01*
X114567333Y-97662571D01*
X114567333Y-97805428D01*
X114614952Y-97900666D01*
X114662571Y-97948285D01*
X114757809Y-97995904D01*
X114995904Y-97995904D01*
X115091142Y-97948285D01*
X115138761Y-97900666D01*
X115186380Y-97805428D01*
X115186380Y-97519714D01*
X115138761Y-97424476D01*
X115091142Y-97376857D01*
X96892857Y-115260380D02*
X97226190Y-114784190D01*
X97464285Y-115260380D02*
X97464285Y-114260380D01*
X97083333Y-114260380D01*
X96988095Y-114308000D01*
X96940476Y-114355619D01*
X96892857Y-114450857D01*
X96892857Y-114593714D01*
X96940476Y-114688952D01*
X96988095Y-114736571D01*
X97083333Y-114784190D01*
X97464285Y-114784190D01*
X96035714Y-114593714D02*
X96035714Y-115260380D01*
X96273809Y-114212761D02*
X96511904Y-114927047D01*
X95892857Y-114927047D01*
X95083333Y-114593714D02*
X95083333Y-115260380D01*
X95321428Y-114212761D02*
X95559523Y-114927047D01*
X94940476Y-114927047D01*
X112244095Y-78176380D02*
X112244095Y-77176380D01*
X112006000Y-77176380D01*
X111863142Y-77224000D01*
X111767904Y-77319238D01*
X111720285Y-77414476D01*
X111672666Y-77604952D01*
X111672666Y-77747809D01*
X111720285Y-77938285D01*
X111767904Y-78033523D01*
X111863142Y-78128761D01*
X112006000Y-78176380D01*
X112244095Y-78176380D01*
X111101238Y-77604952D02*
X111196476Y-77557333D01*
X111244095Y-77509714D01*
X111291714Y-77414476D01*
X111291714Y-77366857D01*
X111244095Y-77271619D01*
X111196476Y-77224000D01*
X111101238Y-77176380D01*
X110910761Y-77176380D01*
X110815523Y-77224000D01*
X110767904Y-77271619D01*
X110720285Y-77366857D01*
X110720285Y-77414476D01*
X110767904Y-77509714D01*
X110815523Y-77557333D01*
X110910761Y-77604952D01*
X111101238Y-77604952D01*
X111196476Y-77652571D01*
X111244095Y-77700190D01*
X111291714Y-77795428D01*
X111291714Y-77985904D01*
X111244095Y-78081142D01*
X111196476Y-78128761D01*
X111101238Y-78176380D01*
X110910761Y-78176380D01*
X110815523Y-78128761D01*
X110767904Y-78081142D01*
X110720285Y-77985904D01*
X110720285Y-77795428D01*
X110767904Y-77700190D01*
X110815523Y-77652571D01*
X110910761Y-77604952D01*
X128976285Y-84526380D02*
X128976285Y-83526380D01*
X128738190Y-83526380D01*
X128595333Y-83574000D01*
X128500095Y-83669238D01*
X128452476Y-83764476D01*
X128404857Y-83954952D01*
X128404857Y-84097809D01*
X128452476Y-84288285D01*
X128500095Y-84383523D01*
X128595333Y-84478761D01*
X128738190Y-84526380D01*
X128976285Y-84526380D01*
X128023904Y-83621619D02*
X127976285Y-83574000D01*
X127881047Y-83526380D01*
X127642952Y-83526380D01*
X127547714Y-83574000D01*
X127500095Y-83621619D01*
X127452476Y-83716857D01*
X127452476Y-83812095D01*
X127500095Y-83954952D01*
X128071523Y-84526380D01*
X127452476Y-84526380D01*
X127071523Y-83621619D02*
X127023904Y-83574000D01*
X126928666Y-83526380D01*
X126690571Y-83526380D01*
X126595333Y-83574000D01*
X126547714Y-83621619D01*
X126500095Y-83716857D01*
X126500095Y-83812095D01*
X126547714Y-83954952D01*
X127119142Y-84526380D01*
X126500095Y-84526380D01*
X95956380Y-109529714D02*
X94956380Y-109529714D01*
X94956380Y-109767809D01*
X95004000Y-109910666D01*
X95099238Y-110005904D01*
X95194476Y-110053523D01*
X95384952Y-110101142D01*
X95527809Y-110101142D01*
X95718285Y-110053523D01*
X95813523Y-110005904D01*
X95908761Y-109910666D01*
X95956380Y-109767809D01*
X95956380Y-109529714D01*
X95956380Y-111053523D02*
X95956380Y-110482095D01*
X95956380Y-110767809D02*
X94956380Y-110767809D01*
X95099238Y-110672571D01*
X95194476Y-110577333D01*
X95242095Y-110482095D01*
X94956380Y-111910666D02*
X94956380Y-111720190D01*
X95004000Y-111624952D01*
X95051619Y-111577333D01*
X95194476Y-111482095D01*
X95384952Y-111434476D01*
X95765904Y-111434476D01*
X95861142Y-111482095D01*
X95908761Y-111529714D01*
X95956380Y-111624952D01*
X95956380Y-111815428D01*
X95908761Y-111910666D01*
X95861142Y-111958285D01*
X95765904Y-112005904D01*
X95527809Y-112005904D01*
X95432571Y-111958285D01*
X95384952Y-111910666D01*
X95337333Y-111815428D01*
X95337333Y-111624952D01*
X95384952Y-111529714D01*
X95432571Y-111482095D01*
X95527809Y-111434476D01*
X104742380Y-124269142D02*
X104266190Y-123935809D01*
X104742380Y-123697714D02*
X103742380Y-123697714D01*
X103742380Y-124078666D01*
X103790000Y-124173904D01*
X103837619Y-124221523D01*
X103932857Y-124269142D01*
X104075714Y-124269142D01*
X104170952Y-124221523D01*
X104218571Y-124173904D01*
X104266190Y-124078666D01*
X104266190Y-123697714D01*
X104075714Y-125126285D02*
X104742380Y-125126285D01*
X103694761Y-124888190D02*
X104409047Y-124650095D01*
X104409047Y-125269142D01*
X103742380Y-126078666D02*
X103742380Y-125888190D01*
X103790000Y-125792952D01*
X103837619Y-125745333D01*
X103980476Y-125650095D01*
X104170952Y-125602476D01*
X104551904Y-125602476D01*
X104647142Y-125650095D01*
X104694761Y-125697714D01*
X104742380Y-125792952D01*
X104742380Y-125983428D01*
X104694761Y-126078666D01*
X104647142Y-126126285D01*
X104551904Y-126173904D01*
X104313809Y-126173904D01*
X104218571Y-126126285D01*
X104170952Y-126078666D01*
X104123333Y-125983428D01*
X104123333Y-125792952D01*
X104170952Y-125697714D01*
X104218571Y-125650095D01*
X104313809Y-125602476D01*
X117038285Y-78430380D02*
X117038285Y-77430380D01*
X116800190Y-77430380D01*
X116657333Y-77478000D01*
X116562095Y-77573238D01*
X116514476Y-77668476D01*
X116466857Y-77858952D01*
X116466857Y-78001809D01*
X116514476Y-78192285D01*
X116562095Y-78287523D01*
X116657333Y-78382761D01*
X116800190Y-78430380D01*
X117038285Y-78430380D01*
X116085904Y-77525619D02*
X116038285Y-77478000D01*
X115943047Y-77430380D01*
X115704952Y-77430380D01*
X115609714Y-77478000D01*
X115562095Y-77525619D01*
X115514476Y-77620857D01*
X115514476Y-77716095D01*
X115562095Y-77858952D01*
X116133523Y-78430380D01*
X115514476Y-78430380D01*
X114943047Y-77858952D02*
X115038285Y-77811333D01*
X115085904Y-77763714D01*
X115133523Y-77668476D01*
X115133523Y-77620857D01*
X115085904Y-77525619D01*
X115038285Y-77478000D01*
X114943047Y-77430380D01*
X114752571Y-77430380D01*
X114657333Y-77478000D01*
X114609714Y-77525619D01*
X114562095Y-77620857D01*
X114562095Y-77668476D01*
X114609714Y-77763714D01*
X114657333Y-77811333D01*
X114752571Y-77858952D01*
X114943047Y-77858952D01*
X115038285Y-77906571D01*
X115085904Y-77954190D01*
X115133523Y-78049428D01*
X115133523Y-78239904D01*
X115085904Y-78335142D01*
X115038285Y-78382761D01*
X114943047Y-78430380D01*
X114752571Y-78430380D01*
X114657333Y-78382761D01*
X114609714Y-78335142D01*
X114562095Y-78239904D01*
X114562095Y-78049428D01*
X114609714Y-77954190D01*
X114657333Y-77906571D01*
X114752571Y-77858952D01*
X128182666Y-110434380D02*
X128516000Y-109958190D01*
X128754095Y-110434380D02*
X128754095Y-109434380D01*
X128373142Y-109434380D01*
X128277904Y-109482000D01*
X128230285Y-109529619D01*
X128182666Y-109624857D01*
X128182666Y-109767714D01*
X128230285Y-109862952D01*
X128277904Y-109910571D01*
X128373142Y-109958190D01*
X128754095Y-109958190D01*
X127325523Y-109767714D02*
X127325523Y-110434380D01*
X127563619Y-109386761D02*
X127801714Y-110101047D01*
X127182666Y-110101047D01*
X129166857Y-108148380D02*
X129500190Y-107672190D01*
X129738285Y-108148380D02*
X129738285Y-107148380D01*
X129357333Y-107148380D01*
X129262095Y-107196000D01*
X129214476Y-107243619D01*
X129166857Y-107338857D01*
X129166857Y-107481714D01*
X129214476Y-107576952D01*
X129262095Y-107624571D01*
X129357333Y-107672190D01*
X129738285Y-107672190D01*
X128214476Y-108148380D02*
X128785904Y-108148380D01*
X128500190Y-108148380D02*
X128500190Y-107148380D01*
X128595428Y-107291238D01*
X128690666Y-107386476D01*
X128785904Y-107434095D01*
X127881142Y-107148380D02*
X127262095Y-107148380D01*
X127595428Y-107529333D01*
X127452571Y-107529333D01*
X127357333Y-107576952D01*
X127309714Y-107624571D01*
X127262095Y-107719809D01*
X127262095Y-107957904D01*
X127309714Y-108053142D01*
X127357333Y-108100761D01*
X127452571Y-108148380D01*
X127738285Y-108148380D01*
X127833523Y-108100761D01*
X127881142Y-108053142D01*
D11*
X98136000Y-127834000D02*
X96936000Y-127834000D01*
X96936000Y-125984000D02*
X96936000Y-127834000D01*
X98136000Y-125984000D02*
X98136000Y-127834000D01*
X96936000Y-121978000D02*
X98136000Y-121978000D01*
X98136000Y-123828000D02*
X98136000Y-121978000D01*
X96936000Y-123828000D02*
X96936000Y-121978000D01*
X126766000Y-102173000D02*
X126766000Y-104123000D01*
X121646000Y-102173000D02*
X121646000Y-98723000D01*
X126766000Y-102173000D02*
X126766000Y-100223000D01*
X121646000Y-102173000D02*
X121646000Y-104123000D01*
X89524000Y-113882000D02*
X89524000Y-112032000D01*
X88324000Y-113882000D02*
X88324000Y-112032000D01*
X88324000Y-112032000D02*
X89524000Y-112032000D01*
X96006936Y-119353000D02*
X96461064Y-119353000D01*
X96006936Y-117883000D02*
X96461064Y-117883000D01*
X104808000Y-76408000D02*
X104808000Y-70708000D01*
X109108000Y-76408000D02*
X109108000Y-70708000D01*
X109108000Y-76408000D02*
X104808000Y-76408000D01*
X103340000Y-72696000D02*
X101490000Y-72696000D01*
X103340000Y-71496000D02*
X101490000Y-71496000D01*
X101490000Y-72696000D02*
X101490000Y-71496000D01*
X119407000Y-102125748D02*
X119407000Y-102648252D01*
X120877000Y-102125748D02*
X120877000Y-102648252D01*
X85206000Y-118712000D02*
X84006000Y-118712000D01*
X84006000Y-116862000D02*
X84006000Y-118712000D01*
X85206000Y-116862000D02*
X85206000Y-118712000D01*
X107466000Y-98582000D02*
X103866000Y-98582000D01*
X107466000Y-98582000D02*
X109666000Y-98582000D01*
X107466000Y-93362000D02*
X105266000Y-93362000D01*
X107466000Y-93362000D02*
X109666000Y-93362000D01*
X88324000Y-116292000D02*
X88324000Y-118142000D01*
X89524000Y-116292000D02*
X89524000Y-118142000D01*
X89524000Y-118142000D02*
X88324000Y-118142000D01*
X94072000Y-108548000D02*
X94072000Y-106698000D01*
X92872000Y-108548000D02*
X92872000Y-106698000D01*
X92872000Y-106698000D02*
X94072000Y-106698000D01*
X112319000Y-96995252D02*
X112319000Y-96472748D01*
X113789000Y-96995252D02*
X113789000Y-96472748D01*
X96022936Y-115851000D02*
X96477064Y-115851000D01*
X96022936Y-117321000D02*
X96477064Y-117321000D01*
X113680000Y-76426000D02*
X113680000Y-70726000D01*
X109380000Y-76426000D02*
X109380000Y-70726000D01*
X113680000Y-76426000D02*
X109380000Y-76426000D01*
X125636000Y-82504000D02*
X125636000Y-76804000D01*
X129936000Y-82504000D02*
X125636000Y-82504000D01*
X129936000Y-82504000D02*
X129936000Y-76804000D01*
X92872000Y-111342000D02*
X92872000Y-109492000D01*
X94072000Y-111342000D02*
X94072000Y-109492000D01*
X92872000Y-109492000D02*
X94072000Y-109492000D01*
X103375000Y-125139064D02*
X103375000Y-124684936D01*
X101905000Y-125139064D02*
X101905000Y-124684936D01*
X118252000Y-76426000D02*
X118252000Y-70726000D01*
X113952000Y-76426000D02*
X113952000Y-70726000D01*
X118252000Y-76426000D02*
X113952000Y-76426000D01*
X125179064Y-110650000D02*
X124724936Y-110650000D01*
X125179064Y-109180000D02*
X124724936Y-109180000D01*
X125207064Y-106934000D02*
X124752936Y-106934000D01*
X125207064Y-108404000D02*
X124752936Y-108404000D01*
%LPC*%
D12*
X102640000Y-82764000D03*
D13*
X138962000Y-95972000D03*
D14*
X84135959Y-107148000D03*
D15*
X79135959Y-107148000D03*
D16*
X102394000Y-70064000D03*
D17*
X103394000Y-70064000D03*
D18*
X109752000Y-100036000D03*
D14*
X84467918Y-84288000D03*
D15*
X79467918Y-84288000D03*
D18*
X105942000Y-100036000D03*
X104672000Y-100036000D03*
D13*
X107466000Y-127468000D03*
D18*
X107212000Y-100038000D03*
D19*
X100100000Y-126198000D03*
D20*
X100100000Y-123698000D03*
D18*
X117134000Y-102068000D03*
D19*
X92971000Y-122622000D03*
D20*
X92971000Y-120122000D03*
D18*
X117134000Y-100036000D03*
X135406000Y-101814000D03*
X111022000Y-100036000D03*
D13*
X75970000Y-95972000D03*
D18*
X108482000Y-100036000D03*
D12*
X102894000Y-67524000D03*
D21*
X87626000Y-119378000D03*
D22*
X85876000Y-118578000D03*
X87626000Y-117778000D03*
X85876000Y-116978000D03*
X87626000Y-116178000D03*
D23*
X86751000Y-121428000D03*
X86751000Y-114128000D03*
D18*
X104394000Y-105664000D03*
X104394000Y-108204000D03*
D24*
X133120000Y-79462000D03*
D25*
X133120000Y-86662000D03*
D18*
X104394000Y-106934000D03*
X117134000Y-104100000D03*
D26*
X91440000Y-114808000D03*
D27*
X91440000Y-112268000D03*
X91440000Y-109728000D03*
X91440000Y-107188000D03*
X91440000Y-104648000D03*
D18*
X104394000Y-104394000D03*
D12*
X102640000Y-75144000D03*
D14*
X91051795Y-95718000D03*
D15*
X86051795Y-95718000D03*
D28*
X97536000Y-127384000D03*
X97536000Y-125984000D03*
D29*
X97536000Y-122428000D03*
X97536000Y-123828000D03*
D30*
X122301000Y-99698000D03*
X123571000Y-99698000D03*
X124841000Y-99698000D03*
X126111000Y-99698000D03*
X126111000Y-104648000D03*
X124841000Y-104648000D03*
X123571000Y-104648000D03*
X122301000Y-104648000D03*
D29*
X88924000Y-112482000D03*
X88924000Y-113882000D03*
D31*
X95234000Y-118618000D03*
X97234000Y-118618000D03*
D32*
X106958000Y-75008000D03*
X106958000Y-70708000D03*
D33*
X101940000Y-72096000D03*
X103340000Y-72096000D03*
D34*
X120142000Y-101437000D03*
X120142000Y-103337000D03*
D28*
X84606000Y-118262000D03*
X84606000Y-116862000D03*
D35*
X104603500Y-97922000D03*
X104603500Y-97272000D03*
X104603500Y-96622000D03*
X104603500Y-95972000D03*
X104603500Y-95322000D03*
X104603500Y-94672000D03*
X104603500Y-94022000D03*
X110328500Y-94022000D03*
X110328500Y-94672000D03*
X110328500Y-95322000D03*
X110328500Y-95972000D03*
X110328500Y-96622000D03*
X110328500Y-97272000D03*
X110328500Y-97922000D03*
D28*
X88924000Y-117692000D03*
X88924000Y-116292000D03*
D29*
X93472000Y-107148000D03*
X93472000Y-108548000D03*
D36*
X113054000Y-97684000D03*
X113054000Y-95784000D03*
D31*
X95250000Y-116586000D03*
X97250000Y-116586000D03*
D32*
X111530000Y-75026000D03*
X111530000Y-70726000D03*
X127786000Y-81104000D03*
X127786000Y-76804000D03*
D29*
X93472000Y-109942000D03*
X93472000Y-111342000D03*
D37*
X102640000Y-125912000D03*
X102640000Y-123912000D03*
D32*
X116102000Y-75026000D03*
X116102000Y-70726000D03*
D38*
X125952000Y-109915000D03*
X123952000Y-109915000D03*
X125980000Y-107669000D03*
X123980000Y-107669000D03*
M02*
