G04 #@! TF.GenerationSoftware,KiCad,Pcbnew,6.0.11+dfsg-1*
G04 #@! TF.CreationDate,2025-03-20T11:06:45-04:00*
G04 #@! TF.ProjectId,foc-board,666f632d-626f-4617-9264-2e6b69636164,rev?*
G04 #@! TF.SameCoordinates,Original*
G04 #@! TF.FileFunction,Paste,Bot*
G04 #@! TF.FilePolarity,Positive*
%FSLAX46Y46*%
G04 Gerber Fmt 4.6, Leading zero omitted, Abs format (unit mm)*
G04 Created by KiCad (PCBNEW 6.0.11+dfsg-1) date 2025-03-20 11:06:45*
%MOMM*%
%LPD*%
G01*
G04 APERTURE LIST*
G04 Aperture macros list*
%AMRoundRect*
0 Rectangle with rounded corners*
0 $1 Rounding radius*
0 $2 $3 $4 $5 $6 $7 $8 $9 X,Y pos of 4 corners*
0 Add a 4 corners polygon primitive as box body*
4,1,4,$2,$3,$4,$5,$6,$7,$8,$9,$2,$3,0*
0 Add four circle primitives for the rounded corners*
1,1,$1+$1,$2,$3*
1,1,$1+$1,$4,$5*
1,1,$1+$1,$6,$7*
1,1,$1+$1,$8,$9*
0 Add four rect primitives between the rounded corners*
20,1,$1+$1,$2,$3,$4,$5,0*
20,1,$1+$1,$4,$5,$6,$7,0*
20,1,$1+$1,$6,$7,$8,$9,0*
20,1,$1+$1,$8,$9,$2,$3,0*%
G04 Aperture macros list end*
%ADD10R,0.700000X0.600000*%
%ADD11RoundRect,0.150000X-0.150000X0.825000X-0.150000X-0.825000X0.150000X-0.825000X0.150000X0.825000X0*%
%ADD12RoundRect,0.250000X-0.350000X-0.450000X0.350000X-0.450000X0.350000X0.450000X-0.350000X0.450000X0*%
%ADD13R,2.300000X2.500000*%
%ADD14R,0.600000X0.700000*%
%ADD15RoundRect,0.250000X-0.475000X0.250000X-0.475000X-0.250000X0.475000X-0.250000X0.475000X0.250000X0*%
%ADD16RoundRect,0.100000X-0.637500X-0.100000X0.637500X-0.100000X0.637500X0.100000X-0.637500X0.100000X0*%
%ADD17RoundRect,0.250000X0.475000X-0.250000X0.475000X0.250000X-0.475000X0.250000X-0.475000X-0.250000X0*%
%ADD18RoundRect,0.250000X0.450000X-0.350000X0.450000X0.350000X-0.450000X0.350000X-0.450000X-0.350000X0*%
%ADD19RoundRect,0.250000X0.350000X0.450000X-0.350000X0.450000X-0.350000X-0.450000X0.350000X-0.450000X0*%
G04 APERTURE END LIST*
D10*
X97536000Y-127384000D03*
X97536000Y-125984000D03*
X97536000Y-122428000D03*
X97536000Y-123828000D03*
D11*
X122301000Y-99698000D03*
X123571000Y-99698000D03*
X124841000Y-99698000D03*
X126111000Y-99698000D03*
X126111000Y-104648000D03*
X124841000Y-104648000D03*
X123571000Y-104648000D03*
X122301000Y-104648000D03*
D10*
X88924000Y-112482000D03*
X88924000Y-113882000D03*
D12*
X95234000Y-118618000D03*
X97234000Y-118618000D03*
D13*
X106958000Y-75008000D03*
X106958000Y-70708000D03*
D14*
X101940000Y-72096000D03*
X103340000Y-72096000D03*
D15*
X120142000Y-101437000D03*
X120142000Y-103337000D03*
D10*
X84606000Y-118262000D03*
X84606000Y-116862000D03*
D16*
X104603500Y-97922000D03*
X104603500Y-97272000D03*
X104603500Y-96622000D03*
X104603500Y-95972000D03*
X104603500Y-95322000D03*
X104603500Y-94672000D03*
X104603500Y-94022000D03*
X110328500Y-94022000D03*
X110328500Y-94672000D03*
X110328500Y-95322000D03*
X110328500Y-95972000D03*
X110328500Y-96622000D03*
X110328500Y-97272000D03*
X110328500Y-97922000D03*
D10*
X88924000Y-117692000D03*
X88924000Y-116292000D03*
X93472000Y-107148000D03*
X93472000Y-108548000D03*
D17*
X113054000Y-97684000D03*
X113054000Y-95784000D03*
D12*
X95250000Y-116586000D03*
X97250000Y-116586000D03*
D13*
X111530000Y-75026000D03*
X111530000Y-70726000D03*
X127786000Y-81104000D03*
X127786000Y-76804000D03*
D10*
X93472000Y-109942000D03*
X93472000Y-111342000D03*
D18*
X102640000Y-125912000D03*
X102640000Y-123912000D03*
D13*
X116102000Y-75026000D03*
X116102000Y-70726000D03*
D19*
X125952000Y-109915000D03*
X123952000Y-109915000D03*
X125980000Y-107669000D03*
X123980000Y-107669000D03*
M02*
