%TF.GenerationSoftware,KiCad,Pcbnew,6.0.11+dfsg-1*%
%TF.CreationDate,2025-03-20T11:06:59-04:00*%
%TF.ProjectId,foc-board,666f632d-626f-4617-9264-2e6b69636164,rev?*%
%TF.SameCoordinates,Original*%
%TF.FileFunction,Drillmap*%
%TF.FilePolarity,Positive*%
%FSLAX45Y45*%
G04 Gerber Fmt 4.5, Leading zero omitted, Abs format (unit mm)*
G04 Created by KiCad (PCBNEW 6.0.11+dfsg-1) date 2025-03-20 11:06:59*
%MOMM*%
%LPD*%
G01*
G04 APERTURE LIST*
%ADD10C,0.100000*%
%ADD11C,0.200000*%
%ADD12C,0.030000*%
%ADD13C,0.040000*%
%ADD14C,0.050000*%
%ADD15C,0.070000*%
%ADD16C,0.120000*%
%ADD17C,0.450000*%
G04 APERTURE END LIST*
D10*
X14246600Y-9597200D02*
G75*
G03*
X14246600Y-9597200I-3500000J0D01*
G01*
D11*
D12*
X8090000Y-7778800D02*
X8120000Y-7808800D01*
X8120000Y-7778800D02*
X8090000Y-7808800D01*
X8090000Y-7855000D02*
X8120000Y-7885000D01*
X8120000Y-7855000D02*
X8090000Y-7885000D01*
X8090000Y-7931200D02*
X8120000Y-7961200D01*
X8120000Y-7931200D02*
X8090000Y-7961200D01*
X8166200Y-7778800D02*
X8196200Y-7808800D01*
X8196200Y-7778800D02*
X8166200Y-7808800D01*
X8166200Y-7855000D02*
X8196200Y-7885000D01*
X8196200Y-7855000D02*
X8166200Y-7885000D01*
X8166200Y-7931200D02*
X8196200Y-7961200D01*
X8196200Y-7931200D02*
X8166200Y-7961200D01*
X8189200Y-9027400D02*
X8219200Y-9057400D01*
X8219200Y-9027400D02*
X8189200Y-9057400D01*
X8189200Y-9103600D02*
X8219200Y-9133600D01*
X8219200Y-9103600D02*
X8189200Y-9133600D01*
X8191600Y-8109000D02*
X8221600Y-8139000D01*
X8221600Y-8109000D02*
X8191600Y-8139000D01*
X8191600Y-8185200D02*
X8221600Y-8215200D01*
X8221600Y-8185200D02*
X8191600Y-8215200D01*
X8191600Y-8642400D02*
X8221600Y-8672400D01*
X8221600Y-8642400D02*
X8191600Y-8672400D01*
X8191600Y-8718600D02*
X8221600Y-8748600D01*
X8221600Y-8718600D02*
X8191600Y-8748600D01*
X8191600Y-8794800D02*
X8221600Y-8824800D01*
X8221600Y-8794800D02*
X8191600Y-8824800D01*
X8191600Y-8871000D02*
X8221600Y-8901000D01*
X8221600Y-8871000D02*
X8191600Y-8901000D01*
X8191600Y-8947200D02*
X8221600Y-8977200D01*
X8221600Y-8947200D02*
X8191600Y-8977200D01*
X8242400Y-7778800D02*
X8272400Y-7808800D01*
X8272400Y-7778800D02*
X8242400Y-7808800D01*
X8242400Y-7855000D02*
X8272400Y-7885000D01*
X8272400Y-7855000D02*
X8242400Y-7885000D01*
X8242400Y-7931200D02*
X8272400Y-7961200D01*
X8272400Y-7931200D02*
X8242400Y-7961200D01*
X8265400Y-9027400D02*
X8295400Y-9057400D01*
X8295400Y-9027400D02*
X8265400Y-9057400D01*
X8265400Y-9103600D02*
X8295400Y-9133600D01*
X8295400Y-9103600D02*
X8265400Y-9133600D01*
X8267800Y-8109000D02*
X8297800Y-8139000D01*
X8297800Y-8109000D02*
X8267800Y-8139000D01*
X8267800Y-8185200D02*
X8297800Y-8215200D01*
X8297800Y-8185200D02*
X8267800Y-8215200D01*
X8267800Y-8642400D02*
X8297800Y-8672400D01*
X8297800Y-8642400D02*
X8267800Y-8672400D01*
X8267800Y-8718600D02*
X8297800Y-8748600D01*
X8297800Y-8718600D02*
X8267800Y-8748600D01*
X8267800Y-8794800D02*
X8297800Y-8824800D01*
X8297800Y-8794800D02*
X8267800Y-8824800D01*
X8267800Y-8871000D02*
X8297800Y-8901000D01*
X8297800Y-8871000D02*
X8267800Y-8901000D01*
X8267800Y-8947200D02*
X8297800Y-8977200D01*
X8297800Y-8947200D02*
X8267800Y-8977200D01*
X8318600Y-7778800D02*
X8348600Y-7808800D01*
X8348600Y-7778800D02*
X8318600Y-7808800D01*
X8318600Y-7855000D02*
X8348600Y-7885000D01*
X8348600Y-7855000D02*
X8318600Y-7885000D01*
X8318600Y-7931200D02*
X8348600Y-7961200D01*
X8348600Y-7931200D02*
X8318600Y-7961200D01*
X8341600Y-9027400D02*
X8371600Y-9057400D01*
X8371600Y-9027400D02*
X8341600Y-9057400D01*
X8341600Y-9103600D02*
X8371600Y-9133600D01*
X8371600Y-9103600D02*
X8341600Y-9133600D01*
X8344000Y-8109000D02*
X8374000Y-8139000D01*
X8374000Y-8109000D02*
X8344000Y-8139000D01*
X8344000Y-8185200D02*
X8374000Y-8215200D01*
X8374000Y-8185200D02*
X8344000Y-8215200D01*
X8344000Y-8642400D02*
X8374000Y-8672400D01*
X8374000Y-8642400D02*
X8344000Y-8672400D01*
X8344000Y-8718600D02*
X8374000Y-8748600D01*
X8374000Y-8718600D02*
X8344000Y-8748600D01*
X8344000Y-8794800D02*
X8374000Y-8824800D01*
X8374000Y-8794800D02*
X8344000Y-8824800D01*
X8344000Y-8871000D02*
X8374000Y-8901000D01*
X8374000Y-8871000D02*
X8344000Y-8901000D01*
X8344000Y-8947200D02*
X8374000Y-8977200D01*
X8374000Y-8947200D02*
X8344000Y-8977200D01*
X8394800Y-7778800D02*
X8424800Y-7808800D01*
X8424800Y-7778800D02*
X8394800Y-7808800D01*
X8394800Y-7855000D02*
X8424800Y-7885000D01*
X8424800Y-7855000D02*
X8394800Y-7885000D01*
X8394800Y-7931200D02*
X8424800Y-7961200D01*
X8424800Y-7931200D02*
X8394800Y-7961200D01*
X8417800Y-9027400D02*
X8447800Y-9057400D01*
X8447800Y-9027400D02*
X8417800Y-9057400D01*
X8417800Y-9103600D02*
X8447800Y-9133600D01*
X8447800Y-9103600D02*
X8417800Y-9133600D01*
X8420200Y-8109000D02*
X8450200Y-8139000D01*
X8450200Y-8109000D02*
X8420200Y-8139000D01*
X8420200Y-8185200D02*
X8450200Y-8215200D01*
X8450200Y-8185200D02*
X8420200Y-8215200D01*
X8420200Y-8642400D02*
X8450200Y-8672400D01*
X8450200Y-8642400D02*
X8420200Y-8672400D01*
X8420200Y-8718600D02*
X8450200Y-8748600D01*
X8450200Y-8718600D02*
X8420200Y-8748600D01*
X8420200Y-8794800D02*
X8450200Y-8824800D01*
X8450200Y-8794800D02*
X8420200Y-8824800D01*
X8420200Y-8871000D02*
X8450200Y-8901000D01*
X8450200Y-8871000D02*
X8420200Y-8901000D01*
X8420200Y-8947200D02*
X8450200Y-8977200D01*
X8450200Y-8947200D02*
X8420200Y-8977200D01*
X8471000Y-7778800D02*
X8501000Y-7808800D01*
X8501000Y-7778800D02*
X8471000Y-7808800D01*
X8471000Y-7855000D02*
X8501000Y-7885000D01*
X8501000Y-7855000D02*
X8471000Y-7885000D01*
X8471000Y-7931200D02*
X8501000Y-7961200D01*
X8501000Y-7931200D02*
X8471000Y-7961200D01*
X8494000Y-9027400D02*
X8524000Y-9057400D01*
X8524000Y-9027400D02*
X8494000Y-9057400D01*
X8494000Y-9103600D02*
X8524000Y-9133600D01*
X8524000Y-9103600D02*
X8494000Y-9133600D01*
X8496400Y-8109000D02*
X8526400Y-8139000D01*
X8526400Y-8109000D02*
X8496400Y-8139000D01*
X8496400Y-8185200D02*
X8526400Y-8215200D01*
X8526400Y-8185200D02*
X8496400Y-8215200D01*
X8496400Y-8642400D02*
X8526400Y-8672400D01*
X8526400Y-8642400D02*
X8496400Y-8672400D01*
X8496400Y-8718600D02*
X8526400Y-8748600D01*
X8526400Y-8718600D02*
X8496400Y-8748600D01*
X8496400Y-8794800D02*
X8526400Y-8824800D01*
X8526400Y-8794800D02*
X8496400Y-8824800D01*
X8496400Y-8871000D02*
X8526400Y-8901000D01*
X8526400Y-8871000D02*
X8496400Y-8901000D01*
X8496400Y-8947200D02*
X8526400Y-8977200D01*
X8526400Y-8947200D02*
X8496400Y-8977200D01*
X8547200Y-7778800D02*
X8577200Y-7808800D01*
X8577200Y-7778800D02*
X8547200Y-7808800D01*
X8547200Y-7855000D02*
X8577200Y-7885000D01*
X8577200Y-7855000D02*
X8547200Y-7885000D01*
X8547200Y-7931200D02*
X8577200Y-7961200D01*
X8577200Y-7931200D02*
X8547200Y-7961200D01*
X8570200Y-9027400D02*
X8600200Y-9057400D01*
X8600200Y-9027400D02*
X8570200Y-9057400D01*
X8570200Y-9103600D02*
X8600200Y-9133600D01*
X8600200Y-9103600D02*
X8570200Y-9133600D01*
X8572600Y-8109000D02*
X8602600Y-8139000D01*
X8602600Y-8109000D02*
X8572600Y-8139000D01*
X8572600Y-8185200D02*
X8602600Y-8215200D01*
X8602600Y-8185200D02*
X8572600Y-8215200D01*
X8572600Y-8642400D02*
X8602600Y-8672400D01*
X8602600Y-8642400D02*
X8572600Y-8672400D01*
X8572600Y-8718600D02*
X8602600Y-8748600D01*
X8602600Y-8718600D02*
X8572600Y-8748600D01*
X8572600Y-8794800D02*
X8602600Y-8824800D01*
X8602600Y-8794800D02*
X8572600Y-8824800D01*
X8572600Y-8871000D02*
X8602600Y-8901000D01*
X8602600Y-8871000D02*
X8572600Y-8901000D01*
X8572600Y-8947200D02*
X8602600Y-8977200D01*
X8602600Y-8947200D02*
X8572600Y-8977200D01*
X8623400Y-7778800D02*
X8653400Y-7808800D01*
X8653400Y-7778800D02*
X8623400Y-7808800D01*
X8623400Y-7855000D02*
X8653400Y-7885000D01*
X8653400Y-7855000D02*
X8623400Y-7885000D01*
X8623400Y-7931200D02*
X8653400Y-7961200D01*
X8653400Y-7931200D02*
X8623400Y-7961200D01*
X8646400Y-9027400D02*
X8676400Y-9057400D01*
X8676400Y-9027400D02*
X8646400Y-9057400D01*
X8646400Y-9103600D02*
X8676400Y-9133600D01*
X8676400Y-9103600D02*
X8646400Y-9133600D01*
X8648800Y-8109000D02*
X8678800Y-8139000D01*
X8678800Y-8109000D02*
X8648800Y-8139000D01*
X8648800Y-8185200D02*
X8678800Y-8215200D01*
X8678800Y-8185200D02*
X8648800Y-8215200D01*
X8648800Y-8642400D02*
X8678800Y-8672400D01*
X8678800Y-8642400D02*
X8648800Y-8672400D01*
X8648800Y-8718600D02*
X8678800Y-8748600D01*
X8678800Y-8718600D02*
X8648800Y-8748600D01*
X8648800Y-8794800D02*
X8678800Y-8824800D01*
X8678800Y-8794800D02*
X8648800Y-8824800D01*
X8648800Y-8871000D02*
X8678800Y-8901000D01*
X8678800Y-8871000D02*
X8648800Y-8901000D01*
X8648800Y-8947200D02*
X8678800Y-8977200D01*
X8678800Y-8947200D02*
X8648800Y-8977200D01*
X8722600Y-9027400D02*
X8752600Y-9057400D01*
X8752600Y-9027400D02*
X8722600Y-9057400D01*
X8722600Y-9103600D02*
X8752600Y-9133600D01*
X8752600Y-9103600D02*
X8722600Y-9133600D01*
X8725000Y-8109000D02*
X8755000Y-8139000D01*
X8755000Y-8109000D02*
X8725000Y-8139000D01*
X8725000Y-8185200D02*
X8755000Y-8215200D01*
X8755000Y-8185200D02*
X8725000Y-8215200D01*
X8725000Y-8642400D02*
X8755000Y-8672400D01*
X8755000Y-8642400D02*
X8725000Y-8672400D01*
X8725000Y-8718600D02*
X8755000Y-8748600D01*
X8755000Y-8718600D02*
X8725000Y-8748600D01*
X8725000Y-8794800D02*
X8755000Y-8824800D01*
X8755000Y-8794800D02*
X8725000Y-8824800D01*
X8725000Y-8871000D02*
X8755000Y-8901000D01*
X8755000Y-8871000D02*
X8725000Y-8901000D01*
X8725000Y-8947200D02*
X8755000Y-8977200D01*
X8755000Y-8947200D02*
X8725000Y-8977200D01*
X8798800Y-9027400D02*
X8828800Y-9057400D01*
X8828800Y-9027400D02*
X8798800Y-9057400D01*
X8798800Y-9103600D02*
X8828800Y-9133600D01*
X8828800Y-9103600D02*
X8798800Y-9133600D01*
X8801200Y-7728000D02*
X8831200Y-7758000D01*
X8831200Y-7728000D02*
X8801200Y-7758000D01*
X8801200Y-7804200D02*
X8831200Y-7834200D01*
X8831200Y-7804200D02*
X8801200Y-7834200D01*
X8801200Y-7880400D02*
X8831200Y-7910400D01*
X8831200Y-7880400D02*
X8801200Y-7910400D01*
X8801200Y-7956600D02*
X8831200Y-7986600D01*
X8831200Y-7956600D02*
X8801200Y-7986600D01*
X8801200Y-8032800D02*
X8831200Y-8062800D01*
X8831200Y-8032800D02*
X8801200Y-8062800D01*
X8801200Y-8109000D02*
X8831200Y-8139000D01*
X8831200Y-8109000D02*
X8801200Y-8139000D01*
X8801200Y-8185200D02*
X8831200Y-8215200D01*
X8831200Y-8185200D02*
X8801200Y-8215200D01*
X8801200Y-8642400D02*
X8831200Y-8672400D01*
X8831200Y-8642400D02*
X8801200Y-8672400D01*
X8801200Y-8718600D02*
X8831200Y-8748600D01*
X8831200Y-8718600D02*
X8801200Y-8748600D01*
X8801200Y-8794800D02*
X8831200Y-8824800D01*
X8831200Y-8794800D02*
X8801200Y-8824800D01*
X8801200Y-8871000D02*
X8831200Y-8901000D01*
X8831200Y-8871000D02*
X8801200Y-8901000D01*
X8801200Y-8947200D02*
X8831200Y-8977200D01*
X8831200Y-8947200D02*
X8801200Y-8977200D01*
X8875000Y-9027400D02*
X8905000Y-9057400D01*
X8905000Y-9027400D02*
X8875000Y-9057400D01*
X8875000Y-9103600D02*
X8905000Y-9133600D01*
X8905000Y-9103600D02*
X8875000Y-9133600D01*
X8877400Y-7728000D02*
X8907400Y-7758000D01*
X8907400Y-7728000D02*
X8877400Y-7758000D01*
X8877400Y-7804200D02*
X8907400Y-7834200D01*
X8907400Y-7804200D02*
X8877400Y-7834200D01*
X8877400Y-7880400D02*
X8907400Y-7910400D01*
X8907400Y-7880400D02*
X8877400Y-7910400D01*
X8877400Y-7956600D02*
X8907400Y-7986600D01*
X8907400Y-7956600D02*
X8877400Y-7986600D01*
X8877400Y-8032800D02*
X8907400Y-8062800D01*
X8907400Y-8032800D02*
X8877400Y-8062800D01*
X8877400Y-8109000D02*
X8907400Y-8139000D01*
X8907400Y-8109000D02*
X8877400Y-8139000D01*
X8877400Y-8185200D02*
X8907400Y-8215200D01*
X8907400Y-8185200D02*
X8877400Y-8215200D01*
X8877400Y-8642400D02*
X8907400Y-8672400D01*
X8907400Y-8642400D02*
X8877400Y-8672400D01*
X8877400Y-8718600D02*
X8907400Y-8748600D01*
X8907400Y-8718600D02*
X8877400Y-8748600D01*
X8877400Y-8794800D02*
X8907400Y-8824800D01*
X8907400Y-8794800D02*
X8877400Y-8824800D01*
X8877400Y-8871000D02*
X8907400Y-8901000D01*
X8907400Y-8871000D02*
X8877400Y-8901000D01*
X8877400Y-8947200D02*
X8907400Y-8977200D01*
X8907400Y-8947200D02*
X8877400Y-8977200D01*
X9586200Y-12456400D02*
X9616200Y-12486400D01*
X9616200Y-12456400D02*
X9586200Y-12486400D01*
X9624300Y-9725900D02*
X9654300Y-9755900D01*
X9654300Y-9725900D02*
X9624300Y-9755900D01*
X9624300Y-9852900D02*
X9654300Y-9882900D01*
X9654300Y-9852900D02*
X9624300Y-9882900D01*
X9637000Y-11262600D02*
X9667000Y-11292600D01*
X9667000Y-11262600D02*
X9637000Y-11292600D01*
X9738600Y-10322800D02*
X9768600Y-10352800D01*
X9768600Y-10322800D02*
X9738600Y-10352800D01*
X9738600Y-10526000D02*
X9768600Y-10556000D01*
X9768600Y-10526000D02*
X9738600Y-10556000D01*
X9738600Y-10729200D02*
X9768600Y-10759200D01*
X9768600Y-10729200D02*
X9738600Y-10759200D01*
X9865600Y-11846800D02*
X9895600Y-11876800D01*
X9895600Y-11846800D02*
X9865600Y-11876800D01*
X9920400Y-10852200D02*
X9950400Y-10882200D01*
X9950400Y-10852200D02*
X9920400Y-10882200D01*
X10027570Y-9678378D02*
X10057570Y-9708378D01*
X10057570Y-9678378D02*
X10027570Y-9708378D01*
X10045800Y-9252000D02*
X10075800Y-9282000D01*
X10075800Y-9252000D02*
X10045800Y-9282000D01*
X10204577Y-11065837D02*
X10234577Y-11095837D01*
X10234577Y-11065837D02*
X10204577Y-11095837D01*
X10246600Y-7300200D02*
X10276600Y-7330200D01*
X10276600Y-7300200D02*
X10246600Y-7330200D01*
X10246600Y-11618200D02*
X10276600Y-11648200D01*
X10276600Y-11618200D02*
X10246600Y-11648200D01*
X10272000Y-12024600D02*
X10302000Y-12054600D01*
X10302000Y-12024600D02*
X10272000Y-12054600D01*
X10386300Y-11503900D02*
X10416300Y-11533900D01*
X10416300Y-11503900D02*
X10386300Y-11533900D01*
X10388518Y-11628682D02*
X10418518Y-11658682D01*
X10418518Y-11628682D02*
X10388518Y-11658682D01*
X10494350Y-6631866D02*
X10524350Y-6661866D01*
X10524350Y-6631866D02*
X10494350Y-6661866D01*
X10576800Y-10240350D02*
X10606800Y-10270350D01*
X10606800Y-10240350D02*
X10576800Y-10270350D01*
X10727087Y-11967250D02*
X10757087Y-11997250D01*
X10757087Y-11967250D02*
X10727087Y-11997250D01*
X10729200Y-11237200D02*
X10759200Y-11267200D01*
X10759200Y-11237200D02*
X10729200Y-11267200D01*
X10780000Y-11465800D02*
X10810000Y-11495800D01*
X10810000Y-11465800D02*
X10780000Y-11495800D01*
X10792700Y-10741900D02*
X10822700Y-10771900D01*
X10822700Y-10741900D02*
X10792700Y-10771900D01*
X10805400Y-11923000D02*
X10835400Y-11953000D01*
X10835400Y-11923000D02*
X10805400Y-11953000D01*
X10881600Y-9611450D02*
X10911600Y-9641450D01*
X10911600Y-9611450D02*
X10881600Y-9641450D01*
X10881600Y-11161000D02*
X10911600Y-11191000D01*
X10911600Y-11161000D02*
X10881600Y-11191000D01*
X10882600Y-9712200D02*
X10912600Y-9742200D01*
X10912600Y-9712200D02*
X10882600Y-9742200D01*
X10932400Y-10780000D02*
X10962400Y-10810000D01*
X10962400Y-10780000D02*
X10932400Y-10810000D01*
X10983200Y-10322800D02*
X11013200Y-10352800D01*
X11013200Y-10322800D02*
X10983200Y-10352800D01*
X10983200Y-10535950D02*
X11013200Y-10565950D01*
X11013200Y-10535950D02*
X10983200Y-10565950D01*
X11008600Y-10729200D02*
X11038600Y-10759200D01*
X11038600Y-10729200D02*
X11008600Y-10759200D01*
X11110200Y-10310300D02*
X11140200Y-10340300D01*
X11140200Y-10310300D02*
X11110200Y-10340300D01*
X11161000Y-11643600D02*
X11191000Y-11673600D01*
X11191000Y-11643600D02*
X11161000Y-11673600D01*
X11196666Y-11225616D02*
X11226666Y-11255616D01*
X11226666Y-11225616D02*
X11196666Y-11255616D01*
X11211800Y-11110200D02*
X11241800Y-11140200D01*
X11241800Y-11110200D02*
X11211800Y-11140200D01*
X11303443Y-11178550D02*
X11333443Y-11208550D01*
X11333443Y-11178550D02*
X11303443Y-11208550D01*
X11313400Y-9865600D02*
X11343400Y-9895600D01*
X11343400Y-9865600D02*
X11313400Y-9895600D01*
X11370618Y-11245725D02*
X11400618Y-11275725D01*
X11400618Y-11245725D02*
X11370618Y-11275725D01*
X11415000Y-10526000D02*
X11445000Y-10556000D01*
X11445000Y-10526000D02*
X11415000Y-10556000D01*
X11472050Y-10881600D02*
X11502050Y-10911600D01*
X11502050Y-10881600D02*
X11472050Y-10911600D01*
X11472050Y-10983200D02*
X11502050Y-11013200D01*
X11502050Y-10983200D02*
X11472050Y-11013200D01*
X11472050Y-11084800D02*
X11502050Y-11114800D01*
X11502050Y-11084800D02*
X11472050Y-11114800D01*
X11472050Y-11186400D02*
X11502050Y-11216400D01*
X11502050Y-11186400D02*
X11472050Y-11216400D01*
X11516600Y-10526000D02*
X11546600Y-10556000D01*
X11546600Y-10526000D02*
X11516600Y-10556000D01*
X11530425Y-11377202D02*
X11560425Y-11407202D01*
X11560425Y-11377202D02*
X11530425Y-11407202D01*
X11542000Y-11288000D02*
X11572000Y-11318000D01*
X11572000Y-11288000D02*
X11542000Y-11318000D01*
X11627334Y-11259555D02*
X11657334Y-11289555D01*
X11657334Y-11259555D02*
X11627334Y-11289555D01*
X11643600Y-12558000D02*
X11673600Y-12588000D01*
X11673600Y-12558000D02*
X11643600Y-12588000D01*
X11669000Y-7274800D02*
X11699000Y-7304800D01*
X11699000Y-7274800D02*
X11669000Y-7304800D01*
X11700607Y-11207380D02*
X11730607Y-11237380D01*
X11730607Y-11207380D02*
X11700607Y-11237380D01*
X11712548Y-8112274D02*
X11742548Y-8142274D01*
X11742548Y-8112274D02*
X11712548Y-8142274D01*
X11719800Y-8632650D02*
X11749800Y-8662650D01*
X11749800Y-8632650D02*
X11719800Y-8662650D01*
X11719800Y-8722600D02*
X11749800Y-8752600D01*
X11749800Y-8722600D02*
X11719800Y-8752600D01*
X11719800Y-11973800D02*
X11749800Y-12003800D01*
X11749800Y-11973800D02*
X11719800Y-12003800D01*
X11770042Y-7166095D02*
X11800042Y-7196095D01*
X11800042Y-7166095D02*
X11770042Y-7196095D01*
X11802250Y-8118950D02*
X11832250Y-8148950D01*
X11832250Y-8118950D02*
X11802250Y-8148950D01*
X11973800Y-7452600D02*
X12003800Y-7482600D01*
X12003800Y-7452600D02*
X11973800Y-7482600D01*
X11973800Y-8138400D02*
X12003800Y-8168400D01*
X12003800Y-8138400D02*
X11973800Y-8168400D01*
X11999200Y-10526000D02*
X12029200Y-10556000D01*
X12029200Y-10526000D02*
X11999200Y-10556000D01*
X12045751Y-9150650D02*
X12075751Y-9180650D01*
X12075751Y-9150650D02*
X12045751Y-9180650D01*
X12050000Y-9894750D02*
X12080000Y-9924750D01*
X12080000Y-9894750D02*
X12050000Y-9924750D01*
X12100800Y-10551400D02*
X12130800Y-10581400D01*
X12130800Y-10551400D02*
X12100800Y-10581400D01*
X12100800Y-11694400D02*
X12130800Y-11724400D01*
X12130800Y-11694400D02*
X12100800Y-11724400D01*
X12177000Y-11008600D02*
X12207000Y-11038600D01*
X12207000Y-11008600D02*
X12177000Y-11038600D01*
X12182362Y-11282638D02*
X12212362Y-11312638D01*
X12212362Y-11282638D02*
X12182362Y-11312638D01*
X12202400Y-10729200D02*
X12232400Y-10759200D01*
X12232400Y-10729200D02*
X12202400Y-10759200D01*
X12202400Y-11669000D02*
X12232400Y-11699000D01*
X12232400Y-11669000D02*
X12202400Y-11699000D01*
X12227800Y-10221200D02*
X12257800Y-10251200D01*
X12257800Y-10221200D02*
X12227800Y-10251200D01*
X12256245Y-10306534D02*
X12286245Y-10336534D01*
X12286245Y-10306534D02*
X12256245Y-10336534D01*
X12271437Y-11013087D02*
X12301437Y-11043087D01*
X12301437Y-11013087D02*
X12271437Y-11043087D01*
X12329400Y-9789400D02*
X12359400Y-9819400D01*
X12359400Y-9789400D02*
X12329400Y-9819400D01*
X12329400Y-11237200D02*
X12359400Y-11267200D01*
X12359400Y-11237200D02*
X12329400Y-11267200D01*
X12380200Y-12075400D02*
X12410200Y-12105400D01*
X12410200Y-12075400D02*
X12380200Y-12105400D01*
X12431000Y-9510000D02*
X12461000Y-9540000D01*
X12461000Y-9510000D02*
X12431000Y-9540000D01*
X12532600Y-11288000D02*
X12562600Y-11318000D01*
X12562600Y-11288000D02*
X12532600Y-11318000D01*
X12532600Y-11440400D02*
X12562600Y-11470400D01*
X12562600Y-11440400D02*
X12532600Y-11470400D01*
X12583400Y-11364200D02*
X12613400Y-11394200D01*
X12613400Y-11364200D02*
X12583400Y-11394200D01*
X12634200Y-9814800D02*
X12664200Y-9844800D01*
X12664200Y-9814800D02*
X12634200Y-9844800D01*
X12634200Y-11288000D02*
X12664200Y-11318000D01*
X12664200Y-11288000D02*
X12634200Y-11318000D01*
X12634200Y-11440400D02*
X12664200Y-11470400D01*
X12664200Y-11440400D02*
X12634200Y-11470400D01*
X12685000Y-11364200D02*
X12715000Y-11394200D01*
X12715000Y-11364200D02*
X12685000Y-11394200D01*
X12735800Y-11288000D02*
X12765800Y-11318000D01*
X12765800Y-11288000D02*
X12735800Y-11318000D01*
X12735800Y-11440400D02*
X12765800Y-11470400D01*
X12765800Y-11440400D02*
X12735800Y-11470400D01*
X12786600Y-10475200D02*
X12816600Y-10505200D01*
X12816600Y-10475200D02*
X12786600Y-10505200D01*
X12786600Y-11364200D02*
X12816600Y-11394200D01*
X12816600Y-11364200D02*
X12786600Y-11394200D01*
X12837400Y-11288000D02*
X12867400Y-11318000D01*
X12867400Y-11288000D02*
X12837400Y-11318000D01*
X12837400Y-11440400D02*
X12867400Y-11470400D01*
X12867400Y-11440400D02*
X12837400Y-11470400D01*
X12862800Y-10221200D02*
X12892800Y-10251200D01*
X12892800Y-10221200D02*
X12862800Y-10251200D01*
X12862800Y-11618200D02*
X12892800Y-11648200D01*
X12892800Y-11618200D02*
X12862800Y-11648200D01*
X12862800Y-11719800D02*
X12892800Y-11749800D01*
X12892800Y-11719800D02*
X12862800Y-11749800D01*
X12862800Y-11821400D02*
X12892800Y-11851400D01*
X12892800Y-11821400D02*
X12862800Y-11851400D01*
X12862800Y-11923000D02*
X12892800Y-11953000D01*
X12892800Y-11923000D02*
X12862800Y-11953000D01*
X12862800Y-12024600D02*
X12892800Y-12054600D01*
X12892800Y-12024600D02*
X12862800Y-12054600D01*
X12862800Y-12126200D02*
X12892800Y-12156200D01*
X12892800Y-12126200D02*
X12862800Y-12156200D01*
X12862800Y-12227800D02*
X12892800Y-12257800D01*
X12892800Y-12227800D02*
X12862800Y-12257800D01*
X12888200Y-11364200D02*
X12918200Y-11394200D01*
X12918200Y-11364200D02*
X12888200Y-11394200D01*
X12909442Y-9945958D02*
X12939442Y-9975958D01*
X12939442Y-9945958D02*
X12909442Y-9975958D01*
X12939000Y-11288000D02*
X12969000Y-11318000D01*
X12969000Y-11288000D02*
X12939000Y-11318000D01*
X12939000Y-11440400D02*
X12969000Y-11470400D01*
X12969000Y-11440400D02*
X12939000Y-11470400D01*
X12964400Y-11618200D02*
X12994400Y-11648200D01*
X12994400Y-11618200D02*
X12964400Y-11648200D01*
X12964400Y-11719800D02*
X12994400Y-11749800D01*
X12994400Y-11719800D02*
X12964400Y-11749800D01*
X12964400Y-11821400D02*
X12994400Y-11851400D01*
X12994400Y-11821400D02*
X12964400Y-11851400D01*
X12964400Y-11923000D02*
X12994400Y-11953000D01*
X12994400Y-11923000D02*
X12964400Y-11953000D01*
X12964400Y-12024600D02*
X12994400Y-12054600D01*
X12994400Y-12024600D02*
X12964400Y-12054600D01*
X12964400Y-12126200D02*
X12994400Y-12156200D01*
X12994400Y-12126200D02*
X12964400Y-12156200D01*
X12989800Y-11364200D02*
X13019800Y-11394200D01*
X13019800Y-11364200D02*
X12989800Y-11394200D01*
X13022508Y-9832892D02*
X13052508Y-9862892D01*
X13052508Y-9832892D02*
X13022508Y-9862892D01*
X13040600Y-11288000D02*
X13070600Y-11318000D01*
X13070600Y-11288000D02*
X13040600Y-11318000D01*
X13040600Y-11440400D02*
X13070600Y-11470400D01*
X13070600Y-11440400D02*
X13040600Y-11470400D01*
X13066000Y-11618200D02*
X13096000Y-11648200D01*
X13096000Y-11618200D02*
X13066000Y-11648200D01*
X13066000Y-11719800D02*
X13096000Y-11749800D01*
X13096000Y-11719800D02*
X13066000Y-11749800D01*
X13066000Y-11821400D02*
X13096000Y-11851400D01*
X13096000Y-11821400D02*
X13066000Y-11851400D01*
X13066000Y-11923000D02*
X13096000Y-11953000D01*
X13096000Y-11923000D02*
X13066000Y-11953000D01*
X13066000Y-12024600D02*
X13096000Y-12054600D01*
X13096000Y-12024600D02*
X13066000Y-12054600D01*
X13116800Y-9383000D02*
X13146800Y-9413000D01*
X13146800Y-9383000D02*
X13116800Y-9413000D01*
X13167600Y-11618200D02*
X13197600Y-11648200D01*
X13197600Y-11618200D02*
X13167600Y-11648200D01*
X13167600Y-11719800D02*
X13197600Y-11749800D01*
X13197600Y-11719800D02*
X13167600Y-11749800D01*
X13167600Y-11821400D02*
X13197600Y-11851400D01*
X13197600Y-11821400D02*
X13167600Y-11851400D01*
X13167600Y-11923000D02*
X13197600Y-11953000D01*
X13197600Y-11923000D02*
X13167600Y-11953000D01*
X13269200Y-11618200D02*
X13299200Y-11648200D01*
X13299200Y-11618200D02*
X13269200Y-11648200D01*
X13269200Y-11719800D02*
X13299200Y-11749800D01*
X13299200Y-11719800D02*
X13269200Y-11749800D01*
X13269200Y-11821400D02*
X13299200Y-11851400D01*
X13299200Y-11821400D02*
X13269200Y-11851400D01*
X13320000Y-10195800D02*
X13350000Y-10225800D01*
X13350000Y-10195800D02*
X13320000Y-10225800D01*
X13370800Y-11618200D02*
X13400800Y-11648200D01*
X13400800Y-11618200D02*
X13370800Y-11648200D01*
X13370800Y-11719800D02*
X13400800Y-11749800D01*
X13400800Y-11719800D02*
X13370800Y-11749800D01*
X13472400Y-11618200D02*
X13502400Y-11648200D01*
X13502400Y-11618200D02*
X13472400Y-11648200D01*
X13777200Y-10957800D02*
X13807200Y-10987800D01*
X13807200Y-10957800D02*
X13777200Y-10987800D01*
X13878800Y-10018000D02*
X13908800Y-10048000D01*
X13908800Y-10018000D02*
X13878800Y-10048000D01*
X13878800Y-10094200D02*
X13908800Y-10124200D01*
X13908800Y-10094200D02*
X13878800Y-10124200D01*
X13878800Y-10170400D02*
X13908800Y-10200400D01*
X13908800Y-10170400D02*
X13878800Y-10200400D01*
X13878800Y-10246600D02*
X13908800Y-10276600D01*
X13908800Y-10246600D02*
X13878800Y-10276600D01*
X13878800Y-10322800D02*
X13908800Y-10352800D01*
X13908800Y-10322800D02*
X13878800Y-10352800D01*
X13878800Y-10399000D02*
X13908800Y-10429000D01*
X13908800Y-10399000D02*
X13878800Y-10429000D01*
X13878800Y-10475200D02*
X13908800Y-10505200D01*
X13908800Y-10475200D02*
X13878800Y-10505200D01*
X13955000Y-10701163D02*
X13985000Y-10731163D01*
X13985000Y-10701163D02*
X13955000Y-10731163D01*
D13*
X11192000Y-7330850D02*
G75*
G03*
X11192000Y-7330850I-20000J0D01*
G01*
X11489600Y-7362000D02*
G75*
G03*
X11489600Y-7362000I-20000J0D01*
G01*
X12389800Y-9169400D02*
G75*
G03*
X12389800Y-9169400I-20000J0D01*
G01*
X12389800Y-9448800D02*
G75*
G03*
X12389800Y-9448800I-20000J0D01*
G01*
D14*
X10239400Y-6981400D02*
X10239400Y-7031400D01*
X10214400Y-7006400D02*
X10264400Y-7006400D01*
X10339400Y-6981400D02*
X10339400Y-7031400D01*
X10314400Y-7006400D02*
X10364400Y-7006400D01*
X10439400Y-10414400D02*
X10439400Y-10464400D01*
X10414400Y-10439400D02*
X10464400Y-10439400D01*
X10439400Y-10541400D02*
X10439400Y-10591400D01*
X10414400Y-10566400D02*
X10464400Y-10566400D01*
X10439400Y-10668400D02*
X10439400Y-10718400D01*
X10414400Y-10693400D02*
X10464400Y-10693400D01*
X10439400Y-10795400D02*
X10439400Y-10845400D01*
X10414400Y-10820400D02*
X10464400Y-10820400D01*
X10467200Y-9978600D02*
X10467200Y-10028600D01*
X10442200Y-10003600D02*
X10492200Y-10003600D01*
X10594200Y-9978600D02*
X10594200Y-10028600D01*
X10569200Y-10003600D02*
X10619200Y-10003600D01*
X10721200Y-9978800D02*
X10721200Y-10028800D01*
X10696200Y-10003800D02*
X10746200Y-10003800D01*
X10848200Y-9978600D02*
X10848200Y-10028600D01*
X10823200Y-10003600D02*
X10873200Y-10003600D01*
X10975200Y-9978600D02*
X10975200Y-10028600D01*
X10950200Y-10003600D02*
X11000200Y-10003600D01*
X11102200Y-9978600D02*
X11102200Y-10028600D01*
X11077200Y-10003600D02*
X11127200Y-10003600D01*
X11713400Y-9978600D02*
X11713400Y-10028600D01*
X11688400Y-10003600D02*
X11738400Y-10003600D01*
X11713400Y-10181800D02*
X11713400Y-10231800D01*
X11688400Y-10206800D02*
X11738400Y-10206800D01*
X11713400Y-10385000D02*
X11713400Y-10435000D01*
X11688400Y-10410000D02*
X11738400Y-10410000D01*
X13540600Y-10156400D02*
X13540600Y-10206400D01*
X13515600Y-10181400D02*
X13565600Y-10181400D01*
D15*
X8612349Y-11722549D02*
X8612349Y-11673051D01*
X8562851Y-11673051D01*
X8562851Y-11722549D01*
X8612349Y-11722549D01*
X8612349Y-11882549D02*
X8612349Y-11833051D01*
X8562851Y-11833051D01*
X8562851Y-11882549D01*
X8612349Y-11882549D01*
X8699849Y-11437549D02*
X8699849Y-11388051D01*
X8650351Y-11388051D01*
X8650351Y-11437549D01*
X8699849Y-11437549D01*
D11*
X8610100Y-11447800D02*
X8740100Y-11447800D01*
X8610100Y-11377800D02*
X8740100Y-11377800D01*
X8740100Y-11447800D02*
G75*
G03*
X8740100Y-11377800I0J35000D01*
G01*
X8610100Y-11377800D02*
G75*
G03*
X8610100Y-11447800I0J-35000D01*
G01*
D15*
X8699849Y-12167549D02*
X8699849Y-12118051D01*
X8650351Y-12118051D01*
X8650351Y-12167549D01*
X8699849Y-12167549D01*
D11*
X8610100Y-12177800D02*
X8740100Y-12177800D01*
X8610100Y-12107800D02*
X8740100Y-12107800D01*
X8740100Y-12177800D02*
G75*
G03*
X8740100Y-12107800I0J35000D01*
G01*
X8610100Y-12107800D02*
G75*
G03*
X8610100Y-12177800I0J-35000D01*
G01*
D15*
X8787349Y-11642549D02*
X8787349Y-11593051D01*
X8737851Y-11593051D01*
X8737851Y-11642549D01*
X8787349Y-11642549D01*
X8787349Y-11802549D02*
X8787349Y-11753051D01*
X8737851Y-11753051D01*
X8737851Y-11802549D01*
X8787349Y-11802549D01*
X8787349Y-11962549D02*
X8787349Y-11913051D01*
X8737851Y-11913051D01*
X8737851Y-11962549D01*
X8787349Y-11962549D01*
D10*
X9144000Y-10514800D02*
X9194000Y-10464800D01*
X9144000Y-10414800D01*
X9094000Y-10464800D01*
X9144000Y-10514800D01*
X9144000Y-10768800D02*
X9194000Y-10718800D01*
X9144000Y-10668800D01*
X9094000Y-10718800D01*
X9144000Y-10768800D01*
X9144000Y-11022800D02*
X9194000Y-10972800D01*
X9144000Y-10922800D01*
X9094000Y-10972800D01*
X9144000Y-11022800D01*
X9144000Y-11276800D02*
X9194000Y-11226800D01*
X9144000Y-11176800D01*
X9094000Y-11226800D01*
X9144000Y-11276800D01*
X9144000Y-11530800D02*
X9194000Y-11480800D01*
X9144000Y-11430800D01*
X9094000Y-11480800D01*
X9144000Y-11530800D01*
X9297100Y-12062200D02*
X9347100Y-12012200D01*
X9297100Y-11962200D01*
X9247100Y-12012200D01*
X9297100Y-12062200D01*
X9297100Y-12312200D02*
X9347100Y-12262200D01*
X9297100Y-12212200D01*
X9247100Y-12262200D01*
X9297100Y-12312200D01*
X10010000Y-12419800D02*
X10060000Y-12369800D01*
X10010000Y-12319800D01*
X9960000Y-12369800D01*
X10010000Y-12419800D01*
X10010000Y-12669800D02*
X10060000Y-12619800D01*
X10010000Y-12569800D01*
X9960000Y-12619800D01*
X10010000Y-12669800D01*
X10264000Y-7564400D02*
X10314000Y-7514400D01*
X10264000Y-7464400D01*
X10214000Y-7514400D01*
X10264000Y-7564400D01*
X10264000Y-8326400D02*
X10314000Y-8276400D01*
X10264000Y-8226400D01*
X10214000Y-8276400D01*
X10264000Y-8326400D01*
X10289400Y-6802400D02*
X10339400Y-6752400D01*
X10289400Y-6702400D01*
X10239400Y-6752400D01*
X10289400Y-6802400D01*
D16*
X7853596Y-10654800D02*
X7973596Y-10774800D01*
X7973596Y-10654800D02*
X7853596Y-10774800D01*
X7973596Y-10714800D02*
G75*
G03*
X7973596Y-10714800I-60000J0D01*
G01*
X7886792Y-8368800D02*
X8006792Y-8488800D01*
X8006792Y-8368800D02*
X7886792Y-8488800D01*
X8006792Y-8428800D02*
G75*
G03*
X8006792Y-8428800I-60000J0D01*
G01*
X8353596Y-10654800D02*
X8473596Y-10774800D01*
X8473596Y-10654800D02*
X8353596Y-10774800D01*
X8473596Y-10714800D02*
G75*
G03*
X8473596Y-10714800I-60000J0D01*
G01*
X8386792Y-8368800D02*
X8506792Y-8488800D01*
X8506792Y-8368800D02*
X8386792Y-8488800D01*
X8506792Y-8428800D02*
G75*
G03*
X8506792Y-8428800I-60000J0D01*
G01*
X8545180Y-9511800D02*
X8665180Y-9631800D01*
X8665180Y-9511800D02*
X8545180Y-9631800D01*
X8665180Y-9571800D02*
G75*
G03*
X8665180Y-9571800I-60000J0D01*
G01*
X9045180Y-9511800D02*
X9165180Y-9631800D01*
X9165180Y-9511800D02*
X9045180Y-9631800D01*
X9165180Y-9571800D02*
G75*
G03*
X9165180Y-9571800I-60000J0D01*
G01*
D17*
X13087000Y-7721200D02*
X13537000Y-8171200D01*
X13537000Y-7721200D02*
X13087000Y-8171200D01*
X13312000Y-7721200D02*
X13312000Y-8171200D01*
X13087000Y-7946200D02*
X13537000Y-7946200D01*
X13087000Y-8441200D02*
X13537000Y-8891200D01*
X13537000Y-8441200D02*
X13087000Y-8891200D01*
X13312000Y-8441200D02*
X13312000Y-8891200D01*
X13087000Y-8666200D02*
X13537000Y-8666200D01*
D11*
X7499219Y-13412676D02*
X7499219Y-13212676D01*
X7546838Y-13212676D01*
X7575409Y-13222200D01*
X7594457Y-13241248D01*
X7603981Y-13260295D01*
X7613505Y-13298390D01*
X7613505Y-13326962D01*
X7603981Y-13365057D01*
X7594457Y-13384105D01*
X7575409Y-13403152D01*
X7546838Y-13412676D01*
X7499219Y-13412676D01*
X7699219Y-13412676D02*
X7699219Y-13279343D01*
X7699219Y-13317438D02*
X7708743Y-13298390D01*
X7718267Y-13288867D01*
X7737314Y-13279343D01*
X7756362Y-13279343D01*
X7823028Y-13412676D02*
X7823028Y-13279343D01*
X7823028Y-13212676D02*
X7813505Y-13222200D01*
X7823028Y-13231724D01*
X7832552Y-13222200D01*
X7823028Y-13212676D01*
X7823028Y-13231724D01*
X7946838Y-13412676D02*
X7927790Y-13403152D01*
X7918267Y-13384105D01*
X7918267Y-13212676D01*
X8051600Y-13412676D02*
X8032552Y-13403152D01*
X8023028Y-13384105D01*
X8023028Y-13212676D01*
X8280171Y-13412676D02*
X8280171Y-13212676D01*
X8346838Y-13355533D01*
X8413505Y-13212676D01*
X8413505Y-13412676D01*
X8594457Y-13412676D02*
X8594457Y-13307914D01*
X8584933Y-13288867D01*
X8565886Y-13279343D01*
X8527790Y-13279343D01*
X8508743Y-13288867D01*
X8594457Y-13403152D02*
X8575410Y-13412676D01*
X8527790Y-13412676D01*
X8508743Y-13403152D01*
X8499219Y-13384105D01*
X8499219Y-13365057D01*
X8508743Y-13346009D01*
X8527790Y-13336486D01*
X8575410Y-13336486D01*
X8594457Y-13326962D01*
X8689695Y-13279343D02*
X8689695Y-13479343D01*
X8689695Y-13288867D02*
X8708743Y-13279343D01*
X8746838Y-13279343D01*
X8765886Y-13288867D01*
X8775410Y-13298390D01*
X8784933Y-13317438D01*
X8784933Y-13374581D01*
X8775410Y-13393628D01*
X8765886Y-13403152D01*
X8746838Y-13412676D01*
X8708743Y-13412676D01*
X8689695Y-13403152D01*
X8870648Y-13393628D02*
X8880171Y-13403152D01*
X8870648Y-13412676D01*
X8861124Y-13403152D01*
X8870648Y-13393628D01*
X8870648Y-13412676D01*
X8870648Y-13288867D02*
X8880171Y-13298390D01*
X8870648Y-13307914D01*
X8861124Y-13298390D01*
X8870648Y-13288867D01*
X8870648Y-13307914D01*
D12*
X7211600Y-13727200D02*
X7241600Y-13757200D01*
X7241600Y-13727200D02*
X7211600Y-13757200D01*
D11*
X7537314Y-13632676D02*
X7556362Y-13632676D01*
X7575409Y-13642200D01*
X7584933Y-13651724D01*
X7594457Y-13670771D01*
X7603981Y-13708867D01*
X7603981Y-13756486D01*
X7594457Y-13794581D01*
X7584933Y-13813628D01*
X7575409Y-13823152D01*
X7556362Y-13832676D01*
X7537314Y-13832676D01*
X7518267Y-13823152D01*
X7508743Y-13813628D01*
X7499219Y-13794581D01*
X7489695Y-13756486D01*
X7489695Y-13708867D01*
X7499219Y-13670771D01*
X7508743Y-13651724D01*
X7518267Y-13642200D01*
X7537314Y-13632676D01*
X7689695Y-13813628D02*
X7699219Y-13823152D01*
X7689695Y-13832676D01*
X7680171Y-13823152D01*
X7689695Y-13813628D01*
X7689695Y-13832676D01*
X7765886Y-13632676D02*
X7889695Y-13632676D01*
X7823028Y-13708867D01*
X7851600Y-13708867D01*
X7870648Y-13718390D01*
X7880171Y-13727914D01*
X7889695Y-13746962D01*
X7889695Y-13794581D01*
X7880171Y-13813628D01*
X7870648Y-13823152D01*
X7851600Y-13832676D01*
X7794457Y-13832676D01*
X7775409Y-13823152D01*
X7765886Y-13813628D01*
X8013505Y-13632676D02*
X8032552Y-13632676D01*
X8051600Y-13642200D01*
X8061124Y-13651724D01*
X8070648Y-13670771D01*
X8080171Y-13708867D01*
X8080171Y-13756486D01*
X8070648Y-13794581D01*
X8061124Y-13813628D01*
X8051600Y-13823152D01*
X8032552Y-13832676D01*
X8013505Y-13832676D01*
X7994457Y-13823152D01*
X7984933Y-13813628D01*
X7975409Y-13794581D01*
X7965886Y-13756486D01*
X7965886Y-13708867D01*
X7975409Y-13670771D01*
X7984933Y-13651724D01*
X7994457Y-13642200D01*
X8013505Y-13632676D01*
X8203981Y-13632676D02*
X8223028Y-13632676D01*
X8242076Y-13642200D01*
X8251600Y-13651724D01*
X8261124Y-13670771D01*
X8270648Y-13708867D01*
X8270648Y-13756486D01*
X8261124Y-13794581D01*
X8251600Y-13813628D01*
X8242076Y-13823152D01*
X8223028Y-13832676D01*
X8203981Y-13832676D01*
X8184933Y-13823152D01*
X8175409Y-13813628D01*
X8165886Y-13794581D01*
X8156362Y-13756486D01*
X8156362Y-13708867D01*
X8165886Y-13670771D01*
X8175409Y-13651724D01*
X8184933Y-13642200D01*
X8203981Y-13632676D01*
X8356362Y-13832676D02*
X8356362Y-13699343D01*
X8356362Y-13718390D02*
X8365886Y-13708867D01*
X8384933Y-13699343D01*
X8413505Y-13699343D01*
X8432552Y-13708867D01*
X8442076Y-13727914D01*
X8442076Y-13832676D01*
X8442076Y-13727914D02*
X8451600Y-13708867D01*
X8470648Y-13699343D01*
X8499219Y-13699343D01*
X8518267Y-13708867D01*
X8527790Y-13727914D01*
X8527790Y-13832676D01*
X8623029Y-13832676D02*
X8623029Y-13699343D01*
X8623029Y-13718390D02*
X8632552Y-13708867D01*
X8651600Y-13699343D01*
X8680171Y-13699343D01*
X8699219Y-13708867D01*
X8708743Y-13727914D01*
X8708743Y-13832676D01*
X8708743Y-13727914D02*
X8718267Y-13708867D01*
X8737314Y-13699343D01*
X8765886Y-13699343D01*
X8784933Y-13708867D01*
X8794457Y-13727914D01*
X8794457Y-13832676D01*
X9184933Y-13623152D02*
X9013505Y-13880295D01*
X9442076Y-13632676D02*
X9461124Y-13632676D01*
X9480171Y-13642200D01*
X9489695Y-13651724D01*
X9499219Y-13670771D01*
X9508743Y-13708867D01*
X9508743Y-13756486D01*
X9499219Y-13794581D01*
X9489695Y-13813628D01*
X9480171Y-13823152D01*
X9461124Y-13832676D01*
X9442076Y-13832676D01*
X9423029Y-13823152D01*
X9413505Y-13813628D01*
X9403981Y-13794581D01*
X9394457Y-13756486D01*
X9394457Y-13708867D01*
X9403981Y-13670771D01*
X9413505Y-13651724D01*
X9423029Y-13642200D01*
X9442076Y-13632676D01*
X9594457Y-13813628D02*
X9603981Y-13823152D01*
X9594457Y-13832676D01*
X9584933Y-13823152D01*
X9594457Y-13813628D01*
X9594457Y-13832676D01*
X9727790Y-13632676D02*
X9746838Y-13632676D01*
X9765886Y-13642200D01*
X9775410Y-13651724D01*
X9784933Y-13670771D01*
X9794457Y-13708867D01*
X9794457Y-13756486D01*
X9784933Y-13794581D01*
X9775410Y-13813628D01*
X9765886Y-13823152D01*
X9746838Y-13832676D01*
X9727790Y-13832676D01*
X9708743Y-13823152D01*
X9699219Y-13813628D01*
X9689695Y-13794581D01*
X9680171Y-13756486D01*
X9680171Y-13708867D01*
X9689695Y-13670771D01*
X9699219Y-13651724D01*
X9708743Y-13642200D01*
X9727790Y-13632676D01*
X9984933Y-13832676D02*
X9870648Y-13832676D01*
X9927790Y-13832676D02*
X9927790Y-13632676D01*
X9908743Y-13661248D01*
X9889695Y-13680295D01*
X9870648Y-13689819D01*
X10175410Y-13832676D02*
X10061124Y-13832676D01*
X10118267Y-13832676D02*
X10118267Y-13632676D01*
X10099219Y-13661248D01*
X10080171Y-13680295D01*
X10061124Y-13689819D01*
X10289695Y-13718390D02*
X10270648Y-13708867D01*
X10261124Y-13699343D01*
X10251600Y-13680295D01*
X10251600Y-13670771D01*
X10261124Y-13651724D01*
X10270648Y-13642200D01*
X10289695Y-13632676D01*
X10327790Y-13632676D01*
X10346838Y-13642200D01*
X10356362Y-13651724D01*
X10365886Y-13670771D01*
X10365886Y-13680295D01*
X10356362Y-13699343D01*
X10346838Y-13708867D01*
X10327790Y-13718390D01*
X10289695Y-13718390D01*
X10270648Y-13727914D01*
X10261124Y-13737438D01*
X10251600Y-13756486D01*
X10251600Y-13794581D01*
X10261124Y-13813628D01*
X10270648Y-13823152D01*
X10289695Y-13832676D01*
X10327790Y-13832676D01*
X10346838Y-13823152D01*
X10356362Y-13813628D01*
X10365886Y-13794581D01*
X10365886Y-13756486D01*
X10356362Y-13737438D01*
X10346838Y-13727914D01*
X10327790Y-13718390D01*
X10442076Y-13632676D02*
X10442076Y-13670771D01*
X10518267Y-13632676D02*
X10518267Y-13670771D01*
X10813505Y-13908867D02*
X10803981Y-13899343D01*
X10784933Y-13870771D01*
X10775410Y-13851724D01*
X10765886Y-13823152D01*
X10756362Y-13775533D01*
X10756362Y-13737438D01*
X10765886Y-13689819D01*
X10775410Y-13661248D01*
X10784933Y-13642200D01*
X10803981Y-13613628D01*
X10813505Y-13604105D01*
X10880171Y-13651724D02*
X10889695Y-13642200D01*
X10908743Y-13632676D01*
X10956362Y-13632676D01*
X10975410Y-13642200D01*
X10984933Y-13651724D01*
X10994457Y-13670771D01*
X10994457Y-13689819D01*
X10984933Y-13718390D01*
X10870648Y-13832676D01*
X10994457Y-13832676D01*
X11175410Y-13632676D02*
X11080171Y-13632676D01*
X11070648Y-13727914D01*
X11080171Y-13718390D01*
X11099219Y-13708867D01*
X11146838Y-13708867D01*
X11165886Y-13718390D01*
X11175410Y-13727914D01*
X11184933Y-13746962D01*
X11184933Y-13794581D01*
X11175410Y-13813628D01*
X11165886Y-13823152D01*
X11146838Y-13832676D01*
X11099219Y-13832676D01*
X11080171Y-13823152D01*
X11070648Y-13813628D01*
X11280171Y-13832676D02*
X11318267Y-13832676D01*
X11337314Y-13823152D01*
X11346838Y-13813628D01*
X11365886Y-13785057D01*
X11375409Y-13746962D01*
X11375409Y-13670771D01*
X11365886Y-13651724D01*
X11356362Y-13642200D01*
X11337314Y-13632676D01*
X11299219Y-13632676D01*
X11280171Y-13642200D01*
X11270648Y-13651724D01*
X11261124Y-13670771D01*
X11261124Y-13718390D01*
X11270648Y-13737438D01*
X11280171Y-13746962D01*
X11299219Y-13756486D01*
X11337314Y-13756486D01*
X11356362Y-13746962D01*
X11365886Y-13737438D01*
X11375409Y-13718390D01*
X11613505Y-13832676D02*
X11613505Y-13632676D01*
X11699219Y-13832676D02*
X11699219Y-13727914D01*
X11689695Y-13708867D01*
X11670648Y-13699343D01*
X11642076Y-13699343D01*
X11623028Y-13708867D01*
X11613505Y-13718390D01*
X11823028Y-13832676D02*
X11803981Y-13823152D01*
X11794457Y-13813628D01*
X11784933Y-13794581D01*
X11784933Y-13737438D01*
X11794457Y-13718390D01*
X11803981Y-13708867D01*
X11823028Y-13699343D01*
X11851600Y-13699343D01*
X11870648Y-13708867D01*
X11880171Y-13718390D01*
X11889695Y-13737438D01*
X11889695Y-13794581D01*
X11880171Y-13813628D01*
X11870648Y-13823152D01*
X11851600Y-13832676D01*
X11823028Y-13832676D01*
X12003981Y-13832676D02*
X11984933Y-13823152D01*
X11975409Y-13804105D01*
X11975409Y-13632676D01*
X12156362Y-13823152D02*
X12137314Y-13832676D01*
X12099219Y-13832676D01*
X12080171Y-13823152D01*
X12070648Y-13804105D01*
X12070648Y-13727914D01*
X12080171Y-13708867D01*
X12099219Y-13699343D01*
X12137314Y-13699343D01*
X12156362Y-13708867D01*
X12165886Y-13727914D01*
X12165886Y-13746962D01*
X12070648Y-13766009D01*
X12242076Y-13823152D02*
X12261124Y-13832676D01*
X12299219Y-13832676D01*
X12318267Y-13823152D01*
X12327790Y-13804105D01*
X12327790Y-13794581D01*
X12318267Y-13775533D01*
X12299219Y-13766009D01*
X12270648Y-13766009D01*
X12251600Y-13756486D01*
X12242076Y-13737438D01*
X12242076Y-13727914D01*
X12251600Y-13708867D01*
X12270648Y-13699343D01*
X12299219Y-13699343D01*
X12318267Y-13708867D01*
X12394457Y-13908867D02*
X12403981Y-13899343D01*
X12423028Y-13870771D01*
X12432552Y-13851724D01*
X12442076Y-13823152D01*
X12451600Y-13775533D01*
X12451600Y-13737438D01*
X12442076Y-13689819D01*
X12432552Y-13661248D01*
X12423028Y-13642200D01*
X12403981Y-13613628D01*
X12394457Y-13604105D01*
D13*
X7241600Y-14006200D02*
G75*
G03*
X7241600Y-14006200I-20000J0D01*
G01*
D11*
X7537314Y-13896676D02*
X7556362Y-13896676D01*
X7575409Y-13906200D01*
X7584933Y-13915724D01*
X7594457Y-13934771D01*
X7603981Y-13972867D01*
X7603981Y-14020486D01*
X7594457Y-14058581D01*
X7584933Y-14077628D01*
X7575409Y-14087152D01*
X7556362Y-14096676D01*
X7537314Y-14096676D01*
X7518267Y-14087152D01*
X7508743Y-14077628D01*
X7499219Y-14058581D01*
X7489695Y-14020486D01*
X7489695Y-13972867D01*
X7499219Y-13934771D01*
X7508743Y-13915724D01*
X7518267Y-13906200D01*
X7537314Y-13896676D01*
X7689695Y-14077628D02*
X7699219Y-14087152D01*
X7689695Y-14096676D01*
X7680171Y-14087152D01*
X7689695Y-14077628D01*
X7689695Y-14096676D01*
X7870648Y-13963343D02*
X7870648Y-14096676D01*
X7823028Y-13887152D02*
X7775409Y-14030009D01*
X7899219Y-14030009D01*
X8013505Y-13896676D02*
X8032552Y-13896676D01*
X8051600Y-13906200D01*
X8061124Y-13915724D01*
X8070648Y-13934771D01*
X8080171Y-13972867D01*
X8080171Y-14020486D01*
X8070648Y-14058581D01*
X8061124Y-14077628D01*
X8051600Y-14087152D01*
X8032552Y-14096676D01*
X8013505Y-14096676D01*
X7994457Y-14087152D01*
X7984933Y-14077628D01*
X7975409Y-14058581D01*
X7965886Y-14020486D01*
X7965886Y-13972867D01*
X7975409Y-13934771D01*
X7984933Y-13915724D01*
X7994457Y-13906200D01*
X8013505Y-13896676D01*
X8203981Y-13896676D02*
X8223028Y-13896676D01*
X8242076Y-13906200D01*
X8251600Y-13915724D01*
X8261124Y-13934771D01*
X8270648Y-13972867D01*
X8270648Y-14020486D01*
X8261124Y-14058581D01*
X8251600Y-14077628D01*
X8242076Y-14087152D01*
X8223028Y-14096676D01*
X8203981Y-14096676D01*
X8184933Y-14087152D01*
X8175409Y-14077628D01*
X8165886Y-14058581D01*
X8156362Y-14020486D01*
X8156362Y-13972867D01*
X8165886Y-13934771D01*
X8175409Y-13915724D01*
X8184933Y-13906200D01*
X8203981Y-13896676D01*
X8356362Y-14096676D02*
X8356362Y-13963343D01*
X8356362Y-13982390D02*
X8365886Y-13972867D01*
X8384933Y-13963343D01*
X8413505Y-13963343D01*
X8432552Y-13972867D01*
X8442076Y-13991914D01*
X8442076Y-14096676D01*
X8442076Y-13991914D02*
X8451600Y-13972867D01*
X8470648Y-13963343D01*
X8499219Y-13963343D01*
X8518267Y-13972867D01*
X8527790Y-13991914D01*
X8527790Y-14096676D01*
X8623029Y-14096676D02*
X8623029Y-13963343D01*
X8623029Y-13982390D02*
X8632552Y-13972867D01*
X8651600Y-13963343D01*
X8680171Y-13963343D01*
X8699219Y-13972867D01*
X8708743Y-13991914D01*
X8708743Y-14096676D01*
X8708743Y-13991914D02*
X8718267Y-13972867D01*
X8737314Y-13963343D01*
X8765886Y-13963343D01*
X8784933Y-13972867D01*
X8794457Y-13991914D01*
X8794457Y-14096676D01*
X9184933Y-13887152D02*
X9013505Y-14144295D01*
X9442076Y-13896676D02*
X9461124Y-13896676D01*
X9480171Y-13906200D01*
X9489695Y-13915724D01*
X9499219Y-13934771D01*
X9508743Y-13972867D01*
X9508743Y-14020486D01*
X9499219Y-14058581D01*
X9489695Y-14077628D01*
X9480171Y-14087152D01*
X9461124Y-14096676D01*
X9442076Y-14096676D01*
X9423029Y-14087152D01*
X9413505Y-14077628D01*
X9403981Y-14058581D01*
X9394457Y-14020486D01*
X9394457Y-13972867D01*
X9403981Y-13934771D01*
X9413505Y-13915724D01*
X9423029Y-13906200D01*
X9442076Y-13896676D01*
X9594457Y-14077628D02*
X9603981Y-14087152D01*
X9594457Y-14096676D01*
X9584933Y-14087152D01*
X9594457Y-14077628D01*
X9594457Y-14096676D01*
X9727790Y-13896676D02*
X9746838Y-13896676D01*
X9765886Y-13906200D01*
X9775410Y-13915724D01*
X9784933Y-13934771D01*
X9794457Y-13972867D01*
X9794457Y-14020486D01*
X9784933Y-14058581D01*
X9775410Y-14077628D01*
X9765886Y-14087152D01*
X9746838Y-14096676D01*
X9727790Y-14096676D01*
X9708743Y-14087152D01*
X9699219Y-14077628D01*
X9689695Y-14058581D01*
X9680171Y-14020486D01*
X9680171Y-13972867D01*
X9689695Y-13934771D01*
X9699219Y-13915724D01*
X9708743Y-13906200D01*
X9727790Y-13896676D01*
X9984933Y-14096676D02*
X9870648Y-14096676D01*
X9927790Y-14096676D02*
X9927790Y-13896676D01*
X9908743Y-13925248D01*
X9889695Y-13944295D01*
X9870648Y-13953819D01*
X10165886Y-13896676D02*
X10070648Y-13896676D01*
X10061124Y-13991914D01*
X10070648Y-13982390D01*
X10089695Y-13972867D01*
X10137314Y-13972867D01*
X10156362Y-13982390D01*
X10165886Y-13991914D01*
X10175410Y-14010962D01*
X10175410Y-14058581D01*
X10165886Y-14077628D01*
X10156362Y-14087152D01*
X10137314Y-14096676D01*
X10089695Y-14096676D01*
X10070648Y-14087152D01*
X10061124Y-14077628D01*
X10242076Y-13896676D02*
X10375410Y-13896676D01*
X10289695Y-14096676D01*
X10442076Y-13896676D02*
X10442076Y-13934771D01*
X10518267Y-13896676D02*
X10518267Y-13934771D01*
X10813505Y-14172867D02*
X10803981Y-14163343D01*
X10784933Y-14134771D01*
X10775410Y-14115724D01*
X10765886Y-14087152D01*
X10756362Y-14039533D01*
X10756362Y-14001438D01*
X10765886Y-13953819D01*
X10775410Y-13925248D01*
X10784933Y-13906200D01*
X10803981Y-13877628D01*
X10813505Y-13868105D01*
X10975410Y-13963343D02*
X10975410Y-14096676D01*
X10927790Y-13887152D02*
X10880171Y-14030009D01*
X11003981Y-14030009D01*
X11232552Y-14096676D02*
X11232552Y-13896676D01*
X11318267Y-14096676D02*
X11318267Y-13991914D01*
X11308743Y-13972867D01*
X11289695Y-13963343D01*
X11261124Y-13963343D01*
X11242076Y-13972867D01*
X11232552Y-13982390D01*
X11442076Y-14096676D02*
X11423028Y-14087152D01*
X11413505Y-14077628D01*
X11403981Y-14058581D01*
X11403981Y-14001438D01*
X11413505Y-13982390D01*
X11423028Y-13972867D01*
X11442076Y-13963343D01*
X11470648Y-13963343D01*
X11489695Y-13972867D01*
X11499219Y-13982390D01*
X11508743Y-14001438D01*
X11508743Y-14058581D01*
X11499219Y-14077628D01*
X11489695Y-14087152D01*
X11470648Y-14096676D01*
X11442076Y-14096676D01*
X11623028Y-14096676D02*
X11603981Y-14087152D01*
X11594457Y-14068105D01*
X11594457Y-13896676D01*
X11775409Y-14087152D02*
X11756362Y-14096676D01*
X11718267Y-14096676D01*
X11699219Y-14087152D01*
X11689695Y-14068105D01*
X11689695Y-13991914D01*
X11699219Y-13972867D01*
X11718267Y-13963343D01*
X11756362Y-13963343D01*
X11775409Y-13972867D01*
X11784933Y-13991914D01*
X11784933Y-14010962D01*
X11689695Y-14030009D01*
X11861124Y-14087152D02*
X11880171Y-14096676D01*
X11918267Y-14096676D01*
X11937314Y-14087152D01*
X11946838Y-14068105D01*
X11946838Y-14058581D01*
X11937314Y-14039533D01*
X11918267Y-14030009D01*
X11889695Y-14030009D01*
X11870648Y-14020486D01*
X11861124Y-14001438D01*
X11861124Y-13991914D01*
X11870648Y-13972867D01*
X11889695Y-13963343D01*
X11918267Y-13963343D01*
X11937314Y-13972867D01*
X12013505Y-14172867D02*
X12023028Y-14163343D01*
X12042076Y-14134771D01*
X12051600Y-14115724D01*
X12061124Y-14087152D01*
X12070648Y-14039533D01*
X12070648Y-14001438D01*
X12061124Y-13953819D01*
X12051600Y-13925248D01*
X12042076Y-13906200D01*
X12023028Y-13877628D01*
X12013505Y-13868105D01*
D14*
X7216600Y-14245200D02*
X7216600Y-14295200D01*
X7191600Y-14270200D02*
X7241600Y-14270200D01*
D11*
X7537314Y-14160676D02*
X7556362Y-14160676D01*
X7575409Y-14170200D01*
X7584933Y-14179724D01*
X7594457Y-14198771D01*
X7603981Y-14236867D01*
X7603981Y-14284486D01*
X7594457Y-14322581D01*
X7584933Y-14341628D01*
X7575409Y-14351152D01*
X7556362Y-14360676D01*
X7537314Y-14360676D01*
X7518267Y-14351152D01*
X7508743Y-14341628D01*
X7499219Y-14322581D01*
X7489695Y-14284486D01*
X7489695Y-14236867D01*
X7499219Y-14198771D01*
X7508743Y-14179724D01*
X7518267Y-14170200D01*
X7537314Y-14160676D01*
X7689695Y-14341628D02*
X7699219Y-14351152D01*
X7689695Y-14360676D01*
X7680171Y-14351152D01*
X7689695Y-14341628D01*
X7689695Y-14360676D01*
X7880171Y-14160676D02*
X7784933Y-14160676D01*
X7775409Y-14255914D01*
X7784933Y-14246390D01*
X7803981Y-14236867D01*
X7851600Y-14236867D01*
X7870648Y-14246390D01*
X7880171Y-14255914D01*
X7889695Y-14274962D01*
X7889695Y-14322581D01*
X7880171Y-14341628D01*
X7870648Y-14351152D01*
X7851600Y-14360676D01*
X7803981Y-14360676D01*
X7784933Y-14351152D01*
X7775409Y-14341628D01*
X8013505Y-14160676D02*
X8032552Y-14160676D01*
X8051600Y-14170200D01*
X8061124Y-14179724D01*
X8070648Y-14198771D01*
X8080171Y-14236867D01*
X8080171Y-14284486D01*
X8070648Y-14322581D01*
X8061124Y-14341628D01*
X8051600Y-14351152D01*
X8032552Y-14360676D01*
X8013505Y-14360676D01*
X7994457Y-14351152D01*
X7984933Y-14341628D01*
X7975409Y-14322581D01*
X7965886Y-14284486D01*
X7965886Y-14236867D01*
X7975409Y-14198771D01*
X7984933Y-14179724D01*
X7994457Y-14170200D01*
X8013505Y-14160676D01*
X8203981Y-14160676D02*
X8223028Y-14160676D01*
X8242076Y-14170200D01*
X8251600Y-14179724D01*
X8261124Y-14198771D01*
X8270648Y-14236867D01*
X8270648Y-14284486D01*
X8261124Y-14322581D01*
X8251600Y-14341628D01*
X8242076Y-14351152D01*
X8223028Y-14360676D01*
X8203981Y-14360676D01*
X8184933Y-14351152D01*
X8175409Y-14341628D01*
X8165886Y-14322581D01*
X8156362Y-14284486D01*
X8156362Y-14236867D01*
X8165886Y-14198771D01*
X8175409Y-14179724D01*
X8184933Y-14170200D01*
X8203981Y-14160676D01*
X8356362Y-14360676D02*
X8356362Y-14227343D01*
X8356362Y-14246390D02*
X8365886Y-14236867D01*
X8384933Y-14227343D01*
X8413505Y-14227343D01*
X8432552Y-14236867D01*
X8442076Y-14255914D01*
X8442076Y-14360676D01*
X8442076Y-14255914D02*
X8451600Y-14236867D01*
X8470648Y-14227343D01*
X8499219Y-14227343D01*
X8518267Y-14236867D01*
X8527790Y-14255914D01*
X8527790Y-14360676D01*
X8623029Y-14360676D02*
X8623029Y-14227343D01*
X8623029Y-14246390D02*
X8632552Y-14236867D01*
X8651600Y-14227343D01*
X8680171Y-14227343D01*
X8699219Y-14236867D01*
X8708743Y-14255914D01*
X8708743Y-14360676D01*
X8708743Y-14255914D02*
X8718267Y-14236867D01*
X8737314Y-14227343D01*
X8765886Y-14227343D01*
X8784933Y-14236867D01*
X8794457Y-14255914D01*
X8794457Y-14360676D01*
X9184933Y-14151152D02*
X9013505Y-14408295D01*
X9442076Y-14160676D02*
X9461124Y-14160676D01*
X9480171Y-14170200D01*
X9489695Y-14179724D01*
X9499219Y-14198771D01*
X9508743Y-14236867D01*
X9508743Y-14284486D01*
X9499219Y-14322581D01*
X9489695Y-14341628D01*
X9480171Y-14351152D01*
X9461124Y-14360676D01*
X9442076Y-14360676D01*
X9423029Y-14351152D01*
X9413505Y-14341628D01*
X9403981Y-14322581D01*
X9394457Y-14284486D01*
X9394457Y-14236867D01*
X9403981Y-14198771D01*
X9413505Y-14179724D01*
X9423029Y-14170200D01*
X9442076Y-14160676D01*
X9594457Y-14341628D02*
X9603981Y-14351152D01*
X9594457Y-14360676D01*
X9584933Y-14351152D01*
X9594457Y-14341628D01*
X9594457Y-14360676D01*
X9727790Y-14160676D02*
X9746838Y-14160676D01*
X9765886Y-14170200D01*
X9775410Y-14179724D01*
X9784933Y-14198771D01*
X9794457Y-14236867D01*
X9794457Y-14284486D01*
X9784933Y-14322581D01*
X9775410Y-14341628D01*
X9765886Y-14351152D01*
X9746838Y-14360676D01*
X9727790Y-14360676D01*
X9708743Y-14351152D01*
X9699219Y-14341628D01*
X9689695Y-14322581D01*
X9680171Y-14284486D01*
X9680171Y-14236867D01*
X9689695Y-14198771D01*
X9699219Y-14179724D01*
X9708743Y-14170200D01*
X9727790Y-14160676D01*
X9984933Y-14360676D02*
X9870648Y-14360676D01*
X9927790Y-14360676D02*
X9927790Y-14160676D01*
X9908743Y-14189248D01*
X9889695Y-14208295D01*
X9870648Y-14217819D01*
X10080171Y-14360676D02*
X10118267Y-14360676D01*
X10137314Y-14351152D01*
X10146838Y-14341628D01*
X10165886Y-14313057D01*
X10175410Y-14274962D01*
X10175410Y-14198771D01*
X10165886Y-14179724D01*
X10156362Y-14170200D01*
X10137314Y-14160676D01*
X10099219Y-14160676D01*
X10080171Y-14170200D01*
X10070648Y-14179724D01*
X10061124Y-14198771D01*
X10061124Y-14246390D01*
X10070648Y-14265438D01*
X10080171Y-14274962D01*
X10099219Y-14284486D01*
X10137314Y-14284486D01*
X10156362Y-14274962D01*
X10165886Y-14265438D01*
X10175410Y-14246390D01*
X10242076Y-14160676D02*
X10375410Y-14160676D01*
X10289695Y-14360676D01*
X10442076Y-14160676D02*
X10442076Y-14198771D01*
X10518267Y-14160676D02*
X10518267Y-14198771D01*
X10813505Y-14436867D02*
X10803981Y-14427343D01*
X10784933Y-14398771D01*
X10775410Y-14379724D01*
X10765886Y-14351152D01*
X10756362Y-14303533D01*
X10756362Y-14265438D01*
X10765886Y-14217819D01*
X10775410Y-14189248D01*
X10784933Y-14170200D01*
X10803981Y-14141628D01*
X10813505Y-14132105D01*
X10994457Y-14360676D02*
X10880171Y-14360676D01*
X10937314Y-14360676D02*
X10937314Y-14160676D01*
X10918267Y-14189248D01*
X10899219Y-14208295D01*
X10880171Y-14217819D01*
X11165886Y-14160676D02*
X11127790Y-14160676D01*
X11108743Y-14170200D01*
X11099219Y-14179724D01*
X11080171Y-14208295D01*
X11070648Y-14246390D01*
X11070648Y-14322581D01*
X11080171Y-14341628D01*
X11089695Y-14351152D01*
X11108743Y-14360676D01*
X11146838Y-14360676D01*
X11165886Y-14351152D01*
X11175410Y-14341628D01*
X11184933Y-14322581D01*
X11184933Y-14274962D01*
X11175410Y-14255914D01*
X11165886Y-14246390D01*
X11146838Y-14236867D01*
X11108743Y-14236867D01*
X11089695Y-14246390D01*
X11080171Y-14255914D01*
X11070648Y-14274962D01*
X11423028Y-14360676D02*
X11423028Y-14160676D01*
X11508743Y-14360676D02*
X11508743Y-14255914D01*
X11499219Y-14236867D01*
X11480171Y-14227343D01*
X11451600Y-14227343D01*
X11432552Y-14236867D01*
X11423028Y-14246390D01*
X11632552Y-14360676D02*
X11613505Y-14351152D01*
X11603981Y-14341628D01*
X11594457Y-14322581D01*
X11594457Y-14265438D01*
X11603981Y-14246390D01*
X11613505Y-14236867D01*
X11632552Y-14227343D01*
X11661124Y-14227343D01*
X11680171Y-14236867D01*
X11689695Y-14246390D01*
X11699219Y-14265438D01*
X11699219Y-14322581D01*
X11689695Y-14341628D01*
X11680171Y-14351152D01*
X11661124Y-14360676D01*
X11632552Y-14360676D01*
X11813505Y-14360676D02*
X11794457Y-14351152D01*
X11784933Y-14332105D01*
X11784933Y-14160676D01*
X11965886Y-14351152D02*
X11946838Y-14360676D01*
X11908743Y-14360676D01*
X11889695Y-14351152D01*
X11880171Y-14332105D01*
X11880171Y-14255914D01*
X11889695Y-14236867D01*
X11908743Y-14227343D01*
X11946838Y-14227343D01*
X11965886Y-14236867D01*
X11975409Y-14255914D01*
X11975409Y-14274962D01*
X11880171Y-14294009D01*
X12051600Y-14351152D02*
X12070648Y-14360676D01*
X12108743Y-14360676D01*
X12127790Y-14351152D01*
X12137314Y-14332105D01*
X12137314Y-14322581D01*
X12127790Y-14303533D01*
X12108743Y-14294009D01*
X12080171Y-14294009D01*
X12061124Y-14284486D01*
X12051600Y-14265438D01*
X12051600Y-14255914D01*
X12061124Y-14236867D01*
X12080171Y-14227343D01*
X12108743Y-14227343D01*
X12127790Y-14236867D01*
X12203981Y-14436867D02*
X12213505Y-14427343D01*
X12232552Y-14398771D01*
X12242076Y-14379724D01*
X12251600Y-14351152D01*
X12261124Y-14303533D01*
X12261124Y-14265438D01*
X12251600Y-14217819D01*
X12242076Y-14189248D01*
X12232552Y-14170200D01*
X12213505Y-14141628D01*
X12203981Y-14132105D01*
D15*
X7231349Y-14558949D02*
X7231349Y-14509451D01*
X7181851Y-14509451D01*
X7181851Y-14558949D01*
X7231349Y-14558949D01*
D11*
X7537314Y-14424676D02*
X7556362Y-14424676D01*
X7575409Y-14434200D01*
X7584933Y-14443724D01*
X7594457Y-14462771D01*
X7603981Y-14500867D01*
X7603981Y-14548486D01*
X7594457Y-14586581D01*
X7584933Y-14605628D01*
X7575409Y-14615152D01*
X7556362Y-14624676D01*
X7537314Y-14624676D01*
X7518267Y-14615152D01*
X7508743Y-14605628D01*
X7499219Y-14586581D01*
X7489695Y-14548486D01*
X7489695Y-14500867D01*
X7499219Y-14462771D01*
X7508743Y-14443724D01*
X7518267Y-14434200D01*
X7537314Y-14424676D01*
X7689695Y-14605628D02*
X7699219Y-14615152D01*
X7689695Y-14624676D01*
X7680171Y-14615152D01*
X7689695Y-14605628D01*
X7689695Y-14624676D01*
X7765886Y-14424676D02*
X7899219Y-14424676D01*
X7813505Y-14624676D01*
X8013505Y-14424676D02*
X8032552Y-14424676D01*
X8051600Y-14434200D01*
X8061124Y-14443724D01*
X8070648Y-14462771D01*
X8080171Y-14500867D01*
X8080171Y-14548486D01*
X8070648Y-14586581D01*
X8061124Y-14605628D01*
X8051600Y-14615152D01*
X8032552Y-14624676D01*
X8013505Y-14624676D01*
X7994457Y-14615152D01*
X7984933Y-14605628D01*
X7975409Y-14586581D01*
X7965886Y-14548486D01*
X7965886Y-14500867D01*
X7975409Y-14462771D01*
X7984933Y-14443724D01*
X7994457Y-14434200D01*
X8013505Y-14424676D01*
X8203981Y-14424676D02*
X8223028Y-14424676D01*
X8242076Y-14434200D01*
X8251600Y-14443724D01*
X8261124Y-14462771D01*
X8270648Y-14500867D01*
X8270648Y-14548486D01*
X8261124Y-14586581D01*
X8251600Y-14605628D01*
X8242076Y-14615152D01*
X8223028Y-14624676D01*
X8203981Y-14624676D01*
X8184933Y-14615152D01*
X8175409Y-14605628D01*
X8165886Y-14586581D01*
X8156362Y-14548486D01*
X8156362Y-14500867D01*
X8165886Y-14462771D01*
X8175409Y-14443724D01*
X8184933Y-14434200D01*
X8203981Y-14424676D01*
X8356362Y-14624676D02*
X8356362Y-14491343D01*
X8356362Y-14510390D02*
X8365886Y-14500867D01*
X8384933Y-14491343D01*
X8413505Y-14491343D01*
X8432552Y-14500867D01*
X8442076Y-14519914D01*
X8442076Y-14624676D01*
X8442076Y-14519914D02*
X8451600Y-14500867D01*
X8470648Y-14491343D01*
X8499219Y-14491343D01*
X8518267Y-14500867D01*
X8527790Y-14519914D01*
X8527790Y-14624676D01*
X8623029Y-14624676D02*
X8623029Y-14491343D01*
X8623029Y-14510390D02*
X8632552Y-14500867D01*
X8651600Y-14491343D01*
X8680171Y-14491343D01*
X8699219Y-14500867D01*
X8708743Y-14519914D01*
X8708743Y-14624676D01*
X8708743Y-14519914D02*
X8718267Y-14500867D01*
X8737314Y-14491343D01*
X8765886Y-14491343D01*
X8784933Y-14500867D01*
X8794457Y-14519914D01*
X8794457Y-14624676D01*
X9184933Y-14415152D02*
X9013505Y-14672295D01*
X9442076Y-14424676D02*
X9461124Y-14424676D01*
X9480171Y-14434200D01*
X9489695Y-14443724D01*
X9499219Y-14462771D01*
X9508743Y-14500867D01*
X9508743Y-14548486D01*
X9499219Y-14586581D01*
X9489695Y-14605628D01*
X9480171Y-14615152D01*
X9461124Y-14624676D01*
X9442076Y-14624676D01*
X9423029Y-14615152D01*
X9413505Y-14605628D01*
X9403981Y-14586581D01*
X9394457Y-14548486D01*
X9394457Y-14500867D01*
X9403981Y-14462771D01*
X9413505Y-14443724D01*
X9423029Y-14434200D01*
X9442076Y-14424676D01*
X9594457Y-14605628D02*
X9603981Y-14615152D01*
X9594457Y-14624676D01*
X9584933Y-14615152D01*
X9594457Y-14605628D01*
X9594457Y-14624676D01*
X9727790Y-14424676D02*
X9746838Y-14424676D01*
X9765886Y-14434200D01*
X9775410Y-14443724D01*
X9784933Y-14462771D01*
X9794457Y-14500867D01*
X9794457Y-14548486D01*
X9784933Y-14586581D01*
X9775410Y-14605628D01*
X9765886Y-14615152D01*
X9746838Y-14624676D01*
X9727790Y-14624676D01*
X9708743Y-14615152D01*
X9699219Y-14605628D01*
X9689695Y-14586581D01*
X9680171Y-14548486D01*
X9680171Y-14500867D01*
X9689695Y-14462771D01*
X9699219Y-14443724D01*
X9708743Y-14434200D01*
X9727790Y-14424676D01*
X9870648Y-14443724D02*
X9880171Y-14434200D01*
X9899219Y-14424676D01*
X9946838Y-14424676D01*
X9965886Y-14434200D01*
X9975410Y-14443724D01*
X9984933Y-14462771D01*
X9984933Y-14481819D01*
X9975410Y-14510390D01*
X9861124Y-14624676D01*
X9984933Y-14624676D01*
X10051600Y-14424676D02*
X10184933Y-14424676D01*
X10099219Y-14624676D01*
X10346838Y-14424676D02*
X10308743Y-14424676D01*
X10289695Y-14434200D01*
X10280171Y-14443724D01*
X10261124Y-14472295D01*
X10251600Y-14510390D01*
X10251600Y-14586581D01*
X10261124Y-14605628D01*
X10270648Y-14615152D01*
X10289695Y-14624676D01*
X10327790Y-14624676D01*
X10346838Y-14615152D01*
X10356362Y-14605628D01*
X10365886Y-14586581D01*
X10365886Y-14538962D01*
X10356362Y-14519914D01*
X10346838Y-14510390D01*
X10327790Y-14500867D01*
X10289695Y-14500867D01*
X10270648Y-14510390D01*
X10261124Y-14519914D01*
X10251600Y-14538962D01*
X10442076Y-14424676D02*
X10442076Y-14462771D01*
X10518267Y-14424676D02*
X10518267Y-14462771D01*
X10813505Y-14700867D02*
X10803981Y-14691343D01*
X10784933Y-14662771D01*
X10775410Y-14643724D01*
X10765886Y-14615152D01*
X10756362Y-14567533D01*
X10756362Y-14529438D01*
X10765886Y-14481819D01*
X10775410Y-14453248D01*
X10784933Y-14434200D01*
X10803981Y-14405628D01*
X10813505Y-14396105D01*
X10984933Y-14424676D02*
X10889695Y-14424676D01*
X10880171Y-14519914D01*
X10889695Y-14510390D01*
X10908743Y-14500867D01*
X10956362Y-14500867D01*
X10975410Y-14510390D01*
X10984933Y-14519914D01*
X10994457Y-14538962D01*
X10994457Y-14586581D01*
X10984933Y-14605628D01*
X10975410Y-14615152D01*
X10956362Y-14624676D01*
X10908743Y-14624676D01*
X10889695Y-14615152D01*
X10880171Y-14605628D01*
X11232552Y-14624676D02*
X11232552Y-14424676D01*
X11318267Y-14624676D02*
X11318267Y-14519914D01*
X11308743Y-14500867D01*
X11289695Y-14491343D01*
X11261124Y-14491343D01*
X11242076Y-14500867D01*
X11232552Y-14510390D01*
X11442076Y-14624676D02*
X11423028Y-14615152D01*
X11413505Y-14605628D01*
X11403981Y-14586581D01*
X11403981Y-14529438D01*
X11413505Y-14510390D01*
X11423028Y-14500867D01*
X11442076Y-14491343D01*
X11470648Y-14491343D01*
X11489695Y-14500867D01*
X11499219Y-14510390D01*
X11508743Y-14529438D01*
X11508743Y-14586581D01*
X11499219Y-14605628D01*
X11489695Y-14615152D01*
X11470648Y-14624676D01*
X11442076Y-14624676D01*
X11623028Y-14624676D02*
X11603981Y-14615152D01*
X11594457Y-14596105D01*
X11594457Y-14424676D01*
X11775409Y-14615152D02*
X11756362Y-14624676D01*
X11718267Y-14624676D01*
X11699219Y-14615152D01*
X11689695Y-14596105D01*
X11689695Y-14519914D01*
X11699219Y-14500867D01*
X11718267Y-14491343D01*
X11756362Y-14491343D01*
X11775409Y-14500867D01*
X11784933Y-14519914D01*
X11784933Y-14538962D01*
X11689695Y-14558009D01*
X11861124Y-14615152D02*
X11880171Y-14624676D01*
X11918267Y-14624676D01*
X11937314Y-14615152D01*
X11946838Y-14596105D01*
X11946838Y-14586581D01*
X11937314Y-14567533D01*
X11918267Y-14558009D01*
X11889695Y-14558009D01*
X11870648Y-14548486D01*
X11861124Y-14529438D01*
X11861124Y-14519914D01*
X11870648Y-14500867D01*
X11889695Y-14491343D01*
X11918267Y-14491343D01*
X11937314Y-14500867D01*
X12184933Y-14548486D02*
X12337314Y-14548486D01*
X12261124Y-14624676D02*
X12261124Y-14472295D01*
X12575409Y-14443724D02*
X12584933Y-14434200D01*
X12603981Y-14424676D01*
X12651600Y-14424676D01*
X12670648Y-14434200D01*
X12680171Y-14443724D01*
X12689695Y-14462771D01*
X12689695Y-14481819D01*
X12680171Y-14510390D01*
X12565886Y-14624676D01*
X12689695Y-14624676D01*
X12918267Y-14615152D02*
X12937314Y-14624676D01*
X12975409Y-14624676D01*
X12994457Y-14615152D01*
X13003981Y-14596105D01*
X13003981Y-14586581D01*
X12994457Y-14567533D01*
X12975409Y-14558009D01*
X12946838Y-14558009D01*
X12927790Y-14548486D01*
X12918267Y-14529438D01*
X12918267Y-14519914D01*
X12927790Y-14500867D01*
X12946838Y-14491343D01*
X12975409Y-14491343D01*
X12994457Y-14500867D01*
X13118267Y-14624676D02*
X13099219Y-14615152D01*
X13089695Y-14596105D01*
X13089695Y-14424676D01*
X13223028Y-14624676D02*
X13203981Y-14615152D01*
X13194457Y-14605628D01*
X13184933Y-14586581D01*
X13184933Y-14529438D01*
X13194457Y-14510390D01*
X13203981Y-14500867D01*
X13223028Y-14491343D01*
X13251600Y-14491343D01*
X13270648Y-14500867D01*
X13280171Y-14510390D01*
X13289695Y-14529438D01*
X13289695Y-14586581D01*
X13280171Y-14605628D01*
X13270648Y-14615152D01*
X13251600Y-14624676D01*
X13223028Y-14624676D01*
X13346838Y-14491343D02*
X13423028Y-14491343D01*
X13375409Y-14424676D02*
X13375409Y-14596105D01*
X13384933Y-14615152D01*
X13403981Y-14624676D01*
X13423028Y-14624676D01*
X13480171Y-14615152D02*
X13499219Y-14624676D01*
X13537314Y-14624676D01*
X13556362Y-14615152D01*
X13565886Y-14596105D01*
X13565886Y-14586581D01*
X13556362Y-14567533D01*
X13537314Y-14558009D01*
X13508743Y-14558009D01*
X13489695Y-14548486D01*
X13480171Y-14529438D01*
X13480171Y-14519914D01*
X13489695Y-14500867D01*
X13508743Y-14491343D01*
X13537314Y-14491343D01*
X13556362Y-14500867D01*
X13632552Y-14700867D02*
X13642076Y-14691343D01*
X13661124Y-14662771D01*
X13670648Y-14643724D01*
X13680171Y-14615152D01*
X13689695Y-14567533D01*
X13689695Y-14529438D01*
X13680171Y-14481819D01*
X13670648Y-14453248D01*
X13661124Y-14434200D01*
X13642076Y-14405628D01*
X13632552Y-14396105D01*
D10*
X7191600Y-14848200D02*
X7241600Y-14798200D01*
X7191600Y-14748200D01*
X7141600Y-14798200D01*
X7191600Y-14848200D01*
D11*
X7603981Y-14888676D02*
X7489695Y-14888676D01*
X7546838Y-14888676D02*
X7546838Y-14688676D01*
X7527790Y-14717248D01*
X7508743Y-14736295D01*
X7489695Y-14745819D01*
X7689695Y-14869628D02*
X7699219Y-14879152D01*
X7689695Y-14888676D01*
X7680171Y-14879152D01*
X7689695Y-14869628D01*
X7689695Y-14888676D01*
X7823028Y-14688676D02*
X7842076Y-14688676D01*
X7861124Y-14698200D01*
X7870648Y-14707724D01*
X7880171Y-14726771D01*
X7889695Y-14764867D01*
X7889695Y-14812486D01*
X7880171Y-14850581D01*
X7870648Y-14869628D01*
X7861124Y-14879152D01*
X7842076Y-14888676D01*
X7823028Y-14888676D01*
X7803981Y-14879152D01*
X7794457Y-14869628D01*
X7784933Y-14850581D01*
X7775409Y-14812486D01*
X7775409Y-14764867D01*
X7784933Y-14726771D01*
X7794457Y-14707724D01*
X7803981Y-14698200D01*
X7823028Y-14688676D01*
X8013505Y-14688676D02*
X8032552Y-14688676D01*
X8051600Y-14698200D01*
X8061124Y-14707724D01*
X8070648Y-14726771D01*
X8080171Y-14764867D01*
X8080171Y-14812486D01*
X8070648Y-14850581D01*
X8061124Y-14869628D01*
X8051600Y-14879152D01*
X8032552Y-14888676D01*
X8013505Y-14888676D01*
X7994457Y-14879152D01*
X7984933Y-14869628D01*
X7975409Y-14850581D01*
X7965886Y-14812486D01*
X7965886Y-14764867D01*
X7975409Y-14726771D01*
X7984933Y-14707724D01*
X7994457Y-14698200D01*
X8013505Y-14688676D01*
X8203981Y-14688676D02*
X8223028Y-14688676D01*
X8242076Y-14698200D01*
X8251600Y-14707724D01*
X8261124Y-14726771D01*
X8270648Y-14764867D01*
X8270648Y-14812486D01*
X8261124Y-14850581D01*
X8251600Y-14869628D01*
X8242076Y-14879152D01*
X8223028Y-14888676D01*
X8203981Y-14888676D01*
X8184933Y-14879152D01*
X8175409Y-14869628D01*
X8165886Y-14850581D01*
X8156362Y-14812486D01*
X8156362Y-14764867D01*
X8165886Y-14726771D01*
X8175409Y-14707724D01*
X8184933Y-14698200D01*
X8203981Y-14688676D01*
X8356362Y-14888676D02*
X8356362Y-14755343D01*
X8356362Y-14774390D02*
X8365886Y-14764867D01*
X8384933Y-14755343D01*
X8413505Y-14755343D01*
X8432552Y-14764867D01*
X8442076Y-14783914D01*
X8442076Y-14888676D01*
X8442076Y-14783914D02*
X8451600Y-14764867D01*
X8470648Y-14755343D01*
X8499219Y-14755343D01*
X8518267Y-14764867D01*
X8527790Y-14783914D01*
X8527790Y-14888676D01*
X8623029Y-14888676D02*
X8623029Y-14755343D01*
X8623029Y-14774390D02*
X8632552Y-14764867D01*
X8651600Y-14755343D01*
X8680171Y-14755343D01*
X8699219Y-14764867D01*
X8708743Y-14783914D01*
X8708743Y-14888676D01*
X8708743Y-14783914D02*
X8718267Y-14764867D01*
X8737314Y-14755343D01*
X8765886Y-14755343D01*
X8784933Y-14764867D01*
X8794457Y-14783914D01*
X8794457Y-14888676D01*
X9184933Y-14679152D02*
X9013505Y-14936295D01*
X9442076Y-14688676D02*
X9461124Y-14688676D01*
X9480171Y-14698200D01*
X9489695Y-14707724D01*
X9499219Y-14726771D01*
X9508743Y-14764867D01*
X9508743Y-14812486D01*
X9499219Y-14850581D01*
X9489695Y-14869628D01*
X9480171Y-14879152D01*
X9461124Y-14888676D01*
X9442076Y-14888676D01*
X9423029Y-14879152D01*
X9413505Y-14869628D01*
X9403981Y-14850581D01*
X9394457Y-14812486D01*
X9394457Y-14764867D01*
X9403981Y-14726771D01*
X9413505Y-14707724D01*
X9423029Y-14698200D01*
X9442076Y-14688676D01*
X9594457Y-14869628D02*
X9603981Y-14879152D01*
X9594457Y-14888676D01*
X9584933Y-14879152D01*
X9594457Y-14869628D01*
X9594457Y-14888676D01*
X9727790Y-14688676D02*
X9746838Y-14688676D01*
X9765886Y-14698200D01*
X9775410Y-14707724D01*
X9784933Y-14726771D01*
X9794457Y-14764867D01*
X9794457Y-14812486D01*
X9784933Y-14850581D01*
X9775410Y-14869628D01*
X9765886Y-14879152D01*
X9746838Y-14888676D01*
X9727790Y-14888676D01*
X9708743Y-14879152D01*
X9699219Y-14869628D01*
X9689695Y-14850581D01*
X9680171Y-14812486D01*
X9680171Y-14764867D01*
X9689695Y-14726771D01*
X9699219Y-14707724D01*
X9708743Y-14698200D01*
X9727790Y-14688676D01*
X9861124Y-14688676D02*
X9984933Y-14688676D01*
X9918267Y-14764867D01*
X9946838Y-14764867D01*
X9965886Y-14774390D01*
X9975410Y-14783914D01*
X9984933Y-14802962D01*
X9984933Y-14850581D01*
X9975410Y-14869628D01*
X9965886Y-14879152D01*
X9946838Y-14888676D01*
X9889695Y-14888676D01*
X9870648Y-14879152D01*
X9861124Y-14869628D01*
X10080171Y-14888676D02*
X10118267Y-14888676D01*
X10137314Y-14879152D01*
X10146838Y-14869628D01*
X10165886Y-14841057D01*
X10175410Y-14802962D01*
X10175410Y-14726771D01*
X10165886Y-14707724D01*
X10156362Y-14698200D01*
X10137314Y-14688676D01*
X10099219Y-14688676D01*
X10080171Y-14698200D01*
X10070648Y-14707724D01*
X10061124Y-14726771D01*
X10061124Y-14774390D01*
X10070648Y-14793438D01*
X10080171Y-14802962D01*
X10099219Y-14812486D01*
X10137314Y-14812486D01*
X10156362Y-14802962D01*
X10165886Y-14793438D01*
X10175410Y-14774390D01*
X10346838Y-14755343D02*
X10346838Y-14888676D01*
X10299219Y-14679152D02*
X10251600Y-14822009D01*
X10375410Y-14822009D01*
X10442076Y-14688676D02*
X10442076Y-14726771D01*
X10518267Y-14688676D02*
X10518267Y-14726771D01*
X10813505Y-14964867D02*
X10803981Y-14955343D01*
X10784933Y-14926771D01*
X10775410Y-14907724D01*
X10765886Y-14879152D01*
X10756362Y-14831533D01*
X10756362Y-14793438D01*
X10765886Y-14745819D01*
X10775410Y-14717248D01*
X10784933Y-14698200D01*
X10803981Y-14669628D01*
X10813505Y-14660105D01*
X10994457Y-14888676D02*
X10880171Y-14888676D01*
X10937314Y-14888676D02*
X10937314Y-14688676D01*
X10918267Y-14717248D01*
X10899219Y-14736295D01*
X10880171Y-14745819D01*
X11070648Y-14707724D02*
X11080171Y-14698200D01*
X11099219Y-14688676D01*
X11146838Y-14688676D01*
X11165886Y-14698200D01*
X11175410Y-14707724D01*
X11184933Y-14726771D01*
X11184933Y-14745819D01*
X11175410Y-14774390D01*
X11061124Y-14888676D01*
X11184933Y-14888676D01*
X11423028Y-14888676D02*
X11423028Y-14688676D01*
X11508743Y-14888676D02*
X11508743Y-14783914D01*
X11499219Y-14764867D01*
X11480171Y-14755343D01*
X11451600Y-14755343D01*
X11432552Y-14764867D01*
X11423028Y-14774390D01*
X11632552Y-14888676D02*
X11613505Y-14879152D01*
X11603981Y-14869628D01*
X11594457Y-14850581D01*
X11594457Y-14793438D01*
X11603981Y-14774390D01*
X11613505Y-14764867D01*
X11632552Y-14755343D01*
X11661124Y-14755343D01*
X11680171Y-14764867D01*
X11689695Y-14774390D01*
X11699219Y-14793438D01*
X11699219Y-14850581D01*
X11689695Y-14869628D01*
X11680171Y-14879152D01*
X11661124Y-14888676D01*
X11632552Y-14888676D01*
X11813505Y-14888676D02*
X11794457Y-14879152D01*
X11784933Y-14860105D01*
X11784933Y-14688676D01*
X11965886Y-14879152D02*
X11946838Y-14888676D01*
X11908743Y-14888676D01*
X11889695Y-14879152D01*
X11880171Y-14860105D01*
X11880171Y-14783914D01*
X11889695Y-14764867D01*
X11908743Y-14755343D01*
X11946838Y-14755343D01*
X11965886Y-14764867D01*
X11975409Y-14783914D01*
X11975409Y-14802962D01*
X11880171Y-14822009D01*
X12051600Y-14879152D02*
X12070648Y-14888676D01*
X12108743Y-14888676D01*
X12127790Y-14879152D01*
X12137314Y-14860105D01*
X12137314Y-14850581D01*
X12127790Y-14831533D01*
X12108743Y-14822009D01*
X12080171Y-14822009D01*
X12061124Y-14812486D01*
X12051600Y-14793438D01*
X12051600Y-14783914D01*
X12061124Y-14764867D01*
X12080171Y-14755343D01*
X12108743Y-14755343D01*
X12127790Y-14764867D01*
X12203981Y-14964867D02*
X12213505Y-14955343D01*
X12232552Y-14926771D01*
X12242076Y-14907724D01*
X12251600Y-14879152D01*
X12261124Y-14831533D01*
X12261124Y-14793438D01*
X12251600Y-14745819D01*
X12242076Y-14717248D01*
X12232552Y-14698200D01*
X12213505Y-14669628D01*
X12203981Y-14660105D01*
D16*
X7121600Y-15002200D02*
X7241600Y-15122200D01*
X7241600Y-15002200D02*
X7121600Y-15122200D01*
X7241600Y-15062200D02*
G75*
G03*
X7241600Y-15062200I-60000J0D01*
G01*
D11*
X7603981Y-15152676D02*
X7489695Y-15152676D01*
X7546838Y-15152676D02*
X7546838Y-14952676D01*
X7527790Y-14981248D01*
X7508743Y-15000295D01*
X7489695Y-15009819D01*
X7689695Y-15133628D02*
X7699219Y-15143152D01*
X7689695Y-15152676D01*
X7680171Y-15143152D01*
X7689695Y-15133628D01*
X7689695Y-15152676D01*
X7775409Y-14971724D02*
X7784933Y-14962200D01*
X7803981Y-14952676D01*
X7851600Y-14952676D01*
X7870648Y-14962200D01*
X7880171Y-14971724D01*
X7889695Y-14990771D01*
X7889695Y-15009819D01*
X7880171Y-15038390D01*
X7765886Y-15152676D01*
X7889695Y-15152676D01*
X8013505Y-14952676D02*
X8032552Y-14952676D01*
X8051600Y-14962200D01*
X8061124Y-14971724D01*
X8070648Y-14990771D01*
X8080171Y-15028867D01*
X8080171Y-15076486D01*
X8070648Y-15114581D01*
X8061124Y-15133628D01*
X8051600Y-15143152D01*
X8032552Y-15152676D01*
X8013505Y-15152676D01*
X7994457Y-15143152D01*
X7984933Y-15133628D01*
X7975409Y-15114581D01*
X7965886Y-15076486D01*
X7965886Y-15028867D01*
X7975409Y-14990771D01*
X7984933Y-14971724D01*
X7994457Y-14962200D01*
X8013505Y-14952676D01*
X8203981Y-14952676D02*
X8223028Y-14952676D01*
X8242076Y-14962200D01*
X8251600Y-14971724D01*
X8261124Y-14990771D01*
X8270648Y-15028867D01*
X8270648Y-15076486D01*
X8261124Y-15114581D01*
X8251600Y-15133628D01*
X8242076Y-15143152D01*
X8223028Y-15152676D01*
X8203981Y-15152676D01*
X8184933Y-15143152D01*
X8175409Y-15133628D01*
X8165886Y-15114581D01*
X8156362Y-15076486D01*
X8156362Y-15028867D01*
X8165886Y-14990771D01*
X8175409Y-14971724D01*
X8184933Y-14962200D01*
X8203981Y-14952676D01*
X8356362Y-15152676D02*
X8356362Y-15019343D01*
X8356362Y-15038390D02*
X8365886Y-15028867D01*
X8384933Y-15019343D01*
X8413505Y-15019343D01*
X8432552Y-15028867D01*
X8442076Y-15047914D01*
X8442076Y-15152676D01*
X8442076Y-15047914D02*
X8451600Y-15028867D01*
X8470648Y-15019343D01*
X8499219Y-15019343D01*
X8518267Y-15028867D01*
X8527790Y-15047914D01*
X8527790Y-15152676D01*
X8623029Y-15152676D02*
X8623029Y-15019343D01*
X8623029Y-15038390D02*
X8632552Y-15028867D01*
X8651600Y-15019343D01*
X8680171Y-15019343D01*
X8699219Y-15028867D01*
X8708743Y-15047914D01*
X8708743Y-15152676D01*
X8708743Y-15047914D02*
X8718267Y-15028867D01*
X8737314Y-15019343D01*
X8765886Y-15019343D01*
X8784933Y-15028867D01*
X8794457Y-15047914D01*
X8794457Y-15152676D01*
X9184933Y-14943152D02*
X9013505Y-15200295D01*
X9442076Y-14952676D02*
X9461124Y-14952676D01*
X9480171Y-14962200D01*
X9489695Y-14971724D01*
X9499219Y-14990771D01*
X9508743Y-15028867D01*
X9508743Y-15076486D01*
X9499219Y-15114581D01*
X9489695Y-15133628D01*
X9480171Y-15143152D01*
X9461124Y-15152676D01*
X9442076Y-15152676D01*
X9423029Y-15143152D01*
X9413505Y-15133628D01*
X9403981Y-15114581D01*
X9394457Y-15076486D01*
X9394457Y-15028867D01*
X9403981Y-14990771D01*
X9413505Y-14971724D01*
X9423029Y-14962200D01*
X9442076Y-14952676D01*
X9594457Y-15133628D02*
X9603981Y-15143152D01*
X9594457Y-15152676D01*
X9584933Y-15143152D01*
X9594457Y-15133628D01*
X9594457Y-15152676D01*
X9727790Y-14952676D02*
X9746838Y-14952676D01*
X9765886Y-14962200D01*
X9775410Y-14971724D01*
X9784933Y-14990771D01*
X9794457Y-15028867D01*
X9794457Y-15076486D01*
X9784933Y-15114581D01*
X9775410Y-15133628D01*
X9765886Y-15143152D01*
X9746838Y-15152676D01*
X9727790Y-15152676D01*
X9708743Y-15143152D01*
X9699219Y-15133628D01*
X9689695Y-15114581D01*
X9680171Y-15076486D01*
X9680171Y-15028867D01*
X9689695Y-14990771D01*
X9699219Y-14971724D01*
X9708743Y-14962200D01*
X9727790Y-14952676D01*
X9965886Y-15019343D02*
X9965886Y-15152676D01*
X9918267Y-14943152D02*
X9870648Y-15086009D01*
X9994457Y-15086009D01*
X10051600Y-14952676D02*
X10184933Y-14952676D01*
X10099219Y-15152676D01*
X10251600Y-14971724D02*
X10261124Y-14962200D01*
X10280171Y-14952676D01*
X10327790Y-14952676D01*
X10346838Y-14962200D01*
X10356362Y-14971724D01*
X10365886Y-14990771D01*
X10365886Y-15009819D01*
X10356362Y-15038390D01*
X10242076Y-15152676D01*
X10365886Y-15152676D01*
X10442076Y-14952676D02*
X10442076Y-14990771D01*
X10518267Y-14952676D02*
X10518267Y-14990771D01*
X10813505Y-15228867D02*
X10803981Y-15219343D01*
X10784933Y-15190771D01*
X10775410Y-15171724D01*
X10765886Y-15143152D01*
X10756362Y-15095533D01*
X10756362Y-15057438D01*
X10765886Y-15009819D01*
X10775410Y-14981248D01*
X10784933Y-14962200D01*
X10803981Y-14933628D01*
X10813505Y-14924105D01*
X10975410Y-14952676D02*
X10937314Y-14952676D01*
X10918267Y-14962200D01*
X10908743Y-14971724D01*
X10889695Y-15000295D01*
X10880171Y-15038390D01*
X10880171Y-15114581D01*
X10889695Y-15133628D01*
X10899219Y-15143152D01*
X10918267Y-15152676D01*
X10956362Y-15152676D01*
X10975410Y-15143152D01*
X10984933Y-15133628D01*
X10994457Y-15114581D01*
X10994457Y-15066962D01*
X10984933Y-15047914D01*
X10975410Y-15038390D01*
X10956362Y-15028867D01*
X10918267Y-15028867D01*
X10899219Y-15038390D01*
X10889695Y-15047914D01*
X10880171Y-15066962D01*
X11232552Y-15152676D02*
X11232552Y-14952676D01*
X11318267Y-15152676D02*
X11318267Y-15047914D01*
X11308743Y-15028867D01*
X11289695Y-15019343D01*
X11261124Y-15019343D01*
X11242076Y-15028867D01*
X11232552Y-15038390D01*
X11442076Y-15152676D02*
X11423028Y-15143152D01*
X11413505Y-15133628D01*
X11403981Y-15114581D01*
X11403981Y-15057438D01*
X11413505Y-15038390D01*
X11423028Y-15028867D01*
X11442076Y-15019343D01*
X11470648Y-15019343D01*
X11489695Y-15028867D01*
X11499219Y-15038390D01*
X11508743Y-15057438D01*
X11508743Y-15114581D01*
X11499219Y-15133628D01*
X11489695Y-15143152D01*
X11470648Y-15152676D01*
X11442076Y-15152676D01*
X11623028Y-15152676D02*
X11603981Y-15143152D01*
X11594457Y-15124105D01*
X11594457Y-14952676D01*
X11775409Y-15143152D02*
X11756362Y-15152676D01*
X11718267Y-15152676D01*
X11699219Y-15143152D01*
X11689695Y-15124105D01*
X11689695Y-15047914D01*
X11699219Y-15028867D01*
X11718267Y-15019343D01*
X11756362Y-15019343D01*
X11775409Y-15028867D01*
X11784933Y-15047914D01*
X11784933Y-15066962D01*
X11689695Y-15086009D01*
X11861124Y-15143152D02*
X11880171Y-15152676D01*
X11918267Y-15152676D01*
X11937314Y-15143152D01*
X11946838Y-15124105D01*
X11946838Y-15114581D01*
X11937314Y-15095533D01*
X11918267Y-15086009D01*
X11889695Y-15086009D01*
X11870648Y-15076486D01*
X11861124Y-15057438D01*
X11861124Y-15047914D01*
X11870648Y-15028867D01*
X11889695Y-15019343D01*
X11918267Y-15019343D01*
X11937314Y-15028867D01*
X12013505Y-15228867D02*
X12023028Y-15219343D01*
X12042076Y-15190771D01*
X12051600Y-15171724D01*
X12061124Y-15143152D01*
X12070648Y-15095533D01*
X12070648Y-15057438D01*
X12061124Y-15009819D01*
X12051600Y-14981248D01*
X12042076Y-14962200D01*
X12023028Y-14933628D01*
X12013505Y-14924105D01*
X7041600Y-15226200D02*
X7241600Y-15426200D01*
X7241600Y-15226200D02*
X7041600Y-15426200D01*
X7141600Y-15226200D02*
X7141600Y-15426200D01*
X7041600Y-15326200D02*
X7241600Y-15326200D01*
X7584933Y-15283343D02*
X7584933Y-15416676D01*
X7537314Y-15207152D02*
X7489695Y-15350009D01*
X7613505Y-15350009D01*
X7689695Y-15397628D02*
X7699219Y-15407152D01*
X7689695Y-15416676D01*
X7680171Y-15407152D01*
X7689695Y-15397628D01*
X7689695Y-15416676D01*
X7880171Y-15216676D02*
X7784933Y-15216676D01*
X7775409Y-15311914D01*
X7784933Y-15302390D01*
X7803981Y-15292867D01*
X7851600Y-15292867D01*
X7870648Y-15302390D01*
X7880171Y-15311914D01*
X7889695Y-15330962D01*
X7889695Y-15378581D01*
X7880171Y-15397628D01*
X7870648Y-15407152D01*
X7851600Y-15416676D01*
X7803981Y-15416676D01*
X7784933Y-15407152D01*
X7775409Y-15397628D01*
X8013505Y-15216676D02*
X8032552Y-15216676D01*
X8051600Y-15226200D01*
X8061124Y-15235724D01*
X8070648Y-15254771D01*
X8080171Y-15292867D01*
X8080171Y-15340486D01*
X8070648Y-15378581D01*
X8061124Y-15397628D01*
X8051600Y-15407152D01*
X8032552Y-15416676D01*
X8013505Y-15416676D01*
X7994457Y-15407152D01*
X7984933Y-15397628D01*
X7975409Y-15378581D01*
X7965886Y-15340486D01*
X7965886Y-15292867D01*
X7975409Y-15254771D01*
X7984933Y-15235724D01*
X7994457Y-15226200D01*
X8013505Y-15216676D01*
X8203981Y-15216676D02*
X8223028Y-15216676D01*
X8242076Y-15226200D01*
X8251600Y-15235724D01*
X8261124Y-15254771D01*
X8270648Y-15292867D01*
X8270648Y-15340486D01*
X8261124Y-15378581D01*
X8251600Y-15397628D01*
X8242076Y-15407152D01*
X8223028Y-15416676D01*
X8203981Y-15416676D01*
X8184933Y-15407152D01*
X8175409Y-15397628D01*
X8165886Y-15378581D01*
X8156362Y-15340486D01*
X8156362Y-15292867D01*
X8165886Y-15254771D01*
X8175409Y-15235724D01*
X8184933Y-15226200D01*
X8203981Y-15216676D01*
X8356362Y-15416676D02*
X8356362Y-15283343D01*
X8356362Y-15302390D02*
X8365886Y-15292867D01*
X8384933Y-15283343D01*
X8413505Y-15283343D01*
X8432552Y-15292867D01*
X8442076Y-15311914D01*
X8442076Y-15416676D01*
X8442076Y-15311914D02*
X8451600Y-15292867D01*
X8470648Y-15283343D01*
X8499219Y-15283343D01*
X8518267Y-15292867D01*
X8527790Y-15311914D01*
X8527790Y-15416676D01*
X8623029Y-15416676D02*
X8623029Y-15283343D01*
X8623029Y-15302390D02*
X8632552Y-15292867D01*
X8651600Y-15283343D01*
X8680171Y-15283343D01*
X8699219Y-15292867D01*
X8708743Y-15311914D01*
X8708743Y-15416676D01*
X8708743Y-15311914D02*
X8718267Y-15292867D01*
X8737314Y-15283343D01*
X8765886Y-15283343D01*
X8784933Y-15292867D01*
X8794457Y-15311914D01*
X8794457Y-15416676D01*
X9184933Y-15207152D02*
X9013505Y-15464295D01*
X9442076Y-15216676D02*
X9461124Y-15216676D01*
X9480171Y-15226200D01*
X9489695Y-15235724D01*
X9499219Y-15254771D01*
X9508743Y-15292867D01*
X9508743Y-15340486D01*
X9499219Y-15378581D01*
X9489695Y-15397628D01*
X9480171Y-15407152D01*
X9461124Y-15416676D01*
X9442076Y-15416676D01*
X9423029Y-15407152D01*
X9413505Y-15397628D01*
X9403981Y-15378581D01*
X9394457Y-15340486D01*
X9394457Y-15292867D01*
X9403981Y-15254771D01*
X9413505Y-15235724D01*
X9423029Y-15226200D01*
X9442076Y-15216676D01*
X9594457Y-15397628D02*
X9603981Y-15407152D01*
X9594457Y-15416676D01*
X9584933Y-15407152D01*
X9594457Y-15397628D01*
X9594457Y-15416676D01*
X9794457Y-15416676D02*
X9680171Y-15416676D01*
X9737314Y-15416676D02*
X9737314Y-15216676D01*
X9718267Y-15245248D01*
X9699219Y-15264295D01*
X9680171Y-15273819D01*
X9861124Y-15216676D02*
X9994457Y-15216676D01*
X9908743Y-15416676D01*
X10051600Y-15216676D02*
X10184933Y-15216676D01*
X10099219Y-15416676D01*
X10251600Y-15235724D02*
X10261124Y-15226200D01*
X10280171Y-15216676D01*
X10327790Y-15216676D01*
X10346838Y-15226200D01*
X10356362Y-15235724D01*
X10365886Y-15254771D01*
X10365886Y-15273819D01*
X10356362Y-15302390D01*
X10242076Y-15416676D01*
X10365886Y-15416676D01*
X10442076Y-15216676D02*
X10442076Y-15254771D01*
X10518267Y-15216676D02*
X10518267Y-15254771D01*
X10813505Y-15492867D02*
X10803981Y-15483343D01*
X10784933Y-15454771D01*
X10775410Y-15435724D01*
X10765886Y-15407152D01*
X10756362Y-15359533D01*
X10756362Y-15321438D01*
X10765886Y-15273819D01*
X10775410Y-15245248D01*
X10784933Y-15226200D01*
X10803981Y-15197628D01*
X10813505Y-15188105D01*
X10880171Y-15235724D02*
X10889695Y-15226200D01*
X10908743Y-15216676D01*
X10956362Y-15216676D01*
X10975410Y-15226200D01*
X10984933Y-15235724D01*
X10994457Y-15254771D01*
X10994457Y-15273819D01*
X10984933Y-15302390D01*
X10870648Y-15416676D01*
X10994457Y-15416676D01*
X11232552Y-15416676D02*
X11232552Y-15216676D01*
X11318267Y-15416676D02*
X11318267Y-15311914D01*
X11308743Y-15292867D01*
X11289695Y-15283343D01*
X11261124Y-15283343D01*
X11242076Y-15292867D01*
X11232552Y-15302390D01*
X11442076Y-15416676D02*
X11423028Y-15407152D01*
X11413505Y-15397628D01*
X11403981Y-15378581D01*
X11403981Y-15321438D01*
X11413505Y-15302390D01*
X11423028Y-15292867D01*
X11442076Y-15283343D01*
X11470648Y-15283343D01*
X11489695Y-15292867D01*
X11499219Y-15302390D01*
X11508743Y-15321438D01*
X11508743Y-15378581D01*
X11499219Y-15397628D01*
X11489695Y-15407152D01*
X11470648Y-15416676D01*
X11442076Y-15416676D01*
X11623028Y-15416676D02*
X11603981Y-15407152D01*
X11594457Y-15388105D01*
X11594457Y-15216676D01*
X11775409Y-15407152D02*
X11756362Y-15416676D01*
X11718267Y-15416676D01*
X11699219Y-15407152D01*
X11689695Y-15388105D01*
X11689695Y-15311914D01*
X11699219Y-15292867D01*
X11718267Y-15283343D01*
X11756362Y-15283343D01*
X11775409Y-15292867D01*
X11784933Y-15311914D01*
X11784933Y-15330962D01*
X11689695Y-15350009D01*
X11861124Y-15407152D02*
X11880171Y-15416676D01*
X11918267Y-15416676D01*
X11937314Y-15407152D01*
X11946838Y-15388105D01*
X11946838Y-15378581D01*
X11937314Y-15359533D01*
X11918267Y-15350009D01*
X11889695Y-15350009D01*
X11870648Y-15340486D01*
X11861124Y-15321438D01*
X11861124Y-15311914D01*
X11870648Y-15292867D01*
X11889695Y-15283343D01*
X11918267Y-15283343D01*
X11937314Y-15292867D01*
X12013505Y-15492867D02*
X12023028Y-15483343D01*
X12042076Y-15454771D01*
X12051600Y-15435724D01*
X12061124Y-15407152D01*
X12070648Y-15359533D01*
X12070648Y-15321438D01*
X12061124Y-15273819D01*
X12051600Y-15245248D01*
X12042076Y-15226200D01*
X12023028Y-15197628D01*
X12013505Y-15188105D01*
M02*
