M48
; DRILL file {KiCad 6.0.11+dfsg-1} date Thu 20 Mar 2025 11:06:58 AM EDT
; FORMAT={-:-/ absolute / metric / decimal}
; #@! TF.CreationDate,2025-03-20T11:06:58-04:00
; #@! TF.GenerationSoftware,Kicad,Pcbnew,6.0.11+dfsg-1
; #@! TF.FileFunction,Plated,1,4,PTH
FMAT,2
METRIC
; #@! TA.AperFunction,Plated,PTH,ViaDrill
T1C0.300
; #@! TA.AperFunction,Plated,PTH,ViaDrill
T2C0.400
; #@! TA.AperFunction,Plated,PTH,ComponentDrill
T3C0.500
; #@! TA.AperFunction,Plated,PTH,ComponentDrill
T4C0.700
; #@! TA.AperFunction,Plated,PTH,ComponentDrill
T5C1.000
; #@! TA.AperFunction,Plated,PTH,ComponentDrill
T6C1.200
; #@! TA.AperFunction,Plated,PTH,ComponentDrill
T7C4.500
%
G90
G05
T1
X81.05Y-77.938
X81.05Y-78.7
X81.05Y-79.462
X81.812Y-77.938
X81.812Y-78.7
X81.812Y-79.462
X82.042Y-90.424
X82.042Y-91.186
X82.066Y-81.24
X82.066Y-82.002
X82.066Y-86.574
X82.066Y-87.336
X82.066Y-88.098
X82.066Y-88.86
X82.066Y-89.622
X82.574Y-77.938
X82.574Y-78.7
X82.574Y-79.462
X82.804Y-90.424
X82.804Y-91.186
X82.828Y-81.24
X82.828Y-82.002
X82.828Y-86.574
X82.828Y-87.336
X82.828Y-88.098
X82.828Y-88.86
X82.828Y-89.622
X83.336Y-77.938
X83.336Y-78.7
X83.336Y-79.462
X83.566Y-90.424
X83.566Y-91.186
X83.59Y-81.24
X83.59Y-82.002
X83.59Y-86.574
X83.59Y-87.336
X83.59Y-88.098
X83.59Y-88.86
X83.59Y-89.622
X84.098Y-77.938
X84.098Y-78.7
X84.098Y-79.462
X84.328Y-90.424
X84.328Y-91.186
X84.352Y-81.24
X84.352Y-82.002
X84.352Y-86.574
X84.352Y-87.336
X84.352Y-88.098
X84.352Y-88.86
X84.352Y-89.622
X84.86Y-77.938
X84.86Y-78.7
X84.86Y-79.462
X85.09Y-90.424
X85.09Y-91.186
X85.114Y-81.24
X85.114Y-82.002
X85.114Y-86.574
X85.114Y-87.336
X85.114Y-88.098
X85.114Y-88.86
X85.114Y-89.622
X85.622Y-77.938
X85.622Y-78.7
X85.622Y-79.462
X85.852Y-90.424
X85.852Y-91.186
X85.876Y-81.24
X85.876Y-82.002
X85.876Y-86.574
X85.876Y-87.336
X85.876Y-88.098
X85.876Y-88.86
X85.876Y-89.622
X86.384Y-77.938
X86.384Y-78.7
X86.384Y-79.462
X86.614Y-90.424
X86.614Y-91.186
X86.638Y-81.24
X86.638Y-82.002
X86.638Y-86.574
X86.638Y-87.336
X86.638Y-88.098
X86.638Y-88.86
X86.638Y-89.622
X87.376Y-90.424
X87.376Y-91.186
X87.4Y-81.24
X87.4Y-82.002
X87.4Y-86.574
X87.4Y-87.336
X87.4Y-88.098
X87.4Y-88.86
X87.4Y-89.622
X88.138Y-90.424
X88.138Y-91.186
X88.162Y-77.43
X88.162Y-78.192
X88.162Y-78.954
X88.162Y-79.716
X88.162Y-80.478
X88.162Y-81.24
X88.162Y-82.002
X88.162Y-86.574
X88.162Y-87.336
X88.162Y-88.098
X88.162Y-88.86
X88.162Y-89.622
X88.9Y-90.424
X88.9Y-91.186
X88.924Y-77.43
X88.924Y-78.192
X88.924Y-78.954
X88.924Y-79.716
X88.924Y-80.478
X88.924Y-81.24
X88.924Y-82.002
X88.924Y-86.574
X88.924Y-87.336
X88.924Y-88.098
X88.924Y-88.86
X88.924Y-89.622
X96.012Y-124.714
X96.393Y-97.409
X96.393Y-98.679
X96.52Y-112.776
X97.536Y-103.378
X97.536Y-105.41
X97.536Y-107.442
X98.806Y-118.618
X99.354Y-108.672
X100.426Y-96.934
X100.608Y-92.67
X102.196Y-110.808
X102.616Y-73.152
X102.616Y-116.332
X102.87Y-120.396
X104.013Y-115.189
X104.035Y-116.437
X105.093Y-66.469
X105.918Y-102.553
X107.421Y-119.822
X107.442Y-112.522
X107.95Y-114.808
X108.077Y-107.569
X108.204Y-119.38
X108.966Y-96.264
X108.966Y-111.76
X108.976Y-97.272
X109.474Y-107.95
X109.982Y-103.378
X109.982Y-105.509
X110.236Y-107.442
X111.252Y-103.253
X111.76Y-116.586
X112.117Y-112.406
X112.268Y-111.252
X113.184Y-111.935
X113.284Y-98.806
X113.856Y-112.607
X114.3Y-105.41
X114.87Y-108.966
X114.87Y-109.982
X114.87Y-110.998
X114.87Y-112.014
X115.316Y-105.41
X115.454Y-113.922
X115.57Y-113.03
X116.423Y-112.746
X116.586Y-125.73
X116.84Y-72.898
X117.156Y-112.224
X117.275Y-81.273
X117.348Y-86.476
X117.348Y-87.376
X117.348Y-119.888
X117.85Y-71.811
X118.172Y-81.34
X119.888Y-74.676
X119.888Y-81.534
X120.142Y-105.41
X120.608Y-91.656
X120.65Y-99.097
X121.158Y-105.664
X121.158Y-117.094
X121.92Y-110.236
X121.974Y-112.976
X122.174Y-107.442
X122.174Y-116.84
X122.428Y-102.362
X122.712Y-103.215
X122.864Y-110.281
X123.444Y-98.044
X123.444Y-112.522
X123.952Y-120.904
X124.46Y-95.25
X125.476Y-113.03
X125.476Y-114.554
X125.984Y-113.792
X126.492Y-98.298
X126.492Y-113.03
X126.492Y-114.554
X127.0Y-113.792
X127.508Y-113.03
X127.508Y-114.554
X128.016Y-104.902
X128.016Y-113.792
X128.524Y-113.03
X128.524Y-114.554
X128.778Y-102.362
X128.778Y-116.332
X128.778Y-117.348
X128.778Y-118.364
X128.778Y-119.38
X128.778Y-120.396
X128.778Y-121.412
X128.778Y-122.428
X129.032Y-113.792
X129.244Y-99.61
X129.54Y-113.03
X129.54Y-114.554
X129.794Y-116.332
X129.794Y-117.348
X129.794Y-118.364
X129.794Y-119.38
X129.794Y-120.396
X129.794Y-121.412
X130.048Y-113.792
X130.375Y-98.479
X130.556Y-113.03
X130.556Y-114.554
X130.81Y-116.332
X130.81Y-117.348
X130.81Y-118.364
X130.81Y-119.38
X130.81Y-120.396
X131.318Y-93.98
X131.826Y-116.332
X131.826Y-117.348
X131.826Y-118.364
X131.826Y-119.38
X132.842Y-116.332
X132.842Y-117.348
X132.842Y-118.364
X133.35Y-102.108
X133.858Y-116.332
X133.858Y-117.348
X134.874Y-116.332
X137.922Y-109.728
X138.938Y-100.33
X138.938Y-101.092
X138.938Y-101.854
X138.938Y-102.616
X138.938Y-103.378
X138.938Y-104.14
X138.938Y-104.902
X139.7Y-107.162
T2
X111.72Y-73.309
X114.696Y-73.62
X123.698Y-91.694
X123.698Y-94.488
T3
X102.394Y-70.064
X103.394Y-70.064
X104.394Y-104.394
X104.394Y-105.664
X104.394Y-106.934
X104.394Y-108.204
X104.672Y-100.036
X105.942Y-100.036
X107.212Y-100.038
X108.482Y-100.036
X109.752Y-100.036
X111.022Y-100.036
X117.134Y-100.036
X117.134Y-102.068
X117.134Y-104.1
X135.406Y-101.814
T4
X85.876Y-116.978
X85.876Y-118.578
X87.626Y-116.178
X87.626Y-117.778
X87.626Y-119.378
T5
X91.44Y-104.648
X91.44Y-107.188
X91.44Y-109.728
X91.44Y-112.268
X91.44Y-114.808
X92.971Y-120.122
X92.971Y-122.622
X100.1Y-123.698
X100.1Y-126.198
X102.64Y-75.144
X102.64Y-82.764
X102.894Y-67.524
T6
X79.136Y-107.148
X79.468Y-84.288
X84.136Y-107.148
X84.468Y-84.288
X86.052Y-95.718
X91.052Y-95.718
T7
X133.12Y-79.462
X133.12Y-86.662
T4
X86.101Y-114.128G85X87.401Y-114.128
G05
X86.101Y-121.428G85X87.401Y-121.428
G05
T0
M30
