G04 #@! TF.GenerationSoftware,KiCad,Pcbnew,6.0.11+dfsg-1*
G04 #@! TF.CreationDate,2025-03-20T11:06:45-04:00*
G04 #@! TF.ProjectId,foc-board,666f632d-626f-4617-9264-2e6b69636164,rev?*
G04 #@! TF.SameCoordinates,Original*
G04 #@! TF.FileFunction,Paste,Top*
G04 #@! TF.FilePolarity,Positive*
%FSLAX46Y46*%
G04 Gerber Fmt 4.6, Leading zero omitted, Abs format (unit mm)*
G04 Created by KiCad (PCBNEW 6.0.11+dfsg-1) date 2025-03-20 11:06:45*
%MOMM*%
%LPD*%
G01*
G04 APERTURE LIST*
G04 Aperture macros list*
%AMRoundRect*
0 Rectangle with rounded corners*
0 $1 Rounding radius*
0 $2 $3 $4 $5 $6 $7 $8 $9 X,Y pos of 4 corners*
0 Add a 4 corners polygon primitive as box body*
4,1,4,$2,$3,$4,$5,$6,$7,$8,$9,$2,$3,0*
0 Add four circle primitives for the rounded corners*
1,1,$1+$1,$2,$3*
1,1,$1+$1,$4,$5*
1,1,$1+$1,$6,$7*
1,1,$1+$1,$8,$9*
0 Add four rect primitives between the rounded corners*
20,1,$1+$1,$2,$3,$4,$5,0*
20,1,$1+$1,$4,$5,$6,$7,0*
20,1,$1+$1,$6,$7,$8,$9,0*
20,1,$1+$1,$8,$9,$2,$3,0*%
G04 Aperture macros list end*
%ADD10RoundRect,0.250000X-0.412500X-0.650000X0.412500X-0.650000X0.412500X0.650000X-0.412500X0.650000X0*%
%ADD11RoundRect,0.250000X0.450000X-0.350000X0.450000X0.350000X-0.450000X0.350000X-0.450000X-0.350000X0*%
%ADD12R,0.650000X1.560000*%
%ADD13RoundRect,0.250000X-0.350000X-0.450000X0.350000X-0.450000X0.350000X0.450000X-0.350000X0.450000X0*%
%ADD14RoundRect,0.250000X-0.337500X-0.475000X0.337500X-0.475000X0.337500X0.475000X-0.337500X0.475000X0*%
%ADD15RoundRect,0.150000X0.150000X-0.512500X0.150000X0.512500X-0.150000X0.512500X-0.150000X-0.512500X0*%
%ADD16RoundRect,0.250000X0.475000X-0.250000X0.475000X0.250000X-0.475000X0.250000X-0.475000X-0.250000X0*%
%ADD17RoundRect,0.250000X-0.475000X0.250000X-0.475000X-0.250000X0.475000X-0.250000X0.475000X0.250000X0*%
%ADD18RoundRect,0.100000X0.637500X0.100000X-0.637500X0.100000X-0.637500X-0.100000X0.637500X-0.100000X0*%
%ADD19RoundRect,0.250000X0.475000X-0.337500X0.475000X0.337500X-0.475000X0.337500X-0.475000X-0.337500X0*%
%ADD20RoundRect,0.075000X0.075000X-0.662500X0.075000X0.662500X-0.075000X0.662500X-0.075000X-0.662500X0*%
%ADD21RoundRect,0.075000X0.662500X-0.075000X0.662500X0.075000X-0.662500X0.075000X-0.662500X-0.075000X0*%
%ADD22RoundRect,0.250000X0.350000X0.450000X-0.350000X0.450000X-0.350000X-0.450000X0.350000X-0.450000X0*%
%ADD23RoundRect,0.250000X0.250000X0.475000X-0.250000X0.475000X-0.250000X-0.475000X0.250000X-0.475000X0*%
%ADD24RoundRect,0.250000X0.450000X-0.262500X0.450000X0.262500X-0.450000X0.262500X-0.450000X-0.262500X0*%
%ADD25RoundRect,0.250000X0.650000X-0.412500X0.650000X0.412500X-0.650000X0.412500X-0.650000X-0.412500X0*%
%ADD26RoundRect,0.250000X0.337500X0.475000X-0.337500X0.475000X-0.337500X-0.475000X0.337500X-0.475000X0*%
%ADD27R,3.050000X2.750000*%
%ADD28R,2.200000X1.200000*%
%ADD29R,5.700000X1.600000*%
%ADD30RoundRect,0.250000X0.412500X0.650000X-0.412500X0.650000X-0.412500X-0.650000X0.412500X-0.650000X0*%
%ADD31RoundRect,0.250000X0.325000X0.450000X-0.325000X0.450000X-0.325000X-0.450000X0.325000X-0.450000X0*%
%ADD32R,1.000000X1.000000*%
%ADD33R,1.200000X0.900000*%
%ADD34RoundRect,0.250000X-0.400000X-0.625000X0.400000X-0.625000X0.400000X0.625000X-0.400000X0.625000X0*%
%ADD35R,4.500000X2.000000*%
%ADD36RoundRect,0.250000X-0.450000X0.262500X-0.450000X-0.262500X0.450000X-0.262500X0.450000X0.262500X0*%
%ADD37RoundRect,0.150000X-0.150000X0.825000X-0.150000X-0.825000X0.150000X-0.825000X0.150000X0.825000X0*%
%ADD38RoundRect,0.150000X-0.825000X-0.150000X0.825000X-0.150000X0.825000X0.150000X-0.825000X0.150000X0*%
%ADD39RoundRect,0.250000X-0.650000X0.412500X-0.650000X-0.412500X0.650000X-0.412500X0.650000X0.412500X0*%
%ADD40RoundRect,0.250000X-0.450000X0.350000X-0.450000X-0.350000X0.450000X-0.350000X0.450000X0.350000X0*%
%ADD41RoundRect,0.250000X-0.475000X0.337500X-0.475000X-0.337500X0.475000X-0.337500X0.475000X0.337500X0*%
G04 APERTURE END LIST*
D10*
X132549500Y-111760000D03*
X135674500Y-111760000D03*
D11*
X116864000Y-91678000D03*
X116864000Y-89678000D03*
D12*
X134710000Y-109340000D03*
X135660000Y-109340000D03*
X136610000Y-109340000D03*
X136610000Y-106640000D03*
X135660000Y-106640000D03*
X134710000Y-106640000D03*
D13*
X124984000Y-116332000D03*
X126984000Y-116332000D03*
D14*
X118112500Y-126452000D03*
X120187500Y-126452000D03*
D15*
X120208000Y-72979500D03*
X121158000Y-72979500D03*
X122108000Y-72979500D03*
X122108000Y-70704500D03*
X120208000Y-70704500D03*
D13*
X98846000Y-77429000D03*
X100846000Y-77429000D03*
D16*
X132612000Y-108620000D03*
X132612000Y-106720000D03*
D17*
X109982000Y-104460000D03*
X109982000Y-106360000D03*
D16*
X122198000Y-108286000D03*
X122198000Y-106386000D03*
D13*
X124984000Y-118618000D03*
X126984000Y-118618000D03*
D15*
X120208000Y-80091500D03*
X121158000Y-80091500D03*
X122108000Y-80091500D03*
X122108000Y-77816500D03*
X120208000Y-77816500D03*
D18*
X110836500Y-96865000D03*
X110836500Y-96215000D03*
X110836500Y-95565000D03*
X110836500Y-94915000D03*
X110836500Y-94265000D03*
X110836500Y-93615000D03*
X110836500Y-92965000D03*
X110836500Y-92315000D03*
X110836500Y-91665000D03*
X110836500Y-91015000D03*
X105111500Y-91015000D03*
X105111500Y-91665000D03*
X105111500Y-92315000D03*
X105111500Y-92965000D03*
X105111500Y-93615000D03*
X105111500Y-94265000D03*
X105111500Y-94915000D03*
X105111500Y-95565000D03*
X105111500Y-96215000D03*
X105111500Y-96865000D03*
D13*
X94528000Y-109434000D03*
X96528000Y-109434000D03*
D19*
X114808000Y-96309000D03*
X114808000Y-94234000D03*
D20*
X112082000Y-115374500D03*
X112582000Y-115374500D03*
X113082000Y-115374500D03*
X113582000Y-115374500D03*
X114082000Y-115374500D03*
X114582000Y-115374500D03*
X115082000Y-115374500D03*
X115582000Y-115374500D03*
X116082000Y-115374500D03*
X116582000Y-115374500D03*
X117082000Y-115374500D03*
X117582000Y-115374500D03*
D21*
X118994500Y-113962000D03*
X118994500Y-113462000D03*
X118994500Y-112962000D03*
X118994500Y-112462000D03*
X118994500Y-111962000D03*
X118994500Y-111462000D03*
X118994500Y-110962000D03*
X118994500Y-110462000D03*
X118994500Y-109962000D03*
X118994500Y-109462000D03*
X118994500Y-108962000D03*
X118994500Y-108462000D03*
D20*
X117582000Y-107049500D03*
X117082000Y-107049500D03*
X116582000Y-107049500D03*
X116082000Y-107049500D03*
X115582000Y-107049500D03*
X115082000Y-107049500D03*
X114582000Y-107049500D03*
X114082000Y-107049500D03*
X113582000Y-107049500D03*
X113082000Y-107049500D03*
X112582000Y-107049500D03*
X112082000Y-107049500D03*
D21*
X110669500Y-108462000D03*
X110669500Y-108962000D03*
X110669500Y-109462000D03*
X110669500Y-109962000D03*
X110669500Y-110462000D03*
X110669500Y-110962000D03*
X110669500Y-111462000D03*
X110669500Y-111962000D03*
X110669500Y-112462000D03*
X110669500Y-112962000D03*
X110669500Y-113462000D03*
X110669500Y-113962000D03*
D22*
X126008000Y-102068000D03*
X124008000Y-102068000D03*
D23*
X96478000Y-111466000D03*
X94578000Y-111466000D03*
D24*
X133882000Y-100440500D03*
X133882000Y-98615500D03*
D22*
X113816000Y-118324000D03*
X111816000Y-118324000D03*
D11*
X99338000Y-99766000D03*
X99338000Y-97766000D03*
D25*
X105180000Y-113282500D03*
X105180000Y-110157500D03*
D26*
X115383000Y-126452000D03*
X113308000Y-126452000D03*
D27*
X94601000Y-68285000D03*
X91251000Y-68285000D03*
X94601000Y-71335000D03*
X91251000Y-71335000D03*
D28*
X99226000Y-72090000D03*
X99226000Y-67530000D03*
D29*
X128040000Y-106830000D03*
X128040000Y-111530000D03*
D11*
X99338000Y-95702000D03*
X99338000Y-93702000D03*
X118872000Y-91678000D03*
X118872000Y-89678000D03*
D22*
X101354000Y-105370000D03*
X99354000Y-105370000D03*
D16*
X138684000Y-108072000D03*
X138684000Y-106172000D03*
D22*
X115062000Y-102108000D03*
X113062000Y-102108000D03*
D13*
X119142000Y-100036000D03*
X121142000Y-100036000D03*
X94528000Y-103338000D03*
X96528000Y-103338000D03*
D30*
X88200500Y-71080000D03*
X85075500Y-71080000D03*
D10*
X132041500Y-114260000D03*
X135166500Y-114260000D03*
D31*
X127009000Y-123190000D03*
X124959000Y-123190000D03*
D22*
X115078000Y-100036000D03*
X113078000Y-100036000D03*
D27*
X94566000Y-78954000D03*
X94566000Y-75904000D03*
X91216000Y-78954000D03*
X91216000Y-75904000D03*
D28*
X99191000Y-79709000D03*
X99191000Y-75149000D03*
D27*
X110391000Y-78955000D03*
X107041000Y-78955000D03*
X110391000Y-75905000D03*
X107041000Y-75905000D03*
D28*
X115016000Y-79710000D03*
X115016000Y-75150000D03*
D10*
X137184000Y-101306000D03*
X140309000Y-101306000D03*
D31*
X127009000Y-120904000D03*
X124959000Y-120904000D03*
D15*
X120208000Y-87711500D03*
X121158000Y-87711500D03*
X122108000Y-87711500D03*
X122108000Y-85436500D03*
X120208000Y-85436500D03*
D16*
X118388000Y-87458000D03*
X118388000Y-85558000D03*
D32*
X131342000Y-100778000D03*
X131342000Y-98278000D03*
D33*
X131342000Y-96098000D03*
X131342000Y-92798000D03*
D34*
X118342000Y-82764000D03*
X121442000Y-82764000D03*
X118342000Y-68286000D03*
X121442000Y-68286000D03*
D17*
X107720000Y-111466000D03*
X107720000Y-113366000D03*
D22*
X126008000Y-100036000D03*
X124008000Y-100036000D03*
D19*
X101624000Y-95739500D03*
X101624000Y-93664500D03*
D16*
X118388000Y-72858000D03*
X118388000Y-70958000D03*
D34*
X118342000Y-75652000D03*
X121442000Y-75652000D03*
D13*
X99354000Y-112014000D03*
X101354000Y-112014000D03*
X119142000Y-104100000D03*
X121142000Y-104100000D03*
X114324000Y-85050000D03*
X116324000Y-85050000D03*
D32*
X124948000Y-91186000D03*
X122448000Y-91186000D03*
D13*
X114324000Y-69810000D03*
X116324000Y-69810000D03*
D35*
X112360000Y-122388000D03*
X120860000Y-122388000D03*
D27*
X106993000Y-68284000D03*
X110343000Y-71334000D03*
X110343000Y-68284000D03*
X106993000Y-71334000D03*
D28*
X114968000Y-72089000D03*
X114968000Y-67529000D03*
D36*
X119912000Y-116546000D03*
X119912000Y-118371000D03*
D19*
X101624000Y-99825000D03*
X101624000Y-97750000D03*
D13*
X114366000Y-77430000D03*
X116366000Y-77430000D03*
D37*
X108839000Y-116397000D03*
X107569000Y-116397000D03*
X106299000Y-116397000D03*
X105029000Y-116397000D03*
X105029000Y-121347000D03*
X106299000Y-121347000D03*
X107569000Y-121347000D03*
X108839000Y-121347000D03*
D13*
X98846000Y-85050000D03*
X100846000Y-85050000D03*
D22*
X126008000Y-104100000D03*
X124008000Y-104100000D03*
X118102000Y-118324000D03*
X116102000Y-118324000D03*
D16*
X102894000Y-119340000D03*
X102894000Y-117440000D03*
X118388000Y-79904000D03*
X118388000Y-78004000D03*
D25*
X107696000Y-106210500D03*
X107696000Y-103085500D03*
D13*
X98576000Y-69810000D03*
X100576000Y-69810000D03*
D38*
X121158000Y-93345000D03*
X121158000Y-94615000D03*
X121158000Y-95885000D03*
X121158000Y-97155000D03*
X126108000Y-97155000D03*
X126108000Y-95885000D03*
X126108000Y-94615000D03*
X126108000Y-93345000D03*
D39*
X128802000Y-98036500D03*
X128802000Y-101161500D03*
D13*
X101640000Y-72096000D03*
X103640000Y-72096000D03*
D32*
X134092000Y-103846000D03*
X131592000Y-103846000D03*
D10*
X137184000Y-104100000D03*
X140309000Y-104100000D03*
D13*
X99354000Y-109728000D03*
X101354000Y-109728000D03*
D19*
X101624000Y-91656000D03*
X101624000Y-89581000D03*
D27*
X110343000Y-86573000D03*
X106993000Y-86573000D03*
X106993000Y-83523000D03*
X110343000Y-83523000D03*
D28*
X114968000Y-87328000D03*
X114968000Y-82768000D03*
D13*
X94528000Y-107402000D03*
X96528000Y-107402000D03*
D40*
X133858000Y-93488000D03*
X133858000Y-95488000D03*
D41*
X128802000Y-93410500D03*
X128802000Y-95485500D03*
D30*
X85914500Y-76160000D03*
X82789500Y-76160000D03*
X85914500Y-73620000D03*
X82789500Y-73620000D03*
D39*
X100330000Y-116586000D03*
X100330000Y-119711000D03*
D13*
X119142000Y-102068000D03*
X121142000Y-102068000D03*
D11*
X114808000Y-91678000D03*
X114808000Y-89678000D03*
D13*
X94528000Y-105370000D03*
X96528000Y-105370000D03*
D22*
X115046000Y-104140000D03*
X113046000Y-104140000D03*
D25*
X122198000Y-118655000D03*
X122198000Y-115530000D03*
D27*
X91251000Y-86575000D03*
X94601000Y-86575000D03*
X91251000Y-83525000D03*
X94601000Y-83525000D03*
D28*
X99226000Y-87330000D03*
X99226000Y-82770000D03*
D25*
X117094000Y-97359000D03*
X117094000Y-94234000D03*
D11*
X99338000Y-91638000D03*
X99338000Y-89638000D03*
D13*
X99354000Y-107402000D03*
X101354000Y-107402000D03*
M02*
