G04 #@! TF.GenerationSoftware,KiCad,Pcbnew,6.0.11+dfsg-1*
G04 #@! TF.CreationDate,2025-03-20T11:06:45-04:00*
G04 #@! TF.ProjectId,foc-board,666f632d-626f-4617-9264-2e6b69636164,rev?*
G04 #@! TF.SameCoordinates,Original*
G04 #@! TF.FileFunction,Soldermask,Top*
G04 #@! TF.FilePolarity,Negative*
%FSLAX46Y46*%
G04 Gerber Fmt 4.6, Leading zero omitted, Abs format (unit mm)*
G04 Created by KiCad (PCBNEW 6.0.11+dfsg-1) date 2025-03-20 11:06:45*
%MOMM*%
%LPD*%
G01*
G04 APERTURE LIST*
G04 Aperture macros list*
%AMRoundRect*
0 Rectangle with rounded corners*
0 $1 Rounding radius*
0 $2 $3 $4 $5 $6 $7 $8 $9 X,Y pos of 4 corners*
0 Add a 4 corners polygon primitive as box body*
4,1,4,$2,$3,$4,$5,$6,$7,$8,$9,$2,$3,0*
0 Add four circle primitives for the rounded corners*
1,1,$1+$1,$2,$3*
1,1,$1+$1,$4,$5*
1,1,$1+$1,$6,$7*
1,1,$1+$1,$8,$9*
0 Add four rect primitives between the rounded corners*
20,1,$1+$1,$2,$3,$4,$5,0*
20,1,$1+$1,$4,$5,$6,$7,0*
20,1,$1+$1,$6,$7,$8,$9,0*
20,1,$1+$1,$8,$9,$2,$3,0*%
G04 Aperture macros list end*
%ADD10RoundRect,0.350000X-0.412500X-0.650000X0.412500X-0.650000X0.412500X0.650000X-0.412500X0.650000X0*%
%ADD11RoundRect,0.100000X-0.850000X-0.850000X0.850000X-0.850000X0.850000X0.850000X-0.850000X0.850000X0*%
%ADD12RoundRect,0.350000X0.450000X-0.350000X0.450000X0.350000X-0.450000X0.350000X-0.450000X-0.350000X0*%
%ADD13RoundRect,0.100000X0.325000X-0.780000X0.325000X0.780000X-0.325000X0.780000X-0.325000X-0.780000X0*%
%ADD14RoundRect,0.350000X-0.350000X-0.450000X0.350000X-0.450000X0.350000X0.450000X-0.350000X0.450000X0*%
%ADD15RoundRect,0.350000X-0.337500X-0.475000X0.337500X-0.475000X0.337500X0.475000X-0.337500X0.475000X0*%
%ADD16C,3.400000*%
%ADD17RoundRect,0.250000X0.150000X-0.512500X0.150000X0.512500X-0.150000X0.512500X-0.150000X-0.512500X0*%
%ADD18RoundRect,0.350000X0.475000X-0.250000X0.475000X0.250000X-0.475000X0.250000X-0.475000X-0.250000X0*%
%ADD19RoundRect,0.350000X-0.475000X0.250000X-0.475000X-0.250000X0.475000X-0.250000X0.475000X0.250000X0*%
%ADD20RoundRect,0.100000X1.200000X1.200000X-1.200000X1.200000X-1.200000X-1.200000X1.200000X-1.200000X0*%
%ADD21C,2.600000*%
%ADD22RoundRect,0.100000X0.425000X-0.425000X0.425000X0.425000X-0.425000X0.425000X-0.425000X-0.425000X0*%
%ADD23O,1.050000X1.050000*%
%ADD24RoundRect,0.100000X-0.425000X-0.425000X0.425000X-0.425000X0.425000X0.425000X-0.425000X0.425000X0*%
%ADD25RoundRect,0.200000X0.637500X0.100000X-0.637500X0.100000X-0.637500X-0.100000X0.637500X-0.100000X0*%
%ADD26RoundRect,0.350000X0.475000X-0.337500X0.475000X0.337500X-0.475000X0.337500X-0.475000X-0.337500X0*%
%ADD27RoundRect,0.175000X0.075000X-0.662500X0.075000X0.662500X-0.075000X0.662500X-0.075000X-0.662500X0*%
%ADD28RoundRect,0.175000X0.662500X-0.075000X0.662500X0.075000X-0.662500X0.075000X-0.662500X-0.075000X0*%
%ADD29RoundRect,0.350000X0.350000X0.450000X-0.350000X0.450000X-0.350000X-0.450000X0.350000X-0.450000X0*%
%ADD30RoundRect,0.350000X0.250000X0.475000X-0.250000X0.475000X-0.250000X-0.475000X0.250000X-0.475000X0*%
%ADD31RoundRect,0.350000X0.450000X-0.262500X0.450000X0.262500X-0.450000X0.262500X-0.450000X-0.262500X0*%
%ADD32RoundRect,0.350000X0.650000X-0.412500X0.650000X0.412500X-0.650000X0.412500X-0.650000X-0.412500X0*%
%ADD33RoundRect,0.350000X0.337500X0.475000X-0.337500X0.475000X-0.337500X-0.475000X0.337500X-0.475000X0*%
%ADD34RoundRect,0.100000X1.100000X0.600000X-1.100000X0.600000X-1.100000X-0.600000X1.100000X-0.600000X0*%
%ADD35RoundRect,0.100000X3.200000X2.900000X-3.200000X2.900000X-3.200000X-2.900000X3.200000X-2.900000X0*%
%ADD36RoundRect,0.100000X-2.850000X0.800000X-2.850000X-0.800000X2.850000X-0.800000X2.850000X0.800000X0*%
%ADD37RoundRect,0.350000X0.412500X0.650000X-0.412500X0.650000X-0.412500X-0.650000X0.412500X-0.650000X0*%
%ADD38RoundRect,0.350000X0.325000X0.450000X-0.325000X0.450000X-0.325000X-0.450000X0.325000X-0.450000X0*%
%ADD39RoundRect,0.100000X0.500000X-0.500000X0.500000X0.500000X-0.500000X0.500000X-0.500000X-0.500000X0*%
%ADD40RoundRect,0.100000X0.600000X-0.450000X0.600000X0.450000X-0.600000X0.450000X-0.600000X-0.450000X0*%
%ADD41RoundRect,0.350000X0.750000X-0.600000X0.750000X0.600000X-0.750000X0.600000X-0.750000X-0.600000X0*%
%ADD42O,2.200000X1.900000*%
%ADD43RoundRect,0.350000X-0.400000X-0.625000X0.400000X-0.625000X0.400000X0.625000X-0.400000X0.625000X0*%
%ADD44RoundRect,0.100000X0.500000X0.500000X-0.500000X0.500000X-0.500000X-0.500000X0.500000X-0.500000X0*%
%ADD45RoundRect,0.100000X-2.250000X-1.000000X2.250000X-1.000000X2.250000X1.000000X-2.250000X1.000000X0*%
%ADD46RoundRect,0.350000X-0.450000X0.262500X-0.450000X-0.262500X0.450000X-0.262500X0.450000X0.262500X0*%
%ADD47RoundRect,0.250000X-0.150000X0.825000X-0.150000X-0.825000X0.150000X-0.825000X0.150000X0.825000X0*%
%ADD48RoundRect,0.100000X-0.500000X-0.750000X0.500000X-0.750000X0.500000X0.750000X-0.500000X0.750000X0*%
%ADD49RoundRect,0.100000X0.550000X-0.550000X0.550000X0.550000X-0.550000X0.550000X-0.550000X-0.550000X0*%
%ADD50C,1.300000*%
%ADD51O,2.600000X1.300000*%
%ADD52RoundRect,0.250000X-0.825000X-0.150000X0.825000X-0.150000X0.825000X0.150000X-0.825000X0.150000X0*%
%ADD53RoundRect,1.600000X-1.500000X1.500000X-1.500000X-1.500000X1.500000X-1.500000X1.500000X1.500000X0*%
%ADD54C,6.200000*%
%ADD55RoundRect,0.350000X-0.650000X0.412500X-0.650000X-0.412500X0.650000X-0.412500X0.650000X0.412500X0*%
%ADD56RoundRect,0.100000X0.850000X0.850000X-0.850000X0.850000X-0.850000X-0.850000X0.850000X-0.850000X0*%
%ADD57O,1.900000X1.900000*%
%ADD58RoundRect,0.350000X-0.450000X0.350000X-0.450000X-0.350000X0.450000X-0.350000X0.450000X0.350000X0*%
%ADD59RoundRect,0.350000X-0.475000X0.337500X-0.475000X-0.337500X0.475000X-0.337500X0.475000X0.337500X0*%
G04 APERTURE END LIST*
D10*
X132549500Y-111760000D03*
X135674500Y-111760000D03*
D11*
X102640000Y-82764000D03*
D12*
X116864000Y-91678000D03*
X116864000Y-89678000D03*
D13*
X134710000Y-109340000D03*
X135660000Y-109340000D03*
X136610000Y-109340000D03*
X136610000Y-106640000D03*
X135660000Y-106640000D03*
X134710000Y-106640000D03*
D14*
X124984000Y-116332000D03*
X126984000Y-116332000D03*
D15*
X118112500Y-126452000D03*
X120187500Y-126452000D03*
D16*
X138962000Y-95972000D03*
D17*
X120208000Y-72979500D03*
X121158000Y-72979500D03*
X122108000Y-72979500D03*
X122108000Y-70704500D03*
X120208000Y-70704500D03*
D14*
X98846000Y-77429000D03*
X100846000Y-77429000D03*
D18*
X132612000Y-108620000D03*
X132612000Y-106720000D03*
D19*
X109982000Y-104460000D03*
X109982000Y-106360000D03*
D18*
X122198000Y-108286000D03*
X122198000Y-106386000D03*
D14*
X124984000Y-118618000D03*
X126984000Y-118618000D03*
D20*
X84135959Y-107148000D03*
D21*
X79135959Y-107148000D03*
D17*
X120208000Y-80091500D03*
X121158000Y-80091500D03*
X122108000Y-80091500D03*
X122108000Y-77816500D03*
X120208000Y-77816500D03*
D22*
X102394000Y-70064000D03*
D23*
X103394000Y-70064000D03*
D24*
X109752000Y-100036000D03*
D25*
X110836500Y-96865000D03*
X110836500Y-96215000D03*
X110836500Y-95565000D03*
X110836500Y-94915000D03*
X110836500Y-94265000D03*
X110836500Y-93615000D03*
X110836500Y-92965000D03*
X110836500Y-92315000D03*
X110836500Y-91665000D03*
X110836500Y-91015000D03*
X105111500Y-91015000D03*
X105111500Y-91665000D03*
X105111500Y-92315000D03*
X105111500Y-92965000D03*
X105111500Y-93615000D03*
X105111500Y-94265000D03*
X105111500Y-94915000D03*
X105111500Y-95565000D03*
X105111500Y-96215000D03*
X105111500Y-96865000D03*
D20*
X84467918Y-84288000D03*
D21*
X79467918Y-84288000D03*
D14*
X94528000Y-109434000D03*
X96528000Y-109434000D03*
D26*
X114808000Y-96309000D03*
X114808000Y-94234000D03*
D24*
X105942000Y-100036000D03*
D27*
X112082000Y-115374500D03*
X112582000Y-115374500D03*
X113082000Y-115374500D03*
X113582000Y-115374500D03*
X114082000Y-115374500D03*
X114582000Y-115374500D03*
X115082000Y-115374500D03*
X115582000Y-115374500D03*
X116082000Y-115374500D03*
X116582000Y-115374500D03*
X117082000Y-115374500D03*
X117582000Y-115374500D03*
D28*
X118994500Y-113962000D03*
X118994500Y-113462000D03*
X118994500Y-112962000D03*
X118994500Y-112462000D03*
X118994500Y-111962000D03*
X118994500Y-111462000D03*
X118994500Y-110962000D03*
X118994500Y-110462000D03*
X118994500Y-109962000D03*
X118994500Y-109462000D03*
X118994500Y-108962000D03*
X118994500Y-108462000D03*
D27*
X117582000Y-107049500D03*
X117082000Y-107049500D03*
X116582000Y-107049500D03*
X116082000Y-107049500D03*
X115582000Y-107049500D03*
X115082000Y-107049500D03*
X114582000Y-107049500D03*
X114082000Y-107049500D03*
X113582000Y-107049500D03*
X113082000Y-107049500D03*
X112582000Y-107049500D03*
X112082000Y-107049500D03*
D28*
X110669500Y-108462000D03*
X110669500Y-108962000D03*
X110669500Y-109462000D03*
X110669500Y-109962000D03*
X110669500Y-110462000D03*
X110669500Y-110962000D03*
X110669500Y-111462000D03*
X110669500Y-111962000D03*
X110669500Y-112462000D03*
X110669500Y-112962000D03*
X110669500Y-113462000D03*
X110669500Y-113962000D03*
D29*
X126008000Y-102068000D03*
X124008000Y-102068000D03*
D30*
X96478000Y-111466000D03*
X94578000Y-111466000D03*
D31*
X133882000Y-100440500D03*
X133882000Y-98615500D03*
D29*
X113816000Y-118324000D03*
X111816000Y-118324000D03*
D12*
X99338000Y-99766000D03*
X99338000Y-97766000D03*
D32*
X105180000Y-113282500D03*
X105180000Y-110157500D03*
D33*
X115383000Y-126452000D03*
X113308000Y-126452000D03*
D34*
X99226000Y-72090000D03*
D35*
X92926000Y-69810000D03*
D34*
X99226000Y-67530000D03*
D36*
X128040000Y-106830000D03*
X128040000Y-111530000D03*
D12*
X99338000Y-95702000D03*
X99338000Y-93702000D03*
X118872000Y-91678000D03*
X118872000Y-89678000D03*
D29*
X101354000Y-105370000D03*
X99354000Y-105370000D03*
D18*
X138684000Y-108072000D03*
X138684000Y-106172000D03*
D29*
X115062000Y-102108000D03*
X113062000Y-102108000D03*
D24*
X104672000Y-100036000D03*
D14*
X119142000Y-100036000D03*
X121142000Y-100036000D03*
D16*
X107466000Y-127468000D03*
D14*
X94528000Y-103338000D03*
X96528000Y-103338000D03*
D37*
X88200500Y-71080000D03*
X85075500Y-71080000D03*
D10*
X132041500Y-114260000D03*
X135166500Y-114260000D03*
D38*
X127009000Y-123190000D03*
X124959000Y-123190000D03*
D29*
X115078000Y-100036000D03*
X113078000Y-100036000D03*
D34*
X99191000Y-79709000D03*
D35*
X92891000Y-77429000D03*
D34*
X99191000Y-75149000D03*
X115016000Y-79710000D03*
D35*
X108716000Y-77430000D03*
D34*
X115016000Y-75150000D03*
D24*
X107212000Y-100038000D03*
D10*
X137184000Y-101306000D03*
X140309000Y-101306000D03*
D38*
X127009000Y-120904000D03*
X124959000Y-120904000D03*
D17*
X120208000Y-87711500D03*
X121158000Y-87711500D03*
X122108000Y-87711500D03*
X122108000Y-85436500D03*
X120208000Y-85436500D03*
D18*
X118388000Y-87458000D03*
X118388000Y-85558000D03*
D39*
X131342000Y-100778000D03*
X131342000Y-98278000D03*
D40*
X131342000Y-96098000D03*
X131342000Y-92798000D03*
D41*
X100100000Y-126198000D03*
D42*
X100100000Y-123698000D03*
D43*
X118342000Y-82764000D03*
X121442000Y-82764000D03*
X118342000Y-68286000D03*
X121442000Y-68286000D03*
D19*
X107720000Y-111466000D03*
X107720000Y-113366000D03*
D29*
X126008000Y-100036000D03*
X124008000Y-100036000D03*
D26*
X101624000Y-95739500D03*
X101624000Y-93664500D03*
D18*
X118388000Y-72858000D03*
X118388000Y-70958000D03*
D43*
X118342000Y-75652000D03*
X121442000Y-75652000D03*
D14*
X99354000Y-112014000D03*
X101354000Y-112014000D03*
D24*
X117134000Y-102068000D03*
D14*
X119142000Y-104100000D03*
X121142000Y-104100000D03*
X114324000Y-85050000D03*
X116324000Y-85050000D03*
D41*
X92971000Y-122622000D03*
D42*
X92971000Y-120122000D03*
D44*
X124948000Y-91186000D03*
X122448000Y-91186000D03*
D24*
X117134000Y-100036000D03*
X135406000Y-101814000D03*
D14*
X114324000Y-69810000D03*
X116324000Y-69810000D03*
D45*
X112360000Y-122388000D03*
X120860000Y-122388000D03*
D34*
X114968000Y-72089000D03*
D35*
X108668000Y-69809000D03*
D34*
X114968000Y-67529000D03*
D46*
X119912000Y-116546000D03*
X119912000Y-118371000D03*
D26*
X101624000Y-99825000D03*
X101624000Y-97750000D03*
D14*
X114366000Y-77430000D03*
X116366000Y-77430000D03*
D24*
X111022000Y-100036000D03*
D47*
X108839000Y-116397000D03*
X107569000Y-116397000D03*
X106299000Y-116397000D03*
X105029000Y-116397000D03*
X105029000Y-121347000D03*
X106299000Y-121347000D03*
X107569000Y-121347000D03*
X108839000Y-121347000D03*
D14*
X98846000Y-85050000D03*
X100846000Y-85050000D03*
D16*
X75970000Y-95972000D03*
D29*
X126008000Y-104100000D03*
X124008000Y-104100000D03*
D24*
X108482000Y-100036000D03*
D29*
X118102000Y-118324000D03*
X116102000Y-118324000D03*
D11*
X102894000Y-67524000D03*
D48*
X99054000Y-114300000D03*
X100354000Y-114300000D03*
X101654000Y-114300000D03*
D49*
X87626000Y-119378000D03*
D50*
X85876000Y-118578000D03*
X87626000Y-117778000D03*
X85876000Y-116978000D03*
X87626000Y-116178000D03*
D51*
X86751000Y-121428000D03*
X86751000Y-114128000D03*
D18*
X102894000Y-119340000D03*
X102894000Y-117440000D03*
X118388000Y-79904000D03*
X118388000Y-78004000D03*
D32*
X107696000Y-106210500D03*
X107696000Y-103085500D03*
D14*
X98576000Y-69810000D03*
X100576000Y-69810000D03*
D24*
X104394000Y-105664000D03*
X104394000Y-108204000D03*
D52*
X121158000Y-93345000D03*
X121158000Y-94615000D03*
X121158000Y-95885000D03*
X121158000Y-97155000D03*
X126108000Y-97155000D03*
X126108000Y-95885000D03*
X126108000Y-94615000D03*
X126108000Y-93345000D03*
D53*
X133120000Y-79462000D03*
D54*
X133120000Y-86662000D03*
D55*
X128802000Y-98036500D03*
X128802000Y-101161500D03*
D14*
X101640000Y-72096000D03*
X103640000Y-72096000D03*
D24*
X104394000Y-106934000D03*
D44*
X134092000Y-103846000D03*
X131592000Y-103846000D03*
D24*
X117134000Y-104100000D03*
D10*
X137184000Y-104100000D03*
X140309000Y-104100000D03*
D14*
X99354000Y-109728000D03*
X101354000Y-109728000D03*
D26*
X101624000Y-91656000D03*
X101624000Y-89581000D03*
D34*
X114968000Y-87328000D03*
D35*
X108668000Y-85048000D03*
D34*
X114968000Y-82768000D03*
D56*
X91440000Y-114808000D03*
D57*
X91440000Y-112268000D03*
X91440000Y-109728000D03*
X91440000Y-107188000D03*
X91440000Y-104648000D03*
D14*
X94528000Y-107402000D03*
X96528000Y-107402000D03*
D58*
X133858000Y-93488000D03*
X133858000Y-95488000D03*
D59*
X128802000Y-93410500D03*
X128802000Y-95485500D03*
D37*
X85914500Y-76160000D03*
X82789500Y-76160000D03*
X85914500Y-73620000D03*
X82789500Y-73620000D03*
D55*
X100330000Y-116586000D03*
X100330000Y-119711000D03*
D14*
X119142000Y-102068000D03*
X121142000Y-102068000D03*
D12*
X114808000Y-91678000D03*
X114808000Y-89678000D03*
D24*
X104394000Y-104394000D03*
D14*
X94528000Y-105370000D03*
X96528000Y-105370000D03*
D29*
X115046000Y-104140000D03*
X113046000Y-104140000D03*
D32*
X122198000Y-118655000D03*
X122198000Y-115530000D03*
D34*
X99226000Y-87330000D03*
D35*
X92926000Y-85050000D03*
D34*
X99226000Y-82770000D03*
D32*
X117094000Y-97359000D03*
X117094000Y-94234000D03*
D11*
X102640000Y-75144000D03*
D20*
X91051795Y-95718000D03*
D21*
X86051795Y-95718000D03*
D12*
X99338000Y-91638000D03*
X99338000Y-89638000D03*
D14*
X99354000Y-107402000D03*
X101354000Y-107402000D03*
G36*
X111551334Y-96498598D02*
G01*
X111551724Y-96500560D01*
X111551493Y-96501028D01*
X111531688Y-96530667D01*
X111538874Y-96566794D01*
X111550627Y-96578547D01*
X111551145Y-96580479D01*
X111549731Y-96581893D01*
X111548823Y-96581923D01*
X111473801Y-96567000D01*
X110199199Y-96567000D01*
X110123560Y-96582045D01*
X110121666Y-96581402D01*
X110121276Y-96579440D01*
X110121507Y-96578972D01*
X110141312Y-96549333D01*
X110134126Y-96513206D01*
X110122373Y-96501453D01*
X110121855Y-96499521D01*
X110123269Y-96498107D01*
X110124177Y-96498077D01*
X110199199Y-96513000D01*
X111473801Y-96513000D01*
X111549440Y-96497955D01*
X111551334Y-96498598D01*
G37*
G36*
X105826334Y-96498598D02*
G01*
X105826724Y-96500560D01*
X105826493Y-96501028D01*
X105806688Y-96530667D01*
X105813874Y-96566794D01*
X105825627Y-96578547D01*
X105826145Y-96580479D01*
X105824731Y-96581893D01*
X105823823Y-96581923D01*
X105748801Y-96567000D01*
X104474199Y-96567000D01*
X104398560Y-96582045D01*
X104396666Y-96581402D01*
X104396276Y-96579440D01*
X104396507Y-96578972D01*
X104416312Y-96549333D01*
X104409126Y-96513206D01*
X104397373Y-96501453D01*
X104396855Y-96499521D01*
X104398269Y-96498107D01*
X104399177Y-96498077D01*
X104474199Y-96513000D01*
X105748801Y-96513000D01*
X105824440Y-96497955D01*
X105826334Y-96498598D01*
G37*
G36*
X111551334Y-95848598D02*
G01*
X111551724Y-95850560D01*
X111551493Y-95851028D01*
X111531688Y-95880667D01*
X111538874Y-95916794D01*
X111550627Y-95928547D01*
X111551145Y-95930479D01*
X111549731Y-95931893D01*
X111548823Y-95931923D01*
X111473801Y-95917000D01*
X110199199Y-95917000D01*
X110123560Y-95932045D01*
X110121666Y-95931402D01*
X110121276Y-95929440D01*
X110121507Y-95928972D01*
X110141312Y-95899333D01*
X110134126Y-95863206D01*
X110122373Y-95851453D01*
X110121855Y-95849521D01*
X110123269Y-95848107D01*
X110124177Y-95848077D01*
X110199199Y-95863000D01*
X111473801Y-95863000D01*
X111549440Y-95847955D01*
X111551334Y-95848598D01*
G37*
G36*
X105826334Y-95848598D02*
G01*
X105826724Y-95850560D01*
X105826493Y-95851028D01*
X105806688Y-95880667D01*
X105813874Y-95916794D01*
X105825627Y-95928547D01*
X105826145Y-95930479D01*
X105824731Y-95931893D01*
X105823823Y-95931923D01*
X105748801Y-95917000D01*
X104474199Y-95917000D01*
X104398560Y-95932045D01*
X104396666Y-95931402D01*
X104396276Y-95929440D01*
X104396507Y-95928972D01*
X104416312Y-95899333D01*
X104409126Y-95863206D01*
X104397373Y-95851453D01*
X104396855Y-95849521D01*
X104398269Y-95848107D01*
X104399177Y-95848077D01*
X104474199Y-95863000D01*
X105748801Y-95863000D01*
X105824440Y-95847955D01*
X105826334Y-95848598D01*
G37*
G36*
X105826334Y-95198598D02*
G01*
X105826724Y-95200560D01*
X105826493Y-95201028D01*
X105806688Y-95230667D01*
X105813874Y-95266794D01*
X105825627Y-95278547D01*
X105826145Y-95280479D01*
X105824731Y-95281893D01*
X105823823Y-95281923D01*
X105748801Y-95267000D01*
X104474199Y-95267000D01*
X104398560Y-95282045D01*
X104396666Y-95281402D01*
X104396276Y-95279440D01*
X104396507Y-95278972D01*
X104416312Y-95249333D01*
X104409126Y-95213206D01*
X104397373Y-95201453D01*
X104396855Y-95199521D01*
X104398269Y-95198107D01*
X104399177Y-95198077D01*
X104474199Y-95213000D01*
X105748801Y-95213000D01*
X105824440Y-95197955D01*
X105826334Y-95198598D01*
G37*
G36*
X111551334Y-95198598D02*
G01*
X111551724Y-95200560D01*
X111551493Y-95201028D01*
X111531688Y-95230667D01*
X111538874Y-95266794D01*
X111550627Y-95278547D01*
X111551145Y-95280479D01*
X111549731Y-95281893D01*
X111548823Y-95281923D01*
X111473801Y-95267000D01*
X110199199Y-95267000D01*
X110123560Y-95282045D01*
X110121666Y-95281402D01*
X110121276Y-95279440D01*
X110121507Y-95278972D01*
X110141312Y-95249333D01*
X110134126Y-95213206D01*
X110122373Y-95201453D01*
X110121855Y-95199521D01*
X110123269Y-95198107D01*
X110124177Y-95198077D01*
X110199199Y-95213000D01*
X111473801Y-95213000D01*
X111549440Y-95197955D01*
X111551334Y-95198598D01*
G37*
G36*
X111551334Y-94548598D02*
G01*
X111551724Y-94550560D01*
X111551493Y-94551028D01*
X111531688Y-94580667D01*
X111538874Y-94616794D01*
X111550627Y-94628547D01*
X111551145Y-94630479D01*
X111549731Y-94631893D01*
X111548823Y-94631923D01*
X111473801Y-94617000D01*
X110199199Y-94617000D01*
X110123560Y-94632045D01*
X110121666Y-94631402D01*
X110121276Y-94629440D01*
X110121507Y-94628972D01*
X110141312Y-94599333D01*
X110134126Y-94563206D01*
X110122373Y-94551453D01*
X110121855Y-94549521D01*
X110123269Y-94548107D01*
X110124177Y-94548077D01*
X110199199Y-94563000D01*
X111473801Y-94563000D01*
X111549440Y-94547955D01*
X111551334Y-94548598D01*
G37*
G36*
X105826334Y-94548598D02*
G01*
X105826724Y-94550560D01*
X105826493Y-94551028D01*
X105806688Y-94580667D01*
X105813874Y-94616794D01*
X105825627Y-94628547D01*
X105826145Y-94630479D01*
X105824731Y-94631893D01*
X105823823Y-94631923D01*
X105748801Y-94617000D01*
X104474199Y-94617000D01*
X104398560Y-94632045D01*
X104396666Y-94631402D01*
X104396276Y-94629440D01*
X104396507Y-94628972D01*
X104416312Y-94599333D01*
X104409126Y-94563206D01*
X104397373Y-94551453D01*
X104396855Y-94549521D01*
X104398269Y-94548107D01*
X104399177Y-94548077D01*
X104474199Y-94563000D01*
X105748801Y-94563000D01*
X105824440Y-94547955D01*
X105826334Y-94548598D01*
G37*
G36*
X105826334Y-93898598D02*
G01*
X105826724Y-93900560D01*
X105826493Y-93901028D01*
X105806688Y-93930667D01*
X105813874Y-93966794D01*
X105825627Y-93978547D01*
X105826145Y-93980479D01*
X105824731Y-93981893D01*
X105823823Y-93981923D01*
X105748801Y-93967000D01*
X104474199Y-93967000D01*
X104398560Y-93982045D01*
X104396666Y-93981402D01*
X104396276Y-93979440D01*
X104396507Y-93978972D01*
X104416312Y-93949333D01*
X104409126Y-93913206D01*
X104397373Y-93901453D01*
X104396855Y-93899521D01*
X104398269Y-93898107D01*
X104399177Y-93898077D01*
X104474199Y-93913000D01*
X105748801Y-93913000D01*
X105824440Y-93897955D01*
X105826334Y-93898598D01*
G37*
G36*
X111551334Y-93898598D02*
G01*
X111551724Y-93900560D01*
X111551493Y-93901028D01*
X111531688Y-93930667D01*
X111538874Y-93966794D01*
X111550627Y-93978547D01*
X111551145Y-93980479D01*
X111549731Y-93981893D01*
X111548823Y-93981923D01*
X111473801Y-93967000D01*
X110199199Y-93967000D01*
X110123560Y-93982045D01*
X110121666Y-93981402D01*
X110121276Y-93979440D01*
X110121507Y-93978972D01*
X110141312Y-93949333D01*
X110134126Y-93913206D01*
X110122373Y-93901453D01*
X110121855Y-93899521D01*
X110123269Y-93898107D01*
X110124177Y-93898077D01*
X110199199Y-93913000D01*
X111473801Y-93913000D01*
X111549440Y-93897955D01*
X111551334Y-93898598D01*
G37*
G36*
X105826334Y-93248598D02*
G01*
X105826724Y-93250560D01*
X105826493Y-93251028D01*
X105806688Y-93280667D01*
X105813874Y-93316794D01*
X105825627Y-93328547D01*
X105826145Y-93330479D01*
X105824731Y-93331893D01*
X105823823Y-93331923D01*
X105748801Y-93317000D01*
X104474199Y-93317000D01*
X104398560Y-93332045D01*
X104396666Y-93331402D01*
X104396276Y-93329440D01*
X104396507Y-93328972D01*
X104416312Y-93299333D01*
X104409126Y-93263206D01*
X104397373Y-93251453D01*
X104396855Y-93249521D01*
X104398269Y-93248107D01*
X104399177Y-93248077D01*
X104474199Y-93263000D01*
X105748801Y-93263000D01*
X105824440Y-93247955D01*
X105826334Y-93248598D01*
G37*
G36*
X111551334Y-93248598D02*
G01*
X111551724Y-93250560D01*
X111551493Y-93251028D01*
X111531688Y-93280667D01*
X111538874Y-93316794D01*
X111550627Y-93328547D01*
X111551145Y-93330479D01*
X111549731Y-93331893D01*
X111548823Y-93331923D01*
X111473801Y-93317000D01*
X110199199Y-93317000D01*
X110123560Y-93332045D01*
X110121666Y-93331402D01*
X110121276Y-93329440D01*
X110121507Y-93328972D01*
X110141312Y-93299333D01*
X110134126Y-93263206D01*
X110122373Y-93251453D01*
X110121855Y-93249521D01*
X110123269Y-93248107D01*
X110124177Y-93248077D01*
X110199199Y-93263000D01*
X111473801Y-93263000D01*
X111549440Y-93247955D01*
X111551334Y-93248598D01*
G37*
G36*
X111551334Y-92598598D02*
G01*
X111551724Y-92600560D01*
X111551493Y-92601028D01*
X111531688Y-92630667D01*
X111538874Y-92666794D01*
X111550627Y-92678547D01*
X111551145Y-92680479D01*
X111549731Y-92681893D01*
X111548823Y-92681923D01*
X111473801Y-92667000D01*
X110199199Y-92667000D01*
X110123560Y-92682045D01*
X110121666Y-92681402D01*
X110121276Y-92679440D01*
X110121507Y-92678972D01*
X110141312Y-92649333D01*
X110134126Y-92613206D01*
X110122373Y-92601453D01*
X110121855Y-92599521D01*
X110123269Y-92598107D01*
X110124177Y-92598077D01*
X110199199Y-92613000D01*
X111473801Y-92613000D01*
X111549440Y-92597955D01*
X111551334Y-92598598D01*
G37*
G36*
X105826334Y-92598598D02*
G01*
X105826724Y-92600560D01*
X105826493Y-92601028D01*
X105806688Y-92630667D01*
X105813874Y-92666794D01*
X105825627Y-92678547D01*
X105826145Y-92680479D01*
X105824731Y-92681893D01*
X105823823Y-92681923D01*
X105748801Y-92667000D01*
X104474199Y-92667000D01*
X104398560Y-92682045D01*
X104396666Y-92681402D01*
X104396276Y-92679440D01*
X104396507Y-92678972D01*
X104416312Y-92649333D01*
X104409126Y-92613206D01*
X104397373Y-92601453D01*
X104396855Y-92599521D01*
X104398269Y-92598107D01*
X104399177Y-92598077D01*
X104474199Y-92613000D01*
X105748801Y-92613000D01*
X105824440Y-92597955D01*
X105826334Y-92598598D01*
G37*
G36*
X111551334Y-91948598D02*
G01*
X111551724Y-91950560D01*
X111551493Y-91951028D01*
X111531688Y-91980667D01*
X111538874Y-92016794D01*
X111550627Y-92028547D01*
X111551145Y-92030479D01*
X111549731Y-92031893D01*
X111548823Y-92031923D01*
X111473801Y-92017000D01*
X110199199Y-92017000D01*
X110123560Y-92032045D01*
X110121666Y-92031402D01*
X110121276Y-92029440D01*
X110121507Y-92028972D01*
X110141312Y-91999333D01*
X110134126Y-91963206D01*
X110122373Y-91951453D01*
X110121855Y-91949521D01*
X110123269Y-91948107D01*
X110124177Y-91948077D01*
X110199199Y-91963000D01*
X111473801Y-91963000D01*
X111549440Y-91947955D01*
X111551334Y-91948598D01*
G37*
G36*
X105826334Y-91948598D02*
G01*
X105826724Y-91950560D01*
X105826493Y-91951028D01*
X105806688Y-91980667D01*
X105813874Y-92016794D01*
X105825627Y-92028547D01*
X105826145Y-92030479D01*
X105824731Y-92031893D01*
X105823823Y-92031923D01*
X105748801Y-92017000D01*
X104474199Y-92017000D01*
X104398560Y-92032045D01*
X104396666Y-92031402D01*
X104396276Y-92029440D01*
X104396507Y-92028972D01*
X104416312Y-91999333D01*
X104409126Y-91963206D01*
X104397373Y-91951453D01*
X104396855Y-91949521D01*
X104398269Y-91948107D01*
X104399177Y-91948077D01*
X104474199Y-91963000D01*
X105748801Y-91963000D01*
X105824440Y-91947955D01*
X105826334Y-91948598D01*
G37*
G36*
X111551334Y-91298598D02*
G01*
X111551724Y-91300560D01*
X111551493Y-91301028D01*
X111531688Y-91330667D01*
X111538874Y-91366794D01*
X111550627Y-91378547D01*
X111551145Y-91380479D01*
X111549731Y-91381893D01*
X111548823Y-91381923D01*
X111473801Y-91367000D01*
X110199199Y-91367000D01*
X110123560Y-91382045D01*
X110121666Y-91381402D01*
X110121276Y-91379440D01*
X110121507Y-91378972D01*
X110141312Y-91349333D01*
X110134126Y-91313206D01*
X110122373Y-91301453D01*
X110121855Y-91299521D01*
X110123269Y-91298107D01*
X110124177Y-91298077D01*
X110199199Y-91313000D01*
X111473801Y-91313000D01*
X111549440Y-91297955D01*
X111551334Y-91298598D01*
G37*
G36*
X105826334Y-91298598D02*
G01*
X105826724Y-91300560D01*
X105826493Y-91301028D01*
X105806688Y-91330667D01*
X105813874Y-91366794D01*
X105825627Y-91378547D01*
X105826145Y-91380479D01*
X105824731Y-91381893D01*
X105823823Y-91381923D01*
X105748801Y-91367000D01*
X104474199Y-91367000D01*
X104398560Y-91382045D01*
X104396666Y-91381402D01*
X104396276Y-91379440D01*
X104396507Y-91378972D01*
X104416312Y-91349333D01*
X104409126Y-91313206D01*
X104397373Y-91301453D01*
X104396855Y-91299521D01*
X104398269Y-91298107D01*
X104399177Y-91298077D01*
X104474199Y-91313000D01*
X105748801Y-91313000D01*
X105824440Y-91297955D01*
X105826334Y-91298598D01*
G37*
M02*
